<svg id="svg" version="1.1" xmlns="http://www.w3.org/2000/svg" xmlns:xlink="http://www.w3.org/1999/xlink" width="400" height="456.6757493188011" viewBox="0, 0, 400,456.6757493188011"><g id="svgg"><path id="path0" d="M258.800 30.400 C 258.370 30.678,258.785 30.789,260.267 30.794 C 261.404 30.797,262.664 30.905,263.067 31.033 C 263.738 31.246,263.734 31.212,263.024 30.633 C 262.163 29.931,259.732 29.798,258.800 30.400 M280.683 34.251 C 280.511 34.422,281.143 34.793,282.086 35.075 C 284.316 35.742,284.700 35.729,283.980 35.009 C 283.276 34.305,281.124 33.810,280.683 34.251 M266.800 36.249 C 266.800 36.606,266.601 40.868,266.358 45.721 C 265.888 55.111,266.126 57.600,267.493 57.600 C 268.075 57.600,268.067 57.537,267.430 57.071 C 266.536 56.418,266.505 55.598,266.948 44.300 C 267.135 39.515,267.179 35.600,267.044 35.600 C 266.910 35.600,266.800 35.892,266.800 36.249 M257.600 39.986 C 257.600 40.198,257.960 40.565,258.400 40.800 C 259.281 41.272,259.475 40.835,258.720 40.080 C 258.142 39.502,257.600 39.456,257.600 39.986 M278.260 41.011 C 278.527 41.709,280.000 42.610,280.000 42.076 C 280.000 41.685,278.682 40.400,278.281 40.400 C 278.140 40.400,278.131 40.675,278.260 41.011 M297.730 53.985 C 297.886 54.627,297.731 55.236,297.285 55.732 C 296.634 56.455,296.639 56.486,297.400 56.343 C 298.339 56.167,298.740 54.160,297.977 53.451 C 297.602 53.103,297.546 53.225,297.730 53.985 M274.661 60.405 C 273.280 62.743,270.319 63.678,267.726 62.595 C 265.826 61.801,265.552 62.139,267.255 63.177 C 270.319 65.045,275.600 63.065,275.600 60.047 C 275.600 58.937,275.507 58.973,274.661 60.405 M392.320 67.618 C 391.204 68.735,391.118 69.009,391.299 70.895 C 391.858 76.711,400.000 76.801,400.000 70.991 C 400.000 66.894,395.167 64.772,392.320 67.618 M262.743 76.131 C 265.512 79.468,277.530 80.157,282.902 77.287 C 285.293 76.010,285.114 75.730,282.552 76.740 C 276.877 78.977,269.652 78.775,263.818 76.215 C 262.506 75.639,262.323 75.625,262.743 76.131 M258.492 90.807 C 256.136 91.645,254.599 92.624,252.109 94.873 C 251.179 95.713,250.234 96.400,250.009 96.400 C 249.735 96.400,249.600 104.924,249.599 122.300 C 249.597 147.169,249.566 148.250,248.826 149.464 C 246.982 152.489,244.037 151.007,242.736 146.400 C 242.359 145.065,242.197 138.724,242.108 121.860 C 242.013 104.033,241.880 99.160,241.493 99.306 C 241.222 99.409,234.430 101.793,226.400 104.605 C 218.370 107.416,211.749 109.757,211.686 109.805 C 211.535 109.923,216.697 143.230,216.897 143.430 C 216.982 143.516,220.977 142.348,225.774 140.836 L 234.495 138.086 234.234 140.743 C 233.360 149.655,233.217 156.506,233.462 177.912 C 233.650 194.421,233.855 201.182,234.163 201.079 C 234.491 200.970,238.520 153.102,238.774 146.300 C 238.824 144.945,241.998 145.338,242.009 146.700 C 242.019 148.018,243.225 150.794,244.101 151.519 C 247.032 153.945,250.816 150.990,250.456 146.558 C 250.360 145.375,252.581 145.200,267.705 145.200 L 280.093 145.200 279.860 144.100 C 276.391 127.741,281.002 109.769,290.515 102.563 C 296.559 97.985,299.699 97.327,303.291 99.884 C 306.586 102.230,306.594 102.055,303.150 102.886 C 290.896 105.842,284.463 121.902,287.042 143.100 C 287.206 144.444,287.411 144.800,288.025 144.800 C 288.676 144.800,288.807 145.103,288.847 146.700 C 288.873 147.745,289.008 150.400,289.147 152.600 L 289.400 156.600 309.200 158.841 C 320.090 160.074,329.012 161.064,329.026 161.041 C 329.041 161.018,328.820 158.306,328.536 155.012 C 325.586 120.821,314.043 100.502,293.442 93.237 C 291.486 92.546,289.848 92.031,289.802 92.091 C 289.757 92.151,289.126 93.328,288.400 94.707 C 282.393 106.122,265.096 104.284,261.983 91.900 C 261.448 89.774,261.423 89.766,258.492 90.807 M284.800 141.171 C 284.800 141.407,284.980 141.600,285.200 141.600 C 285.420 141.600,285.587 142.005,285.572 142.500 C 285.545 143.356,285.528 143.361,285.215 142.600 C 284.923 141.890,284.855 141.875,284.612 142.469 C 284.314 143.197,284.998 144.800,285.606 144.800 C 286.089 144.800,286.506 143.162,286.333 141.945 C 286.203 141.030,284.800 140.321,284.800 141.171 M280.320 145.636 C 279.663 147.362,282.293 149.481,284.536 149.033 C 286.175 148.705,287.603 147.300,287.587 146.030 C 287.575 145.031,287.558 145.024,287.006 145.800 C 284.977 148.652,281.877 148.699,280.839 145.893 C 280.614 145.286,280.479 145.219,280.320 145.636 M247.443 146.567 C 247.728 147.310,246.973 147.436,246.640 146.700 C 246.516 146.425,246.458 146.560,246.513 147.000 C 246.644 148.070,248.200 148.101,248.200 147.033 C 248.200 146.612,247.975 146.192,247.700 146.100 C 247.382 145.994,247.288 146.164,247.443 146.567 M250.000 165.600 C 250.809 166.123,254.923 166.123,254.600 165.600 C 254.464 165.380,253.238 165.203,251.876 165.206 C 250.130 165.210,249.577 165.327,250.000 165.600 M261.000 165.600 C 261.136 165.820,262.227 166.000,263.424 166.000 C 264.621 166.000,265.600 165.820,265.600 165.600 C 265.600 165.377,264.525 165.200,263.176 165.200 C 261.663 165.200,260.846 165.350,261.000 165.600 M273.000 165.600 C 273.136 165.820,274.227 166.000,275.424 166.000 C 276.621 166.000,277.600 165.820,277.600 165.600 C 277.600 165.377,276.525 165.200,275.176 165.200 C 273.663 165.200,272.846 165.350,273.000 165.600 M281.826 167.365 C 281.494 169.578,281.911 171.531,282.431 170.200 C 282.856 169.112,282.865 166.721,282.445 166.060 C 282.214 165.694,282.013 166.116,281.826 167.365 M247.013 167.703 C 246.671 168.954,247.037 171.452,247.615 171.810 C 248.066 172.088,248.068 169.087,247.618 167.600 L 247.315 166.600 247.013 167.703 M294.909 170.000 C 294.909 170.990,294.987 171.395,295.082 170.900 C 295.178 170.405,295.178 169.595,295.082 169.100 C 294.987 168.605,294.909 169.010,294.909 170.000 M295.331 175.400 C 295.333 176.940,295.405 177.521,295.492 176.691 C 295.579 175.861,295.577 174.601,295.489 173.891 C 295.400 173.181,295.329 173.860,295.331 175.400 M278.334 177.000 C 277.641 178.119,276.887 180.400,277.210 180.400 C 277.747 180.400,278.871 178.063,278.715 177.273 C 278.641 176.903,278.470 176.780,278.334 177.000 M248.624 178.500 C 249.117 180.101,250.125 181.813,250.288 181.330 C 250.452 180.844,248.953 177.600,248.565 177.600 C 248.445 177.600,248.471 178.005,248.624 178.500 M295.731 181.800 C 295.733 183.340,295.805 183.921,295.892 183.091 C 295.979 182.261,295.977 181.001,295.889 180.291 C 295.800 179.581,295.729 180.260,295.731 181.800 M256.591 184.785 C 256.852 185.208,259.388 185.994,260.500 185.998 C 261.968 186.002,261.113 185.248,259.180 184.833 C 256.698 184.301,256.287 184.293,256.591 184.785 M270.400 184.867 C 268.469 185.413,267.954 186.003,269.420 185.990 C 270.069 185.984,271.320 185.638,272.200 185.222 C 274.043 184.350,272.977 184.140,270.400 184.867 M125.360 217.780 C 105.862 223.054,95.079 234.053,96.129 247.594 C 96.483 252.163,98.545 256.800,100.221 256.800 C 103.209 256.800,109.148 242.547,110.990 230.956 L 111.251 229.312 114.326 230.859 C 119.934 233.680,126.651 234.388,131.450 232.664 L 133.100 232.071 135.050 234.072 C 142.781 242.006,145.316 241.618,145.876 232.412 C 146.614 220.299,138.208 214.304,125.360 217.780 M195.355 229.992 C 192.665 231.079,191.988 234.647,194.031 236.974 C 196.984 240.337,201.600 238.566,201.600 234.070 C 201.600 230.967,198.290 228.806,195.355 229.992 M133.200 240.502 C 131.344 241.073,132.594 241.385,135.147 240.989 C 136.625 240.760,136.838 240.636,136.200 240.379 C 135.181 239.968,134.902 239.979,133.200 240.502 M112.976 245.018 C 112.255 245.592,112.328 245.618,114.000 245.377 C 116.286 245.048,117.052 244.400,115.156 244.400 C 114.385 244.400,113.404 244.678,112.976 245.018 M127.827 257.139 C 127.929 262.831,127.836 266.391,127.571 266.939 C 127.169 267.773,127.175 267.776,127.778 267.024 C 128.477 266.151,128.563 260.056,127.985 252.400 C 127.753 249.332,127.711 250.610,127.827 257.139 M135.588 249.178 C 136.079 250.095,136.757 250.576,137.091 250.243 C 137.369 249.964,136.040 248.400,135.524 248.400 C 135.330 248.400,135.359 248.750,135.588 249.178 M119.200 251.120 C 119.200 251.541,120.069 252.400,120.494 252.400 C 120.678 252.400,120.635 252.040,120.400 251.600 C 119.977 250.810,119.200 250.499,119.200 251.120 M95.200 266.400 C 94.664 267.401,95.319 268.805,96.314 268.788 C 96.939 268.777,96.935 268.738,96.276 268.354 C 95.726 268.035,95.613 267.651,95.807 266.766 C 96.104 265.417,95.818 265.245,95.200 266.400 M118.801 268.313 C 118.791 272.035,123.746 274.449,127.145 272.377 C 128.901 271.307,128.605 271.085,126.425 271.836 C 123.644 272.794,121.254 271.820,119.556 269.035 C 119.142 268.356,118.802 268.031,118.801 268.313 M130.800 289.327 C 126.127 291.032,119.841 291.104,115.200 289.505 C 111.358 288.181,111.123 288.428,114.640 290.093 C 119.787 292.530,129.721 291.855,133.600 288.804 C 134.829 287.838,134.931 287.819,130.800 289.327 M223.200 301.594 C 221.770 301.998,219.812 302.538,218.849 302.794 C 217.550 303.138,217.215 303.375,217.549 303.709 C 218.693 304.853,217.470 307.200,215.730 307.200 C 214.780 307.200,213.600 306.019,213.600 305.069 C 213.600 304.236,213.774 304.227,209.756 305.280 C 207.235 305.942,206.400 306.327,206.400 306.830 C 206.400 308.256,206.921 310.001,207.350 310.014 C 207.699 310.024,227.068 304.423,227.502 304.186 C 227.744 304.053,226.499 301.036,226.168 300.952 C 225.965 300.902,224.630 301.190,223.200 301.594 M314.943 309.597 C 312.144 310.726,312.105 315.824,314.882 317.558 C 316.896 318.816,320.437 317.808,321.218 315.753 C 322.791 311.616,319.045 307.941,314.943 309.597 M87.800 315.200 C 86.977 315.409,87.800 315.520,90.416 315.553 C 96.851 315.632,101.489 317.244,104.716 320.521 C 109.060 324.932,109.208 326.581,107.044 346.400 C 106.263 353.550,105.502 361.155,105.353 363.300 L 105.082 367.200 102.820 367.200 C 98.161 367.200,67.905 370.386,66.600 371.014 C 64.975 371.796,87.122 369.986,99.249 368.346 L 105.497 367.500 106.743 358.450 C 111.052 327.137,110.988 324.425,105.828 319.668 C 101.617 315.787,93.450 313.762,87.800 315.200 M50.799 330.400 C 48.717 330.892,47.504 333.881,48.559 335.921 C 50.838 340.328,56.400 339.093,56.400 334.180 C 56.400 331.656,53.571 329.746,50.799 330.400 M160.407 344.200 C 160.389 349.090,161.012 360.340,161.582 365.400 C 162.111 370.108,162.091 359.280,161.551 349.200 C 161.031 339.495,160.434 336.882,160.407 344.200 " stroke="none" fill="#241352" fill-rule="evenodd"></path><path id="path1" d="M258.267 7.066 C 252.071 9.219,248.527 16.994,249.995 25.211 C 251.077 31.266,253.281 31.076,260.221 24.332 L 262.642 21.980 264.421 22.632 C 269.089 24.342,277.635 23.264,282.146 20.396 C 283.217 19.716,284.134 19.213,284.185 19.280 C 284.236 19.346,284.682 21.463,285.176 23.984 C 287.635 36.525,292.779 47.152,296.085 46.520 C 298.366 46.084,302.128 49.144,302.635 51.848 C 303.552 56.732,300.982 61.570,296.924 62.600 L 295.025 63.082 292.324 77.420 C 290.839 85.305,289.663 91.784,289.712 91.818 C 289.760 91.851,291.330 92.378,293.200 92.988 C 299.678 95.101,305.016 98.468,309.859 103.495 L 312.318 106.047 313.759 104.782 C 315.855 102.942,315.701 99.700,313.474 98.803 C 312.731 98.503,312.821 98.447,314.080 98.425 C 319.060 98.340,322.800 96.025,322.800 93.029 C 322.800 91.126,321.357 89.600,319.558 89.600 L 318.280 89.600 319.871 88.448 C 323.256 85.996,325.662 80.375,324.250 78.220 C 323.362 76.865,321.217 76.857,318.340 78.196 C 314.922 79.787,312.697 79.436,310.316 76.930 C 307.674 74.150,307.615 73.015,309.001 51.800 C 310.759 24.903,310.371 22.799,302.977 19.159 C 300.403 17.892,292.390 16.849,292.867 17.843 C 292.961 18.039,293.993 20.144,295.160 22.521 C 297.314 26.908,298.066 29.665,297.246 30.172 C 296.984 30.334,296.800 30.162,296.800 29.756 C 296.800 29.377,295.915 27.160,294.832 24.831 C 293.750 22.503,292.737 20.088,292.581 19.466 C 292.425 18.844,292.005 18.229,291.649 18.099 C 290.876 17.817,286.287 14.786,286.000 14.369 C 285.464 13.588,276.470 9.520,272.400 8.217 C 266.741 6.405,261.416 5.972,258.267 7.066 M348.200 176.402 C 338.693 181.339,336.800 182.574,336.800 183.842 C 336.800 184.577,341.092 189.386,347.582 195.923 C 354.706 203.098,354.474 203.115,357.873 195.200 C 362.592 184.211,364.152 174.802,361.600 172.719 L 360.600 171.903 360.473 172.745 C 360.403 173.208,359.824 173.895,359.185 174.273 C 357.964 174.994,357.577 176.210,356.982 181.200 C 356.639 184.077,355.803 187.769,354.513 192.110 L 353.470 195.621 354.535 196.732 C 355.970 198.230,355.895 198.400,353.800 198.400 C 351.769 198.400,351.771 198.403,352.622 196.758 L 353.244 195.555 350.453 192.477 C 344.161 185.541,342.615 184.241,341.516 184.961 C 340.408 185.687,340.000 185.473,340.000 184.166 C 340.000 182.167,340.415 181.865,341.600 183.000 L 342.695 184.049 345.847 182.187 C 353.597 177.611,358.000 174.701,358.000 174.155 C 358.000 173.830,358.431 173.133,358.958 172.606 C 359.952 171.611,359.915 171.197,358.833 171.204 C 358.485 171.207,353.700 173.545,348.200 176.402 M238.347 248.100 C 230.535 257.912,224.953 269.200,227.913 269.200 C 229.771 269.200,243.200 251.060,243.200 248.550 C 243.200 245.598,240.535 245.351,238.347 248.100 M282.294 261.763 C 281.271 262.786,279.853 276.744,280.076 283.600 C 280.201 287.434,281.025 288.745,282.423 287.334 C 283.225 286.524,285.590 269.667,285.596 264.714 C 285.601 261.471,284.009 260.048,282.294 261.763 M247.000 289.865 C 245.067 290.391,244.106 292.526,245.339 293.550 C 245.776 293.912,245.586 294.305,244.338 295.617 C 234.990 305.444,246.125 319.671,258.374 313.550 C 271.616 306.933,261.520 285.908,247.000 289.865 M253.990 295.467 C 262.615 297.859,261.744 310.718,252.970 310.512 C 246.333 310.357,242.358 302.452,246.299 297.245 C 247.165 296.101,247.249 295.770,246.837 295.111 C 246.253 294.176,250.009 294.363,253.990 295.467 M10.343 384.492 C 9.676 385.211,8.786 386.166,8.365 386.614 C 7.113 387.946,7.498 389.753,13.387 410.200 C 18.500 427.951,16.630 427.913,39.085 410.717 C 50.790 401.754,50.874 402.358,36.600 393.026 C 26.771 386.600,21.966 384.621,13.278 383.421 C 11.705 383.204,11.450 383.297,10.343 384.492 M11.632 388.285 C 12.225 389.844,11.905 390.155,10.690 389.200 C 9.323 388.124,9.094 386.101,10.419 386.810 C 10.870 387.051,11.416 387.715,11.632 388.285 M17.231 392.436 C 23.231 394.103,31.504 397.630,37.081 400.899 L 39.519 402.327 41.559 400.953 L 43.600 399.579 43.600 402.189 C 43.600 405.126,43.421 405.251,41.286 403.800 C 39.342 402.479,39.798 402.320,34.135 406.300 C 31.396 408.225,28.580 410.134,27.877 410.542 C 27.175 410.950,25.533 412.073,24.230 413.038 C 22.926 414.003,21.813 414.746,21.756 414.689 C 21.699 414.632,19.859 409.639,17.668 403.593 C 15.477 397.547,13.544 392.254,13.372 391.831 C 13.110 391.182,13.182 391.112,13.831 391.383 C 14.254 391.561,15.784 392.034,17.231 392.436 M22.382 418.242 C 22.395 418.560,21.834 418.573,20.400 418.289 L 18.400 417.894 19.900 416.765 L 21.400 415.636 21.882 416.718 C 22.147 417.313,22.372 417.999,22.382 418.242 " stroke="none" fill="#ff7081" fill-rule="evenodd"></path><path id="path2" d="M288.579 16.053 C 290.868 17.693,290.910 17.705,293.551 17.459 C 298.923 16.960,303.656 18.514,306.956 21.862 C 310.669 25.627,310.806 27.431,309.222 51.579 C 308.250 66.392,308.069 71.004,308.398 72.589 C 309.516 77.976,313.299 80.243,317.865 78.264 C 323.865 75.663,326.077 77.309,324.158 82.943 C 323.788 84.027,322.668 85.755,321.521 87.010 C 319.556 89.160,319.541 89.197,320.463 89.550 C 325.608 91.517,322.567 97.790,316.222 98.299 L 313.620 98.508 314.610 99.685 C 316.126 101.486,315.451 104.395,313.243 105.577 C 312.486 105.982,312.559 106.159,314.632 108.902 C 321.628 118.164,326.627 133.875,328.570 152.704 C 329.507 161.785,329.569 161.346,327.400 161.101 C 325.222 160.856,325.293 159.939,326.673 170.437 C 330.889 202.524,323.989 226.655,308.314 234.639 C 299.879 238.935,263.215 233.302,227.400 222.208 C 224.980 221.458,222.100 220.750,221.000 220.633 C 217.867 220.301,209.200 219.977,209.200 220.191 C 209.200 221.115,224.346 230.132,230.400 232.812 C 306.211 266.372,390.537 213.441,392.280 131.200 C 393.537 71.899,350.550 22.003,292.010 14.816 C 286.030 14.082,285.894 14.131,288.579 16.053 M144.200 15.200 C 144.036 15.466,156.079 15.577,180.076 15.532 C 199.944 15.494,214.220 15.337,211.800 15.183 C 204.634 14.725,144.484 14.741,144.200 15.200 M244.000 19.045 C 241.470 19.819,237.150 21.386,234.400 22.527 L 229.400 24.601 229.293 34.101 L 229.186 43.600 216.040 43.600 L 202.894 43.600 202.658 46.500 C 202.528 48.095,202.304 51.534,202.160 54.142 L 201.899 58.885 197.815 54.815 L 193.731 50.745 191.338 53.472 C 186.554 58.925,186.179 59.583,185.641 63.473 C 185.373 65.413,185.068 67.450,184.964 68.000 C 184.859 68.550,185.554 66.836,186.507 64.191 C 190.942 51.883,192.654 53.084,189.426 66.238 C 188.676 69.295,188.113 71.846,188.174 71.907 C 188.235 71.968,189.403 69.449,190.770 66.309 C 197.263 51.394,198.203 55.607,192.585 74.441 C 190.695 80.775,190.667 80.735,194.541 77.224 C 201.203 71.187,200.772 74.040,193.352 85.097 C 190.172 89.836,189.744 90.666,190.271 91.074 C 190.810 91.492,190.454 93.370,187.276 106.874 C 185.292 115.303,183.698 122.230,183.734 122.267 C 184.317 122.857,211.634 111.688,211.487 110.919 C 211.238 109.616,210.796 109.809,226.800 104.226 C 234.830 101.425,241.613 98.860,241.874 98.526 C 242.365 97.897,248.320 96.027,249.887 96.010 C 250.374 96.004,251.384 95.389,252.130 94.643 C 254.144 92.629,256.459 91.219,259.072 90.413 C 261.345 89.712,261.403 89.659,261.517 88.148 C 261.581 87.296,261.985 84.710,262.416 82.400 C 263.451 76.845,263.492 77.071,261.190 75.594 C 252.619 70.094,249.079 59.328,249.814 41.000 C 250.138 32.906,250.151 30.775,249.925 22.301 C 249.778 16.792,250.344 17.103,244.000 19.045 M144.400 24.000 C 144.400 24.460,204.623 24.476,211.800 24.017 C 214.220 23.863,200.045 23.706,180.300 23.668 C 156.588 23.623,144.400 23.736,144.400 24.000 M180.600 32.364 C 172.512 32.563,171.535 32.647,174.400 32.898 C 178.529 33.259,207.521 33.199,214.200 32.816 C 218.038 32.595,216.707 32.526,207.560 32.470 C 201.269 32.432,194.789 32.339,193.160 32.264 C 191.532 32.190,185.880 32.235,180.600 32.364 M358.285 92.500 C 360.342 94.745,367.200 105.713,367.200 106.758 C 367.200 108.140,366.687 108.599,360.000 113.207 C 350.966 119.432,348.726 118.955,344.159 109.833 C 340.145 101.814,343.501 101.402,349.184 109.216 C 351.746 112.738,351.964 112.735,356.770 109.113 C 358.876 107.525,360.673 106.176,360.763 106.116 C 360.853 106.056,359.726 104.203,358.258 101.998 L 355.589 97.990 352.494 100.156 C 347.636 103.556,346.646 103.939,345.297 102.936 C 342.746 101.040,343.946 99.360,351.538 94.198 C 355.689 91.375,356.961 91.055,358.285 92.500 M354.413 95.892 C 354.460 97.042,355.616 97.727,356.610 97.194 C 357.325 96.812,357.476 96.568,357.115 96.378 C 356.203 95.899,354.400 95.575,354.413 95.892 M361.868 105.380 C 361.262 105.839,361.217 106.083,361.601 106.801 C 362.148 107.825,362.305 107.726,362.784 106.054 C 363.178 104.682,362.981 104.537,361.868 105.380 M232.460 138.910 C 231.723 139.146,230.934 139.747,230.706 140.246 C 229.275 143.386,189.351 149.488,172.700 149.111 C 168.575 149.017,165.200 149.092,165.200 149.277 C 165.200 153.927,170.651 170.162,175.483 179.900 C 178.451 185.884,178.163 185.638,180.162 183.900 C 183.154 181.298,182.579 178.328,178.590 175.776 C 174.346 173.061,174.497 170.000,178.874 170.000 C 187.170 170.000,190.450 181.763,183.934 188.143 L 181.540 190.487 183.315 193.143 C 184.290 194.605,186.396 197.487,187.994 199.548 L 190.899 203.296 194.750 203.047 C 196.867 202.911,200.040 202.787,201.800 202.773 C 203.560 202.759,206.030 202.646,207.290 202.523 L 209.579 202.299 208.503 201.449 C 207.912 200.982,206.163 199.880,204.617 199.000 C 197.627 195.020,201.584 195.279,219.000 199.941 C 220.805 200.424,223.826 200.768,227.500 200.908 L 233.200 201.125 233.201 175.262 C 233.203 152.648,233.486 142.580,234.215 139.300 C 234.436 138.307,234.384 138.295,232.460 138.910 M362.300 173.138 C 364.429 175.757,362.044 186.551,356.718 198.400 C 354.588 203.139,354.156 202.956,344.931 193.400 C 333.911 181.987,333.384 183.813,350.185 175.189 L 358.829 170.752 360.314 171.638 C 361.131 172.124,362.025 172.800,362.300 173.138 M359.325 172.314 C 359.064 172.480,358.659 173.120,358.424 173.736 L 357.999 174.855 359.199 174.000 C 360.750 172.897,360.866 171.334,359.325 172.314 M350.140 179.754 L 342.879 184.173 347.940 189.617 C 350.723 192.612,353.122 194.958,353.271 194.831 C 354.211 194.030,358.177 175.878,357.513 175.413 C 357.451 175.370,354.133 177.323,350.140 179.754 M26.000 181.560 C 15.726 181.750,13.789 181.863,16.761 182.100 C 21.324 182.464,75.557 182.398,84.800 182.018 C 90.635 181.777,89.889 181.737,78.365 181.673 C 71.196 181.633,59.406 181.537,52.165 181.460 C 44.924 181.384,33.150 181.429,26.000 181.560 M340.400 183.730 C 340.400 185.310,340.652 185.489,341.745 184.690 C 342.395 184.214,342.373 184.114,341.421 183.220 L 340.400 182.261 340.400 183.730 M26.000 189.160 C 15.726 189.350,13.789 189.463,16.761 189.700 C 21.324 190.064,75.557 189.998,84.800 189.618 C 90.635 189.377,89.889 189.337,78.365 189.273 C 71.196 189.233,59.406 189.137,52.165 189.060 C 44.924 188.984,33.150 189.029,26.000 189.160 M352.807 196.783 C 352.174 198.310,352.439 198.626,353.965 198.160 L 355.143 197.800 354.233 196.670 L 353.322 195.540 352.807 196.783 M42.800 197.200 C 42.800 197.667,81.060 197.680,85.200 197.214 C 86.630 197.054,77.675 196.895,65.300 196.861 C 50.526 196.821,42.800 196.937,42.800 197.200 M195.019 207.471 C 195.693 208.072,196.381 208.177,198.919 208.068 C 202.270 207.925,203.220 207.200,200.056 207.200 C 198.987 207.200,197.232 207.097,196.156 206.971 C 194.238 206.747,194.216 206.757,195.019 207.471 M199.905 211.883 C 200.402 211.979,201.122 211.975,201.505 211.875 C 201.887 211.775,201.480 211.696,200.600 211.701 C 199.720 211.705,199.407 211.787,199.905 211.883 M101.600 229.503 C 49.883 236.494,8.755 282.274,5.383 336.602 L 5.110 341.005 16.672 341.002 C 27.070 341.000,28.344 341.071,29.317 341.709 C 30.533 342.506,30.761 344.003,29.789 344.810 C 29.042 345.429,14.130 345.126,8.876 344.384 C 4.727 343.799,5.001 343.301,5.560 350.395 C 6.374 360.720,8.538 371.482,11.471 379.800 L 12.600 383.000 14.600 383.339 C 23.354 384.825,30.377 388.255,42.881 397.151 C 50.281 402.417,50.273 402.445,39.000 410.924 C 31.570 416.513,31.832 415.873,35.357 419.796 C 75.307 464.256,146.591 468.868,192.800 429.983 L 193.800 429.141 185.508 429.396 C 177.355 429.646,177.134 429.676,172.308 431.177 C 169.609 432.017,165.600 433.208,163.400 433.824 C 161.200 434.440,158.855 435.352,158.190 435.851 C 154.121 438.900,147.597 440.745,139.800 441.050 C 135.655 441.212,132.122 441.671,126.200 442.816 C 107.695 446.393,92.413 447.413,88.000 445.364 C 71.389 437.654,64.727 414.072,69.219 378.885 C 69.649 375.521,70.000 372.613,70.000 372.423 C 70.000 372.232,68.920 372.174,67.600 372.293 L 65.200 372.511 65.392 370.756 C 65.498 369.790,65.782 366.840,66.023 364.200 C 67.713 345.699,73.640 327.067,78.898 323.722 C 79.177 323.545,80.206 322.320,81.185 321.000 C 86.803 313.427,94.101 308.110,102.862 305.205 L 106.701 303.932 106.211 302.266 C 105.941 301.350,104.580 294.531,103.187 287.114 L 100.655 273.627 98.403 273.863 C 89.552 274.788,87.471 261.078,95.990 257.971 C 98.567 257.032,98.625 256.763,97.031 253.081 C 94.153 246.432,96.147 236.706,101.588 230.853 C 102.992 229.343,102.992 229.315,101.600 229.503 M145.913 234.323 C 145.687 237.482,144.972 239.236,143.681 239.800 C 142.904 240.139,142.799 240.413,142.987 241.600 C 145.970 260.444,142.311 278.732,134.234 285.351 C 132.546 286.734,131.621 288.779,132.900 288.298 C 135.156 287.450,135.415 287.539,134.061 288.698 L 132.722 289.843 133.392 293.420 C 133.761 295.387,134.004 298.147,133.931 299.553 L 133.800 302.109 135.900 302.646 C 137.055 302.942,138.716 303.549,139.592 303.996 C 140.468 304.443,143.483 305.600,146.292 306.567 C 156.785 310.180,183.338 319.639,183.761 319.914 C 184.002 320.071,184.200 320.534,184.200 320.943 C 184.200 321.570,211.234 332.400,212.800 332.400 C 212.949 332.400,211.931 327.585,210.539 321.700 C 209.147 315.815,208.006 310.865,208.004 310.700 C 208.002 310.535,207.748 310.400,207.440 310.400 C 206.635 310.400,205.704 306.430,206.408 305.995 C 207.137 305.545,206.898 305.098,202.007 297.775 C 193.548 285.109,192.921 282.080,200.123 288.673 C 202.521 290.869,203.447 291.315,203.084 290.100 C 196.128 266.805,196.808 261.112,204.399 279.102 C 205.351 281.358,206.175 283.158,206.230 283.102 C 206.286 283.046,205.813 280.840,205.181 278.200 C 202.953 268.903,202.777 265.139,204.697 267.869 C 205.518 269.037,207.930 274.904,208.822 277.903 C 209.621 280.590,209.658 279.679,208.941 274.964 L 208.278 270.600 205.580 267.400 C 192.099 251.408,171.281 238.213,150.408 232.429 C 146.010 231.210,146.139 231.156,145.913 234.323 M75.752 282.604 C 87.935 285.778,91.083 300.689,80.648 305.794 C 71.162 310.435,60.450 302.072,63.964 292.768 C 64.947 290.165,67.326 287.200,68.431 287.200 C 69.255 287.200,69.527 288.551,68.794 289.004 C 65.891 290.798,66.334 297.150,69.590 300.420 C 74.918 305.772,82.594 302.555,82.599 294.969 C 82.601 290.052,79.258 287.595,71.498 286.813 C 68.191 286.480,67.847 286.324,67.443 284.979 C 66.712 282.549,70.921 281.346,75.752 282.604 M214.152 303.816 C 212.952 305.649,214.576 307.544,216.680 306.766 C 217.867 306.327,218.205 304.972,217.424 303.780 C 216.566 302.471,215.023 302.488,214.152 303.816 M147.222 313.578 C 146.429 314.371,145.778 316.737,146.094 317.679 C 146.190 317.965,146.499 317.480,146.779 316.600 C 147.753 313.541,149.059 313.269,150.778 315.768 C 152.674 318.524,156.221 318.518,156.743 315.758 C 156.873 315.071,156.796 315.084,155.917 315.900 C 154.228 317.469,152.955 316.944,151.065 313.900 C 150.234 312.562,148.392 312.408,147.222 313.578 M98.035 318.163 L 97.130 319.126 98.944 318.474 C 100.081 318.065,100.579 317.708,100.279 317.517 C 99.482 317.010,98.982 317.154,98.035 318.163 M101.509 318.457 C 101.862 318.905,101.938 319.783,101.758 321.319 C 101.374 324.590,103.977 326.766,106.400 325.200 C 106.847 324.911,106.619 324.811,105.509 324.806 C 103.554 324.798,102.754 323.641,102.897 321.026 C 102.986 319.378,102.866 319.034,102.000 318.466 C 101.093 317.870,101.047 317.869,101.509 318.457 M132.435 323.472 C 133.534 326.773,132.818 327.298,128.196 326.583 C 125.948 326.235,124.393 327.447,124.416 329.529 L 124.431 331.000 124.954 329.800 C 125.739 327.999,126.578 327.462,128.096 327.789 C 133.417 328.936,135.747 326.643,132.811 323.151 L 132.012 322.200 132.435 323.472 M150.633 329.630 C 153.186 330.371,153.541 331.481,152.566 335.676 C 151.999 338.116,155.024 339.514,157.545 337.977 C 159.249 336.938,159.051 336.737,156.892 337.314 C 154.355 337.991,153.392 336.967,154.149 334.398 C 155.120 331.106,153.949 329.171,151.024 329.236 C 149.402 329.272,149.402 329.273,150.633 329.630 M54.606 330.804 C 58.361 333.125,56.746 338.800,52.329 338.800 C 48.531 338.800,46.483 333.855,49.169 331.169 C 50.594 329.745,52.667 329.605,54.606 330.804 M172.000 330.284 C 172.000 330.491,172.450 331.083,173.000 331.600 C 174.984 333.464,174.093 335.200,171.151 335.200 C 167.728 335.200,165.495 338.295,167.566 340.169 C 168.311 340.843,168.326 340.819,168.121 339.286 C 167.853 337.288,168.923 336.400,171.600 336.400 C 175.762 336.400,176.678 332.857,173.100 330.601 C 172.495 330.220,172.000 330.077,172.000 330.284 M86.614 331.100 C 87.900 334.107,86.977 335.162,83.738 334.385 C 80.559 333.623,77.642 335.577,78.584 337.837 C 78.859 338.496,78.951 338.424,79.260 337.309 C 79.780 335.433,80.861 334.991,83.422 335.605 C 87.458 336.573,89.228 334.711,87.516 331.300 C 86.988 330.248,86.172 330.067,86.614 331.100 M98.500 342.796 C 96.838 343.809,96.777 344.640,98.427 343.786 C 100.982 342.465,101.816 343.034,101.683 346.006 C 101.524 349.524,103.627 351.754,105.871 350.448 C 106.513 350.075,106.468 350.023,105.500 350.012 C 103.476 349.990,102.742 348.748,103.039 345.847 C 103.411 342.221,101.524 340.952,98.500 342.796 M125.449 343.058 C 125.834 345.125,124.472 346.166,121.793 345.851 C 118.193 345.428,116.487 348.138,118.803 350.603 C 120.118 352.003,120.537 351.843,119.596 350.300 C 118.092 347.834,118.933 346.749,122.100 347.072 C 125.417 347.410,127.536 344.841,125.807 342.576 C 125.252 341.850,125.229 341.880,125.449 343.058 M151.758 350.029 C 151.683 352.087,150.968 352.511,148.090 352.203 C 144.159 351.782,142.804 353.833,144.823 357.145 C 145.880 358.878,146.194 358.562,145.372 356.594 C 144.259 353.930,145.511 352.578,148.159 353.584 C 150.328 354.409,152.400 352.877,152.400 350.450 C 152.400 348.897,151.813 348.512,151.758 350.029 M161.787 350.300 C 161.937 351.125,162.152 365.189,162.264 381.553 L 162.466 411.305 167.418 411.115 C 170.141 411.010,172.601 410.737,172.884 410.509 C 174.021 409.593,190.591 405.200,192.908 405.200 C 194.858 405.200,194.056 406.450,190.983 408.200 C 189.437 409.080,187.659 410.205,187.032 410.700 L 185.892 411.600 188.246 411.612 C 194.257 411.643,204.701 412.400,207.872 413.034 C 211.238 413.708,224.625 390.056,228.548 376.502 L 229.156 374.404 227.281 375.402 C 224.233 377.024,221.183 376.824,216.637 374.703 C 209.457 371.354,205.690 373.192,204.936 380.412 C 204.420 385.350,200.447 383.234,200.407 378.000 C 200.342 369.579,209.563 364.744,217.951 368.800 C 222.068 370.791,223.836 370.893,225.682 369.243 C 227.079 367.995,227.113 367.773,226.757 362.101 L 226.600 359.602 224.400 359.593 C 219.939 359.576,207.653 358.775,202.800 358.186 C 188.073 356.397,167.628 352.228,166.330 350.749 C 165.722 350.056,162.871 348.800,161.906 348.800 C 161.669 348.800,161.622 349.397,161.787 350.300 M85.200 355.344 C 85.200 358.256,83.811 358.861,81.382 357.007 C 78.447 354.766,75.157 355.686,75.212 358.733 C 75.222 359.279,75.304 359.255,75.662 358.600 C 76.836 356.454,78.880 356.205,80.600 358.000 C 82.763 360.258,86.000 359.193,86.000 356.224 C 86.000 355.467,85.820 354.736,85.600 354.600 C 85.374 354.461,85.200 354.785,85.200 355.344 M231.400 360.000 C 231.798 360.440,232.186 360.800,232.262 360.800 C 232.338 360.800,232.400 360.440,232.400 360.000 C 232.400 359.447,232.133 359.200,231.538 359.200 C 230.701 359.200,230.697 359.224,231.400 360.000 M110.046 368.232 C 109.517 368.905,109.212 369.849,109.232 370.754 L 109.263 372.200 109.684 371.000 C 110.644 368.260,112.368 367.604,113.394 369.588 C 115.072 372.834,118.046 373.418,119.415 370.771 C 120.266 369.125,120.135 368.937,118.995 370.168 C 117.529 371.750,116.178 371.452,114.600 369.200 C 113.003 366.920,111.354 366.569,110.046 368.232 M128.000 370.800 C 127.541 371.097,127.689 371.189,128.630 371.194 C 130.375 371.203,131.798 372.779,131.415 374.280 C 130.124 379.340,132.420 381.749,136.061 379.156 C 137.554 378.093,137.331 377.822,135.561 378.549 C 132.986 379.608,131.659 378.446,132.404 375.785 C 133.424 372.143,130.697 369.057,128.000 370.800 M158.427 371.700 C 158.374 373.845,156.760 374.763,154.453 373.958 C 151.009 372.758,149.084 376.365,151.628 379.249 C 152.348 380.065,152.425 380.086,152.169 379.400 C 150.894 375.981,151.725 374.515,154.514 375.261 C 157.348 376.020,159.978 373.761,158.890 371.503 C 158.461 370.614,158.454 370.617,158.427 371.700 M106.800 392.393 C 105.820 392.643,105.825 392.653,107.052 392.904 C 109.486 393.403,110.088 394.880,109.142 398.035 C 108.296 400.860,110.846 402.824,113.545 401.428 C 115.131 400.608,115.682 399.762,114.363 400.174 C 110.781 401.292,109.687 400.499,110.605 397.450 C 111.604 394.131,109.733 391.646,106.800 392.393 M19.012 396.711 C 21.276 400.987,26.844 409.732,27.601 410.201 C 27.823 410.338,29.489 409.385,31.303 408.083 C 33.116 406.781,35.635 405.035,36.900 404.201 C 38.165 403.368,39.200 402.564,39.200 402.413 C 39.200 401.555,25.341 395.128,19.678 393.360 L 16.756 392.448 19.012 396.711 M149.455 394.255 C 148.648 395.061,148.404 395.696,148.418 396.955 L 148.435 398.600 149.003 397.005 C 149.936 394.385,151.156 393.806,152.281 395.449 C 154.510 398.700,156.755 399.400,158.371 397.346 C 159.475 395.943,159.429 395.254,158.300 396.271 C 156.341 398.034,156.174 397.968,152.811 394.100 C 151.781 392.915,150.746 392.963,149.455 394.255 M134.907 399.960 C 135.589 401.765,134.531 403.074,132.108 403.423 C 128.781 403.902,127.673 406.194,129.811 408.175 C 131.546 409.783,132.775 409.825,131.223 408.223 C 129.304 406.243,129.618 405.187,132.307 404.584 C 135.695 403.824,137.213 401.270,135.371 399.429 C 134.487 398.544,134.408 398.636,134.907 399.960 M41.692 401.122 C 39.629 402.441,39.629 402.448,41.573 403.734 L 43.146 404.775 43.421 402.569 C 43.764 399.825,43.746 399.810,41.692 401.122 M205.600 415.221 C 204.830 415.407,201.633 415.782,198.496 416.054 C 193.047 416.526,191.503 417.179,195.800 417.195 C 196.900 417.199,199.392 417.397,201.337 417.636 C 205.117 418.100,206.027 417.771,207.251 415.500 C 207.664 414.734,207.634 414.729,205.600 415.221 M197.400 421.427 C 200.879 421.900,201.476 421.895,201.986 421.386 C 202.500 420.871,202.012 420.805,197.986 420.841 L 193.400 420.882 197.400 421.427 " stroke="none" fill="#8a9eff" fill-rule="evenodd"></path><path id="path3" d="M249.388 121.800 C 249.388 135.000,249.438 140.342,249.500 133.671 C 249.561 127.001,249.561 116.201,249.500 109.671 C 249.438 103.142,249.388 108.600,249.388 121.800 M294.581 107.300 L 293.000 109.000 294.700 107.419 C 296.281 105.948,296.584 105.600,296.281 105.600 C 296.216 105.600,295.451 106.365,294.581 107.300 M265.100 145.496 C 266.475 145.574,268.725 145.574,270.100 145.496 C 271.475 145.418,270.350 145.354,267.600 145.354 C 264.850 145.354,263.725 145.418,265.100 145.496 M239.067 145.867 C 238.920 146.013,238.803 146.328,238.806 146.567 C 238.810 146.848,238.916 146.836,239.110 146.533 C 239.273 146.275,240.035 145.989,240.803 145.897 L 242.200 145.728 240.767 145.664 C 239.978 145.629,239.213 145.720,239.067 145.867 M288.893 153.600 C 288.893 154.370,288.975 154.685,289.076 154.300 C 289.176 153.915,289.176 153.285,289.076 152.900 C 288.975 152.515,288.893 152.830,288.893 153.600 M237.293 166.800 C 237.293 167.570,237.375 167.885,237.476 167.500 C 237.576 167.115,237.576 166.485,237.476 166.100 C 237.375 165.715,237.293 166.030,237.293 166.800 M251.905 166.283 C 252.402 166.379,253.122 166.375,253.505 166.275 C 253.887 166.175,253.480 166.096,252.600 166.101 C 251.720 166.105,251.407 166.187,251.905 166.283 M262.700 166.282 C 263.195 166.378,264.005 166.378,264.500 166.282 C 264.995 166.187,264.590 166.109,263.600 166.109 C 262.610 166.109,262.205 166.187,262.700 166.282 M274.700 166.282 C 275.195 166.378,276.005 166.378,276.500 166.282 C 276.995 166.187,276.590 166.109,275.600 166.109 C 274.610 166.109,274.205 166.187,274.700 166.282 M294.493 168.400 C 294.493 169.170,294.575 169.485,294.676 169.100 C 294.776 168.715,294.776 168.085,294.676 167.700 C 294.575 167.315,294.493 167.630,294.493 168.400 M236.893 172.000 C 236.893 172.770,236.975 173.085,237.076 172.700 C 237.176 172.315,237.176 171.685,237.076 171.300 C 236.975 170.915,236.893 171.230,236.893 172.000 M294.893 174.800 C 294.893 175.570,294.975 175.885,295.076 175.500 C 295.176 175.115,295.176 174.485,295.076 174.100 C 294.975 173.715,294.893 174.030,294.893 174.800 M295.293 181.200 C 295.293 181.970,295.375 182.285,295.476 181.900 C 295.576 181.515,295.576 180.885,295.476 180.500 C 295.375 180.115,295.293 180.430,295.293 181.200 M295.693 187.600 C 295.693 188.370,295.775 188.685,295.876 188.300 C 295.976 187.915,295.976 187.285,295.876 186.900 C 295.775 186.515,295.693 186.830,295.693 187.600 M243.700 201.876 C 244.085 201.976,244.715 201.976,245.100 201.876 C 245.485 201.775,245.170 201.693,244.400 201.693 C 243.630 201.693,243.315 201.775,243.700 201.876 " stroke="none" fill="#7aa8f8" fill-rule="evenodd"></path><path id="path4" d="M278.764 45.712 C 276.255 47.403,276.270 49.842,278.798 51.335 C 282.890 53.752,288.668 51.033,287.373 47.300 C 286.532 44.875,281.409 43.930,278.764 45.712 M256.133 46.039 C 254.715 46.449,252.800 48.482,252.800 49.577 C 252.800 53.367,261.318 54.716,263.188 51.222 C 265.009 47.821,260.760 44.699,256.133 46.039 M272.085 58.100 C 271.478 58.834,271.127 61.315,271.541 61.941 C 272.019 62.666,273.259 62.002,274.388 60.417 L 275.232 59.232 274.416 58.416 C 273.484 57.484,272.683 57.376,272.085 58.100 M273.929 62.849 C 272.838 63.924,272.574 64.414,272.909 64.749 C 274.150 65.990,275.720 64.777,275.526 62.728 L 275.400 61.400 273.929 62.849 M296.137 185.400 C 296.139 187.160,296.209 187.830,296.293 186.889 C 296.378 185.949,296.377 184.509,296.291 183.689 C 296.205 182.870,296.136 183.640,296.137 185.400 M340.093 184.000 C 340.093 184.770,340.175 185.085,340.276 184.700 C 340.376 184.315,340.376 183.685,340.276 183.300 C 340.175 182.915,340.093 183.230,340.093 184.000 M234.100 201.476 C 234.485 201.576,235.115 201.576,235.500 201.476 C 235.885 201.375,235.570 201.293,234.800 201.293 C 234.030 201.293,233.715 201.375,234.100 201.476 M127.293 257.200 C 127.293 257.970,127.375 258.285,127.476 257.900 C 127.576 257.515,127.576 256.885,127.476 256.500 C 127.375 256.115,127.293 256.430,127.293 257.200 M128.501 259.400 C 128.505 260.280,128.587 260.593,128.683 260.095 C 128.779 259.598,128.775 258.878,128.675 258.495 C 128.575 258.113,128.496 258.520,128.501 259.400 M99.328 393.200 C 99.328 394.630,99.401 395.215,99.489 394.500 C 99.578 393.785,99.578 392.615,99.489 391.900 C 99.401 391.185,99.328 391.770,99.328 393.200 M99.328 398.400 C 99.328 399.830,99.401 400.415,99.489 399.700 C 99.578 398.985,99.578 397.815,99.489 397.100 C 99.401 396.385,99.328 396.970,99.328 398.400 M150.500 412.276 C 150.885 412.376,151.515 412.376,151.900 412.276 C 152.285 412.175,151.970 412.093,151.200 412.093 C 150.430 412.093,150.115 412.175,150.500 412.276 " stroke="none" fill="#de989a" fill-rule="evenodd"></path><path id="path5" d="M176.300 14.689 C 177.015 14.778,178.185 14.778,178.900 14.689 C 179.615 14.601,179.030 14.528,177.600 14.528 C 176.170 14.528,175.585 14.601,176.300 14.689 M208.433 14.952 C 208.892 15.370,222.481 15.655,222.226 15.242 C 222.044 14.947,219.670 14.800,215.110 14.800 C 211.346 14.800,208.342 14.868,208.433 14.952 M163.700 15.900 C 170.465 15.961,181.535 15.961,188.300 15.900 C 195.065 15.838,189.530 15.788,176.000 15.788 C 162.470 15.788,156.935 15.838,163.700 15.900 M169.700 23.500 C 175.365 23.562,184.635 23.562,190.300 23.500 C 195.965 23.437,191.330 23.386,180.000 23.386 C 168.670 23.386,164.035 23.437,169.700 23.500 M212.200 24.000 C 208.577 24.222,208.848 24.252,215.076 24.323 C 219.315 24.370,222.048 24.247,222.200 24.000 C 222.465 23.571,219.197 23.571,212.200 24.000 M164.476 24.699 C 167.268 24.767,171.948 24.768,174.876 24.699 C 177.804 24.631,175.520 24.575,169.800 24.574 C 164.080 24.574,161.684 24.630,164.476 24.699 M179.280 32.298 C 181.194 32.371,184.434 32.371,186.480 32.298 C 188.526 32.226,186.960 32.166,183.000 32.165 C 179.040 32.165,177.366 32.224,179.280 32.298 M198.122 32.299 C 200.499 32.370,204.279 32.369,206.522 32.298 C 208.765 32.227,206.820 32.169,202.200 32.169 C 197.580 32.170,195.745 32.228,198.122 32.299 M214.600 32.800 L 210.200 33.042 214.476 33.121 C 216.985 33.167,218.855 33.035,219.000 32.800 C 219.136 32.580,219.192 32.436,219.124 32.479 C 219.056 32.523,217.020 32.667,214.600 32.800 M172.307 33.090 C 173.026 33.179,174.106 33.177,174.707 33.086 C 175.308 32.995,174.720 32.922,173.400 32.924 C 172.080 32.926,171.588 33.001,172.307 33.090 M202.509 45.200 C 202.509 46.190,202.587 46.595,202.682 46.100 C 202.778 45.605,202.778 44.795,202.682 44.300 C 202.587 43.805,202.509 44.210,202.509 45.200 M202.114 52.200 C 202.117 53.300,202.195 53.703,202.287 53.095 C 202.379 52.486,202.377 51.586,202.282 51.095 C 202.187 50.603,202.111 51.100,202.114 52.200 M195.583 52.500 C 196.564 53.545,197.419 54.400,197.483 54.400 C 197.784 54.400,197.466 54.041,195.700 52.383 L 193.800 50.600 195.583 52.500 M233.293 148.800 C 233.293 149.570,233.375 149.885,233.476 149.500 C 233.576 149.115,233.576 148.485,233.476 148.100 C 233.375 147.715,233.293 148.030,233.293 148.800 M187.309 180.400 C 187.309 181.390,187.387 181.795,187.482 181.300 C 187.578 180.805,187.578 179.995,187.482 179.500 C 187.387 179.005,187.309 179.410,187.309 180.400 M118.905 312.687 C 119.514 312.779,120.414 312.777,120.905 312.682 C 121.397 312.587,120.900 312.511,119.800 312.514 C 118.700 312.517,118.297 312.595,118.905 312.687 M85.785 315.700 L 83.800 317.800 85.900 315.815 C 87.055 314.723,88.000 313.778,88.000 313.715 C 88.000 313.417,87.629 313.749,85.785 315.700 M170.700 335.082 C 171.195 335.178,172.005 335.178,172.500 335.082 C 172.995 334.987,172.590 334.909,171.600 334.909 C 170.610 334.909,170.205 334.987,170.700 335.082 M162.137 360.200 C 162.139 361.960,162.209 362.630,162.293 361.689 C 162.378 360.749,162.377 359.309,162.291 358.489 C 162.205 357.670,162.136 358.440,162.137 360.200 M66.093 363.200 C 66.093 363.970,66.175 364.285,66.276 363.900 C 66.376 363.515,66.376 362.885,66.276 362.500 C 66.175 362.115,66.093 362.430,66.093 363.200 M162.131 367.800 C 162.133 369.340,162.205 369.921,162.292 369.091 C 162.379 368.261,162.377 367.001,162.289 366.291 C 162.200 365.581,162.129 366.260,162.131 367.800 M65.693 367.200 C 65.693 367.970,65.775 368.285,65.876 367.900 C 65.976 367.515,65.976 366.885,65.876 366.500 C 65.775 366.115,65.693 366.430,65.693 367.200 M108.800 371.200 C 108.800 371.860,108.949 372.400,109.131 372.400 C 109.313 372.400,109.382 371.860,109.285 371.200 C 109.188 370.540,109.040 370.000,108.955 370.000 C 108.870 370.000,108.800 370.540,108.800 371.200 M158.000 371.600 C 158.000 372.260,158.070 372.800,158.155 372.800 C 158.240 372.800,158.388 372.260,158.485 371.600 C 158.582 370.940,158.513 370.400,158.331 370.400 C 158.149 370.400,158.000 370.940,158.000 371.600 M200.514 377.800 C 200.517 378.900,200.595 379.303,200.687 378.695 C 200.779 378.086,200.777 377.186,200.682 376.695 C 200.587 376.203,200.511 376.700,200.514 377.800 M99.693 386.800 C 99.693 387.570,99.775 387.885,99.876 387.500 C 99.976 387.115,99.976 386.485,99.876 386.100 C 99.775 385.715,99.693 386.030,99.693 386.800 M148.000 397.376 C 148.000 397.913,148.147 398.444,148.328 398.555 C 148.508 398.667,148.577 398.227,148.482 397.579 C 148.272 396.149,148.000 396.035,148.000 397.376 M162.000 403.967 C 162.000 409.326,161.874 411.184,161.500 411.335 C 161.201 411.456,161.282 411.550,161.700 411.568 C 162.343 411.597,162.400 410.993,162.400 404.200 C 162.400 400.130,162.310 396.800,162.200 396.800 C 162.090 396.800,162.000 400.025,162.000 403.967 M147.905 412.283 C 148.402 412.379,149.122 412.375,149.505 412.275 C 149.887 412.175,149.480 412.096,148.600 412.101 C 147.720 412.105,147.407 412.187,147.905 412.283 M139.700 441.087 C 140.305 441.178,141.295 441.178,141.900 441.087 C 142.505 440.995,142.010 440.920,140.800 440.920 C 139.590 440.920,139.095 440.995,139.700 441.087 " stroke="none" fill="#f78b51" fill-rule="evenodd"></path><path id="path6" d="M295.105 17.483 C 295.602 17.579,296.322 17.575,296.705 17.475 C 297.087 17.375,296.680 17.296,295.800 17.301 C 294.920 17.305,294.607 17.387,295.105 17.483 M282.000 20.447 C 277.741 23.251,269.056 24.330,264.421 22.632 L 262.642 21.980 260.221 24.332 C 255.130 29.280,252.371 30.636,251.096 28.816 C 250.613 28.127,250.490 28.767,250.072 34.116 C 248.494 54.313,250.754 65.484,257.886 72.747 C 259.650 74.544,260.999 75.609,261.342 75.478 C 261.651 75.359,263.500 75.830,265.452 76.524 C 270.486 78.315,276.912 78.372,281.936 76.669 C 285.787 75.364,286.402 75.481,283.938 77.047 C 279.161 80.083,271.047 80.437,265.407 77.855 L 263.355 76.915 262.426 82.217 C 261.329 88.485,261.487 90.845,263.238 94.351 C 267.435 102.750,278.169 104.735,285.285 98.429 C 288.661 95.437,289.276 93.601,292.322 77.434 L 295.025 63.082 296.924 62.600 C 300.982 61.570,303.552 56.732,302.635 51.848 C 302.128 49.144,298.366 46.084,296.085 46.520 C 292.634 47.180,287.078 35.177,284.781 22.100 C 284.501 20.505,284.166 19.214,284.036 19.231 C 283.906 19.248,282.990 19.795,282.000 20.447 M263.541 30.569 C 264.115 31.144,263.940 31.199,261.586 31.194 C 258.516 31.187,257.281 30.667,258.810 30.025 C 260.119 29.476,262.750 29.778,263.541 30.569 M310.109 34.400 C 310.109 35.390,310.187 35.795,310.282 35.300 C 310.378 34.805,310.378 33.995,310.282 33.500 C 310.187 33.005,310.109 33.410,310.109 34.400 M283.626 34.414 C 284.575 34.922,284.697 36.200,283.763 35.841 C 283.412 35.707,282.647 35.492,282.063 35.365 C 280.229 34.965,279.942 34.817,280.198 34.403 C 280.523 33.878,282.637 33.885,283.626 34.414 M267.116 46.400 C 266.791 55.666,266.872 56.800,267.857 56.800 C 268.391 56.800,268.412 56.903,267.982 57.422 C 265.820 60.027,265.166 49.653,266.683 36.800 L 266.942 34.600 267.180 36.200 C 267.311 37.080,267.282 41.670,267.116 46.400 M258.943 40.081 C 259.179 40.455,259.234 40.899,259.067 41.067 C 258.640 41.493,257.428 40.656,257.264 39.821 C 257.088 38.928,258.339 39.122,258.943 40.081 M279.977 41.557 C 280.583 42.689,279.969 42.910,278.930 41.934 C 277.742 40.818,277.649 39.784,278.791 40.395 C 279.226 40.628,279.759 41.151,279.977 41.557 M309.693 41.200 C 309.693 41.970,309.775 42.285,309.876 41.900 C 309.976 41.515,309.976 40.885,309.876 40.500 C 309.775 40.115,309.693 40.430,309.693 41.200 M285.596 45.501 C 288.433 46.922,288.232 49.966,285.200 51.526 C 281.318 53.523,275.880 50.977,277.032 47.702 C 277.949 45.093,282.466 43.932,285.596 45.501 M260.698 46.215 C 263.453 47.366,264.319 49.108,263.188 51.222 C 261.761 53.888,255.705 53.986,253.653 51.376 C 251.068 48.090,256.195 44.334,260.698 46.215 M298.000 52.005 C 298.000 52.448,298.206 53.141,298.459 53.545 C 299.085 54.548,298.580 56.289,297.569 56.610 C 296.456 56.963,296.029 56.460,296.901 55.823 C 297.761 55.194,297.781 54.821,296.987 54.240 C 296.483 53.871,296.454 53.564,296.826 52.496 C 297.331 51.049,298.000 50.769,298.000 52.005 M308.893 53.600 C 308.893 54.370,308.975 54.685,309.076 54.300 C 309.176 53.915,309.176 53.285,309.076 52.900 C 308.975 52.515,308.893 52.830,308.893 53.600 M184.147 56.900 C 183.776 57.615,183.148 59.100,182.751 60.200 L 182.029 62.200 182.014 60.333 C 181.966 54.036,180.523 56.440,174.224 73.318 C 170.191 84.122,169.614 86.000,170.326 86.000 C 170.576 86.000,170.342 87.201,169.762 88.900 C 159.257 119.653,156.123 143.673,162.040 148.090 C 165.207 150.455,189.248 149.180,209.506 145.573 L 216.617 144.307 214.144 128.322 C 212.783 119.530,211.586 112.253,211.484 112.150 C 211.381 112.048,205.111 114.297,197.549 117.149 C 189.988 120.002,183.772 122.305,183.735 122.268 C 183.699 122.230,185.292 115.303,187.276 106.874 C 190.454 93.370,190.810 91.492,190.271 91.074 C 189.744 90.666,190.172 89.836,193.352 85.097 C 200.772 74.040,201.203 71.187,194.541 77.224 C 190.667 80.735,190.695 80.775,192.585 74.441 C 198.203 55.607,197.263 51.394,190.770 66.309 C 189.403 69.449,188.235 71.968,188.174 71.907 C 188.113 71.846,188.676 69.295,189.426 66.238 C 192.654 53.084,190.942 51.883,186.507 64.191 C 185.554 66.836,184.857 68.550,184.958 68.000 C 186.848 57.754,186.459 52.439,184.147 56.900 M274.325 58.325 C 274.724 58.724,275.258 58.981,275.513 58.896 C 276.081 58.706,275.707 63.926,275.096 64.700 C 274.610 65.316,273.508 65.348,272.923 64.763 C 272.683 64.523,271.522 64.294,270.343 64.254 C 268.119 64.179,266.000 63.164,266.000 62.174 C 266.000 61.738,266.254 61.747,267.387 62.220 C 270.337 63.453,271.446 63.074,271.446 60.834 C 271.446 57.894,272.754 56.754,274.325 58.325 M308.493 60.000 C 308.493 60.770,308.575 61.085,308.676 60.700 C 308.776 60.315,308.776 59.685,308.676 59.300 C 308.575 58.915,308.493 59.230,308.493 60.000 M351.538 94.198 C 343.946 99.360,342.746 101.040,345.297 102.936 C 346.646 103.939,347.636 103.556,352.494 100.156 L 355.589 97.990 358.258 101.998 C 359.726 104.203,360.853 106.056,360.763 106.116 C 360.673 106.176,358.876 107.525,356.770 109.113 C 351.964 112.735,351.746 112.738,349.184 109.216 C 343.501 101.402,340.145 101.814,344.159 109.833 C 348.726 118.955,350.966 119.432,360.000 113.207 C 368.904 107.071,368.705 107.935,363.155 99.528 C 356.932 90.101,357.309 90.274,351.538 94.198 M357.115 96.378 C 357.476 96.568,357.325 96.812,356.610 97.194 C 355.616 97.727,354.460 97.042,354.413 95.892 C 354.400 95.575,356.203 95.899,357.115 96.378 M362.784 106.054 C 362.305 107.726,362.148 107.825,361.601 106.801 C 361.217 106.083,361.262 105.839,361.868 105.380 C 362.981 104.537,363.178 104.682,362.784 106.054 M228.600 140.209 C 227.720 140.509,224.750 141.486,222.000 142.380 C 216.426 144.192,217.841 144.174,225.386 142.336 C 229.721 141.280,230.775 140.805,230.794 139.900 C 230.802 139.512,230.532 139.550,228.600 140.209 M294.159 158.700 C 296.888 172.160,296.678 196.079,293.778 202.191 C 291.924 206.097,291.819 206.109,274.400 204.427 C 269.890 203.991,261.430 203.267,255.600 202.818 C 245.815 202.063,241.020 201.739,225.800 200.803 C 222.692 200.612,219.310 200.170,218.200 199.810 C 215.239 198.849,205.691 196.515,203.465 196.208 C 200.593 195.811,201.078 196.985,204.617 199.000 C 206.163 199.880,207.912 200.982,208.503 201.449 L 209.579 202.299 207.290 202.527 C 206.030 202.653,203.200 202.773,201.000 202.795 C 183.622 202.966,180.760 206.065,197.100 207.017 C 199.795 207.174,202.000 207.460,202.000 207.651 C 202.000 207.925,197.207 208.242,195.918 208.053 C 195.257 207.957,188.889 208.891,187.700 209.259 C 184.613 210.216,187.008 211.300,192.700 211.524 C 197.939 211.730,198.316 212.021,194.300 212.760 C 186.676 214.162,186.283 216.205,193.600 216.400 C 196.307 216.473,196.452 216.515,195.087 216.837 C 186.434 218.874,190.622 219.762,211.000 220.209 C 221.523 220.440,221.609 220.452,228.200 222.471 C 232.381 223.751,238.972 225.513,249.600 228.193 C 279.729 235.787,301.390 238.165,308.314 234.639 C 324.105 226.596,330.777 203.117,326.633 170.174 L 325.473 160.948 310.436 159.263 C 292.498 157.252,293.876 157.300,294.159 158.700 M2.475 186.300 C 1.099 197.685,-0.020 207.315,-0.013 207.700 C -0.001 208.360,1.677 208.400,29.506 208.400 L 59.012 208.400 67.006 216.674 L 75.000 224.948 75.400 217.174 L 75.800 209.400 89.300 209.295 L 102.800 209.189 102.800 188.795 C 102.800 172.747,102.693 168.399,102.300 168.397 C 102.025 168.395,81.640 167.767,57.000 167.000 C 32.360 166.233,10.575 165.604,8.588 165.602 L 4.977 165.600 2.475 186.300 M78.365 181.673 C 89.889 181.737,90.635 181.777,84.800 182.018 C 75.557 182.398,21.324 182.464,16.761 182.100 C 11.567 181.686,34.444 181.272,52.165 181.460 C 59.406 181.537,71.196 181.633,78.365 181.673 M343.800 185.600 C 345.771 187.580,347.473 189.200,347.583 189.200 C 347.693 189.200,346.171 187.580,344.200 185.600 C 342.229 183.620,340.527 182.000,340.417 182.000 C 340.307 182.000,341.829 183.620,343.800 185.600 M337.200 185.325 C 337.200 185.394,337.785 185.979,338.500 186.625 L 339.800 187.800 338.625 186.500 C 337.530 185.288,337.200 185.016,337.200 185.325 M78.365 189.273 C 89.889 189.337,90.635 189.377,84.800 189.618 C 75.557 189.998,21.324 190.064,16.761 189.700 C 11.567 189.286,34.444 188.872,52.165 189.060 C 59.406 189.137,71.196 189.233,78.365 189.273 M344.200 192.800 C 345.283 193.900,346.260 194.800,346.370 194.800 C 346.480 194.800,345.683 193.900,344.600 192.800 C 343.517 191.700,342.540 190.800,342.430 190.800 C 342.320 190.800,343.117 191.700,344.200 192.800 M354.530 197.065 C 355.237 197.902,355.237 197.936,354.530 198.118 C 353.905 198.280,353.897 198.314,354.476 198.354 C 355.556 198.428,355.656 197.770,354.691 196.953 L 353.800 196.200 354.530 197.065 M85.200 197.214 C 81.060 197.680,42.800 197.667,42.800 197.200 C 42.800 196.937,50.526 196.821,65.300 196.861 C 77.675 196.895,86.630 197.054,85.200 197.214 M350.400 198.925 C 350.400 198.994,350.985 199.579,351.700 200.225 L 353.000 201.400 351.825 200.100 C 350.730 198.888,350.400 198.616,350.400 198.925 M201.505 211.875 C 201.122 211.975,200.402 211.979,199.905 211.883 C 199.407 211.787,199.720 211.705,200.600 211.701 C 201.480 211.696,201.887 211.775,201.505 211.875 M111.414 230.507 C 111.305 230.998,110.747 233.560,110.175 236.200 C 108.283 244.918,105.955 250.640,102.565 254.900 C 100.476 257.525,100.337 257.574,98.928 256.165 L 97.893 255.130 98.085 256.134 C 98.259 257.044,98.063 257.216,95.979 257.976 C 87.472 261.077,89.561 274.787,98.400 273.863 L 100.650 273.628 103.347 287.914 C 106.198 303.016,106.761 304.893,109.320 307.828 C 114.536 313.811,125.127 313.819,130.242 307.843 C 133.662 303.847,134.548 299.834,133.409 293.505 L 132.728 289.722 130.264 290.758 C 125.380 292.810,116.871 292.132,112.663 289.354 C 110.429 287.880,111.105 287.776,114.668 289.046 C 120.665 291.183,131.955 290.325,132.327 287.704 C 132.397 287.212,133.268 286.143,134.261 285.328 C 141.511 279.388,144.715 267.156,143.620 249.600 C 143.038 240.264,143.057 240.344,141.157 239.459 C 140.283 239.052,138.074 237.305,136.250 235.578 L 132.933 232.438 130.966 233.064 C 125.924 234.669,118.217 233.659,113.506 230.774 L 111.612 229.615 111.414 230.507 M137.083 240.642 C 137.236 241.108,132.461 241.795,132.035 241.368 C 131.906 241.240,132.161 240.871,132.601 240.550 C 133.517 239.879,136.854 239.948,137.083 240.642 M116.167 244.243 C 117.303 244.678,116.839 245.064,114.569 245.572 C 112.238 246.094,111.859 246.057,112.322 245.354 C 113.031 244.277,114.871 243.745,116.167 244.243 M128.464 255.616 C 128.869 263.976,128.855 265.577,128.366 266.597 C 127.742 267.899,126.400 268.468,126.400 267.429 C 126.400 267.083,126.625 266.845,126.900 266.900 C 127.293 266.979,127.369 264.648,127.255 256.000 C 127.067 241.741,127.780 241.515,128.464 255.616 M136.720 248.880 C 137.229 249.389,137.385 250.800,136.931 250.800 C 136.429 250.800,135.200 249.478,135.200 248.938 C 135.200 248.270,136.077 248.237,136.720 248.880 M120.440 251.240 C 121.040 251.840,121.157 252.203,120.849 252.511 C 120.348 253.012,118.800 251.824,118.800 250.938 C 118.800 250.154,119.479 250.279,120.440 251.240 M96.800 265.500 C 96.800 265.831,96.603 265.929,96.300 265.747 C 95.960 265.543,95.976 265.663,96.349 266.123 C 96.707 266.564,96.742 266.800,96.449 266.800 C 95.782 266.800,95.905 267.989,96.600 268.255 C 97.432 268.575,97.353 269.200,96.480 269.200 C 95.061 269.200,94.049 266.512,95.200 265.800 C 95.420 265.664,95.606 265.068,95.613 264.476 C 95.625 263.444,95.649 263.431,96.213 264.176 C 96.536 264.604,96.800 265.199,96.800 265.500 M203.409 267.185 C 203.049 267.767,203.802 272.444,205.181 278.200 C 205.813 280.840,206.286 283.046,206.230 283.102 C 206.175 283.158,205.351 281.358,204.399 279.102 C 196.808 261.112,196.128 266.805,203.084 290.100 C 203.447 291.315,202.521 290.869,200.123 288.673 C 192.866 282.030,193.533 285.064,202.180 298.038 C 204.710 301.835,206.840 305.119,206.912 305.336 C 207.077 305.831,213.560 304.133,214.421 303.369 C 214.763 303.066,215.663 302.836,216.421 302.857 C 217.547 302.889,220.817 302.112,226.058 300.567 C 226.649 300.392,228.318 303.815,227.863 304.270 C 227.790 304.344,223.425 305.679,218.165 307.236 C 212.904 308.794,208.453 310.209,208.273 310.381 C 208.093 310.554,209.098 315.578,210.508 321.547 C 211.917 327.516,212.948 332.400,212.799 332.400 C 212.651 332.400,206.155 329.987,198.365 327.038 C 190.574 324.090,184.157 321.795,184.105 321.938 C 184.053 322.082,182.924 329.220,181.597 337.800 C 180.269 346.380,179.113 353.599,179.027 353.841 C 178.875 354.268,179.654 354.439,190.820 356.431 C 203.785 358.743,226.526 360.389,227.265 359.069 C 227.674 358.338,229.795 358.144,230.200 358.800 C 230.616 359.473,232.925 359.243,234.327 358.388 C 240.388 354.693,238.008 333.811,227.932 302.287 C 226.216 296.917,225.810 296.006,225.215 296.195 C 224.449 296.438,224.638 296.853,221.443 287.923 C 217.633 277.269,214.280 269.021,213.588 268.592 C 212.915 268.176,212.339 270.497,212.597 272.592 C 212.829 274.487,212.775 274.410,211.646 271.239 C 209.062 263.980,207.512 265.697,208.851 274.336 C 209.248 276.901,209.570 279.180,209.566 279.400 C 209.563 279.620,208.873 277.910,208.035 275.600 C 205.548 268.753,204.085 266.091,203.409 267.185 M123.814 271.871 C 124.836 272.005,125.996 271.845,126.976 271.436 C 128.711 270.711,129.185 270.854,128.357 271.852 C 125.581 275.200,118.808 273.044,118.801 268.811 C 118.800 267.905,118.943 267.984,120.500 269.741 C 121.866 271.283,122.517 271.702,123.814 271.871 M7.905 341.068 C 4.567 341.247,3.171 342.191,4.461 343.398 C 5.791 344.643,28.467 345.907,29.789 344.810 C 33.476 341.749,24.338 340.186,7.905 341.068 M259.200 341.137 C 256.930 341.469,256.455 343.490,258.518 344.041 C 261.989 344.970,279.698 345.765,282.073 345.099 C 283.899 344.587,283.924 342.169,282.111 341.387 C 281.211 340.999,261.612 340.785,259.200 341.137 M166.000 350.399 C 166.000 351.059,167.179 351.538,171.336 352.568 C 177.470 354.088,177.423 353.664,171.243 351.733 C 168.359 350.833,166.000 350.232,166.000 350.399 M85.800 370.292 C 77.220 371.281,70.170 372.115,70.134 372.145 C 69.967 372.283,68.391 385.558,67.966 390.400 C 65.665 416.619,73.727 438.739,88.000 445.364 C 92.224 447.325,107.825 446.377,124.400 443.152 C 134.967 441.097,159.826 434.981,169.010 432.179 C 171.645 431.375,174.610 430.472,175.600 430.173 C 176.797 429.812,181.624 429.493,190.000 429.224 C 202.205 428.831,204.400 428.645,204.400 428.002 C 204.400 427.408,203.129 426.658,201.278 426.159 L 199.400 425.654 202.200 425.587 C 211.690 425.360,205.572 421.677,194.800 421.132 C 194.030 421.093,196.663 420.953,200.651 420.820 C 207.625 420.588,209.200 420.289,209.200 419.194 C 209.200 418.496,200.724 417.236,195.800 417.202 C 191.524 417.172,193.036 416.526,198.496 416.051 C 212.077 414.868,213.018 412.959,200.400 412.189 C 198.310 412.061,195.610 411.895,194.400 411.819 C 193.190 411.744,190.781 411.663,189.046 411.641 L 185.892 411.600 187.032 410.700 C 187.659 410.205,189.437 409.080,190.983 408.200 C 194.056 406.450,194.858 405.200,192.908 405.200 C 190.645 405.200,174.029 409.587,172.922 410.477 C 172.659 410.688,169.779 411.017,166.522 411.206 C 154.666 411.897,135.809 413.342,121.800 414.632 C 115.860 415.179,109.610 415.737,107.911 415.872 L 104.823 416.117 103.256 414.550 C 99.198 410.492,98.296 398.701,100.428 377.600 C 100.862 373.310,101.315 369.485,101.435 369.100 C 101.555 368.715,101.597 368.421,101.527 368.447 C 101.457 368.473,94.380 369.303,85.800 370.292 " stroke="none" fill="#ffafa7" fill-rule="evenodd"></path><path id="path7" d="M247.600 96.403 C 247.050 96.589,245.565 97.030,244.300 97.382 L 242.000 98.022 242.000 121.011 C 242.000 133.655,242.144 144.000,242.320 144.000 C 242.496 144.000,242.858 145.058,243.126 146.351 C 243.646 148.872,245.097 150.800,246.473 150.800 C 247.333 150.800,249.195 149.111,249.209 148.318 C 249.454 133.922,249.303 96.008,249.000 96.032 C 248.780 96.049,248.150 96.216,247.600 96.403 M298.000 98.775 C 289.795 101.286,283.239 109.084,280.532 119.552 C 278.515 127.355,278.872 142.437,281.154 145.807 C 282.991 148.520,286.800 147.956,286.800 144.971 C 286.800 144.027,286.747 143.995,286.158 144.585 C 285.111 145.632,284.337 144.640,284.481 142.435 C 284.586 140.823,284.709 140.604,285.500 140.632 C 286.395 140.663,286.400 140.629,286.402 134.632 C 286.410 116.170,292.337 104.993,303.492 102.409 L 305.585 101.924 303.191 100.162 C 300.821 98.417,299.939 98.181,298.000 98.775 M261.749 145.500 L 250.898 145.613 250.715 147.815 C 250.181 154.259,242.008 153.964,242.001 147.500 C 242.000 146.212,239.583 145.021,239.161 146.100 C 239.079 146.310,234.872 201.002,234.934 201.048 C 234.970 201.075,237.970 201.300,241.600 201.548 C 255.845 202.524,264.720 203.241,277.101 204.418 C 291.862 205.821,291.477 205.868,293.342 202.428 C 295.828 197.842,296.096 192.524,294.837 172.800 C 293.763 155.976,294.047 157.345,291.582 157.108 C 288.922 156.852,289.037 157.119,288.862 150.774 C 288.778 147.708,288.550 145.200,288.355 145.200 C 288.160 145.200,288.000 145.574,288.000 146.031 C 288.000 146.488,287.474 147.388,286.831 148.031 C 284.540 150.322,280.000 149.117,280.000 146.218 L 280.000 145.200 276.300 145.293 C 274.265 145.345,267.717 145.437,261.749 145.500 M248.595 146.392 C 248.932 146.937,248.087 148.400,247.435 148.400 C 246.471 148.400,245.831 147.286,246.400 146.600 C 246.963 145.921,248.230 145.801,248.595 146.392 M255.058 165.325 C 255.623 165.890,254.662 166.200,252.385 166.186 C 249.906 166.172,249.337 165.950,249.811 165.182 C 250.118 164.686,254.539 164.806,255.058 165.325 M265.880 165.347 C 266.497 165.964,264.919 166.433,262.858 166.245 C 260.497 166.029,260.180 165.879,260.611 165.182 C 260.925 164.674,265.345 164.812,265.880 165.347 M277.880 165.347 C 278.497 165.964,276.919 166.433,274.858 166.245 C 272.497 166.029,272.180 165.879,272.611 165.182 C 272.925 164.674,277.345 164.812,277.880 165.347 M282.911 166.931 C 283.183 168.606,282.734 170.889,282.090 171.103 C 281.562 171.279,281.353 166.380,281.867 165.867 C 282.404 165.329,282.700 165.630,282.911 166.931 M247.987 169.724 C 247.976 172.340,247.921 172.530,247.387 171.824 C 246.802 171.050,246.553 167.180,247.056 166.678 C 247.688 166.046,247.999 167.064,247.987 169.724 M279.044 177.679 C 278.751 179.143,277.767 180.800,277.191 180.800 C 276.570 180.800,276.733 179.699,277.608 177.984 C 278.599 176.042,279.406 175.870,279.044 177.679 M250.011 179.300 C 250.872 181.198,250.991 182.000,250.409 182.000 C 249.833 182.000,248.849 180.343,248.556 178.879 C 248.179 176.994,249.083 177.255,250.011 179.300 M273.600 184.536 C 273.600 185.319,271.823 186.000,269.781 186.000 C 268.386 186.000,267.039 185.257,268.300 185.182 C 268.465 185.173,269.500 184.915,270.600 184.609 C 273.175 183.894,273.600 183.884,273.600 184.536 M260.100 184.821 C 260.925 185.050,261.600 185.409,261.600 185.619 C 261.600 186.138,258.808 186.101,257.260 185.561 C 254.480 184.592,256.954 183.947,260.100 184.821 M309.400 244.453 C 307.777 245.423,307.552 246.752,308.800 248.000 C 309.369 248.569,309.439 248.800,309.041 248.800 C 308.215 248.800,306.030 251.458,304.951 253.774 C 299.740 264.965,315.713 274.728,324.469 265.705 C 330.674 259.310,328.515 249.958,319.800 245.486 C 317.087 244.094,311.011 243.491,309.400 244.453 M317.507 249.810 C 324.497 251.885,325.547 260.689,319.206 264.059 C 312.474 267.638,304.918 258.391,309.241 251.864 C 309.987 250.738,310.382 249.730,310.231 249.337 C 309.920 248.527,314.104 248.799,317.507 249.810 M69.620 282.407 C 67.985 282.792,67.100 283.838,67.443 284.979 C 67.847 286.324,68.191 286.480,71.498 286.813 C 79.258 287.595,82.601 290.052,82.599 294.969 C 82.594 302.555,74.918 305.772,69.590 300.420 C 66.334 297.150,65.891 290.798,68.794 289.004 C 69.527 288.551,69.255 287.200,68.431 287.200 C 67.326 287.200,64.947 290.165,63.964 292.768 C 58.970 305.990,79.481 312.967,86.073 300.289 C 90.536 291.706,79.779 280.015,69.620 282.407 " stroke="none" fill="#7cabff" fill-rule="evenodd"></path><path id="path8" d="M132.384 0.687 C 132.375 1.079,131.241 10.670,129.863 22.000 L 127.357 42.600 156.593 42.703 L 185.830 42.805 193.690 50.597 C 199.631 56.486,201.598 58.219,201.748 57.694 C 201.857 57.312,202.070 53.985,202.222 50.300 L 202.497 43.600 215.784 43.600 L 229.070 43.600 229.335 29.500 C 229.480 21.745,229.599 12.672,229.599 9.337 L 229.600 3.275 225.900 3.040 C 223.865 2.910,203.840 2.268,181.400 1.613 C 158.960 0.958,138.755 0.321,136.500 0.198 C 132.755 -0.006,132.399 0.036,132.384 0.687 M222.115 15.166 C 222.788 15.816,161.922 16.295,149.700 15.736 C 146.565 15.593,144.000 15.326,144.000 15.142 C 144.000 14.497,221.446 14.520,222.115 15.166 M292.757 19.656 C 293.166 20.835,294.243 23.400,295.150 25.356 C 296.058 27.312,296.805 29.292,296.812 29.756 C 296.824 30.558,296.846 30.563,297.260 29.849 C 297.840 28.852,297.237 26.845,294.945 22.133 C 292.802 17.727,291.626 16.396,292.757 19.656 M205.884 23.465 C 214.950 23.611,222.291 23.852,222.199 24.002 C 221.709 24.794,144.000 24.739,144.000 23.947 C 144.000 23.356,181.086 23.068,205.884 23.465 M212.521 32.262 C 216.178 32.406,219.076 32.676,218.962 32.862 C 218.665 33.342,171.200 33.299,171.200 32.819 C 171.200 32.111,199.138 31.734,212.521 32.262 M266.493 39.200 C 266.493 39.970,266.575 40.285,266.676 39.900 C 266.776 39.515,266.776 38.885,266.676 38.500 C 266.575 38.115,266.493 38.430,266.493 39.200 M266.928 46.400 C 266.928 47.830,267.001 48.415,267.089 47.700 C 267.178 46.985,267.178 45.815,267.089 45.100 C 267.001 44.385,266.928 44.970,266.928 46.400 M266.128 46.800 C 266.128 48.230,266.201 48.815,266.289 48.100 C 266.378 47.385,266.378 46.215,266.289 45.500 C 266.201 44.785,266.128 45.370,266.128 46.800 M269.300 63.076 C 269.685 63.176,270.315 63.176,270.700 63.076 C 271.085 62.975,270.770 62.893,270.000 62.893 C 269.230 62.893,268.915 62.975,269.300 63.076 M272.100 78.291 C 272.925 78.378,274.275 78.378,275.100 78.291 C 275.925 78.205,275.250 78.134,273.600 78.134 C 271.950 78.134,271.275 78.205,272.100 78.291 M273.107 79.490 C 273.826 79.579,274.906 79.577,275.507 79.486 C 276.108 79.395,275.520 79.322,274.200 79.324 C 272.880 79.326,272.388 79.401,273.107 79.490 M308.000 101.725 C 308.000 101.794,308.585 102.379,309.300 103.025 L 310.600 104.200 309.425 102.900 C 308.330 101.688,308.000 101.416,308.000 101.725 M278.909 129.200 C 278.909 130.190,278.987 130.595,279.082 130.100 C 279.178 129.605,279.178 128.795,279.082 128.300 C 278.987 127.805,278.909 128.210,278.909 129.200 M286.493 130.800 C 286.493 131.570,286.575 131.885,286.676 131.500 C 286.776 131.115,286.776 130.485,286.676 130.100 C 286.575 129.715,286.493 130.030,286.493 130.800 M278.914 134.600 C 278.917 135.700,278.995 136.103,279.087 135.495 C 279.179 134.886,279.177 133.986,279.082 133.495 C 278.987 133.003,278.911 133.500,278.914 134.600 M286.501 138.200 C 286.505 139.080,286.587 139.393,286.683 138.895 C 286.779 138.398,286.775 137.678,286.675 137.295 C 286.575 136.913,286.496 137.320,286.501 138.200 M286.456 142.400 C 286.456 142.730,286.611 143.360,286.800 143.800 C 287.017 144.304,287.144 144.378,287.144 144.000 C 287.144 143.670,286.989 143.040,286.800 142.600 C 286.583 142.096,286.456 142.022,286.456 142.400 M255.500 145.495 C 256.655 145.576,258.545 145.576,259.700 145.495 C 260.855 145.414,259.910 145.348,257.600 145.348 C 255.290 145.348,254.345 145.414,255.500 145.495 M288.901 151.000 C 288.905 151.880,288.987 152.193,289.083 151.695 C 289.179 151.198,289.175 150.478,289.075 150.095 C 288.975 149.713,288.896 150.120,288.901 151.000 M233.293 151.200 C 233.293 151.970,233.375 152.285,233.476 151.900 C 233.576 151.515,233.576 150.885,233.476 150.500 C 233.375 150.115,233.293 150.430,233.293 151.200 M294.440 164.833 C 294.462 165.805,294.625 167.050,294.802 167.600 C 294.995 168.200,295.037 167.560,294.906 166.000 C 294.651 162.962,294.382 162.289,294.440 164.833 M251.300 165.076 C 251.685 165.176,252.315 165.176,252.700 165.076 C 253.085 164.975,252.770 164.893,252.000 164.893 C 251.230 164.893,250.915 164.975,251.300 165.076 M176.935 170.399 C 174.708 171.297,175.503 173.818,178.558 175.541 C 183.779 178.488,183.481 182.580,177.841 185.367 C 168.661 189.903,166.878 202.769,174.925 206.422 C 178.843 208.201,181.151 206.425,178.364 203.775 C 174.057 199.680,173.920 195.270,178.009 192.400 C 184.251 188.020,184.974 187.380,186.082 185.254 C 189.844 178.035,183.511 167.748,176.935 170.399 M295.100 171.431 C 294.935 171.597,294.800 172.099,294.800 172.547 C 294.800 173.135,294.921 173.239,295.238 172.922 C 295.478 172.682,295.613 172.180,295.538 171.807 C 295.462 171.433,295.265 171.264,295.100 171.431 M233.381 186.800 C 233.381 194.830,233.434 198.115,233.499 194.100 C 233.565 190.085,233.565 183.515,233.499 179.500 C 233.434 175.485,233.381 178.770,233.381 186.800 M295.503 177.600 C 295.061 179.115,295.115 179.845,295.631 179.329 C 295.868 179.092,296.002 178.381,295.929 177.749 L 295.795 176.600 295.503 177.600 M135.183 234.500 C 136.841 236.266,137.200 236.584,137.200 236.283 C 137.200 236.219,136.345 235.364,135.300 234.383 L 133.400 232.600 135.183 234.500 M136.000 240.800 L 135.000 241.120 136.100 241.160 C 136.705 241.182,137.200 241.020,137.200 240.800 C 137.200 240.580,137.155 240.418,137.100 240.440 C 137.045 240.462,136.550 240.624,136.000 240.800 M127.298 250.400 L 127.328 255.800 127.595 251.400 C 127.742 248.980,127.729 246.550,127.566 246.000 C 127.402 245.450,127.282 247.430,127.298 250.400 M128.114 253.800 C 128.117 254.900,128.195 255.303,128.287 254.695 C 128.379 254.086,128.377 253.186,128.282 252.695 C 128.187 252.203,128.111 252.700,128.114 253.800 M127.660 263.276 C 127.627 264.968,127.735 266.437,127.900 266.539 C 128.065 266.642,128.149 265.707,128.087 264.463 C 127.892 260.556,127.722 260.085,127.660 263.276 M128.514 263.000 C 128.517 264.100,128.595 264.503,128.687 263.895 C 128.779 263.286,128.777 262.386,128.682 261.895 C 128.587 261.403,128.511 261.900,128.514 263.000 M121.491 290.689 C 122.201 290.777,123.461 290.779,124.291 290.692 C 125.121 290.605,124.540 290.533,123.000 290.531 C 121.460 290.529,120.781 290.600,121.491 290.689 M121.091 291.889 C 121.801 291.977,123.061 291.979,123.891 291.892 C 124.721 291.805,124.140 291.733,122.600 291.731 C 121.060 291.729,120.381 291.800,121.091 291.889 M132.689 304.519 C 128.183 314.361,113.818 315.438,107.945 306.375 C 106.434 304.044,106.820 304.098,102.364 305.591 C 94.384 308.264,87.028 313.567,81.981 320.285 C 81.025 321.558,79.401 323.429,78.373 324.442 C 72.548 330.180,65.603 355.541,65.600 371.081 L 65.600 372.362 67.500 372.151 C 68.545 372.035,71.290 371.701,73.600 371.410 L 77.800 370.880 72.000 371.043 C 68.810 371.133,66.380 371.120,66.600 371.014 C 67.906 370.386,98.162 367.200,102.820 367.200 L 105.082 367.200 105.353 363.300 C 105.502 361.155,106.263 353.550,107.044 346.400 C 109.148 327.134,108.992 324.891,105.289 321.090 L 103.818 319.580 103.325 321.005 C 102.505 323.372,104.139 325.446,106.199 324.656 C 106.530 324.529,106.800 324.604,106.800 324.822 C 106.800 325.041,106.350 325.391,105.800 325.600 C 103.789 326.365,101.374 324.484,101.538 322.281 C 101.839 318.250,101.966 318.595,100.200 318.645 C 99.320 318.670,98.150 318.817,97.600 318.973 C 96.664 319.237,96.684 319.181,97.903 318.096 L 99.207 316.936 97.703 316.429 C 96.876 316.150,94.040 315.815,91.400 315.686 C 86.237 315.434,86.602 314.928,92.000 314.853 C 99.541 314.749,106.035 318.122,108.672 323.511 C 110.662 327.580,110.442 331.570,106.739 358.474 L 105.491 367.548 102.845 367.850 C 101.390 368.016,100.536 368.225,100.946 368.314 C 101.589 368.454,101.660 368.736,101.455 370.338 C 99.494 385.669,99.157 403.314,100.718 408.945 C 102.393 414.985,103.788 416.101,109.000 415.572 C 124.869 413.961,141.658 412.561,153.472 411.865 C 157.912 411.603,161.642 411.291,161.761 411.172 C 162.250 410.683,162.525 372.217,162.058 369.552 C 161.000 363.508,159.918 338.803,160.764 340.000 C 160.997 340.330,161.208 341.950,161.234 343.600 C 161.311 348.658,160.686 348.128,170.097 351.116 C 174.656 352.563,178.511 353.623,178.663 353.470 C 178.892 353.241,183.949 321.982,183.988 320.554 C 183.995 320.308,182.965 319.735,181.700 319.279 C 180.435 318.824,170.760 315.386,160.200 311.640 C 149.640 307.894,139.888 304.371,138.529 303.811 C 134.043 301.961,133.849 301.984,132.689 304.519 M150.126 312.839 C 150.655 313.080,151.384 313.896,151.744 314.652 C 152.775 316.814,154.980 317.221,156.203 315.474 C 157.038 314.282,157.369 314.912,156.644 316.314 C 155.141 319.222,152.481 318.618,149.961 314.798 C 149.136 313.547,147.425 314.463,147.004 316.382 C 146.597 318.237,146.000 318.243,146.000 316.393 C 146.000 313.712,148.090 311.912,150.126 312.839 M133.390 323.580 C 135.153 326.990,132.928 329.648,129.508 328.219 C 126.980 327.163,125.731 327.690,125.242 330.020 C 124.955 331.391,124.949 331.394,124.443 330.464 C 122.974 327.766,126.256 325.564,129.935 326.779 C 132.575 327.650,133.436 326.247,132.191 323.100 C 131.721 321.911,132.737 322.318,133.390 323.580 M153.681 330.019 C 154.970 331.309,154.961 331.198,154.154 335.493 C 153.826 337.238,155.296 337.905,157.468 336.997 C 159.751 336.044,159.990 336.647,157.853 337.967 C 154.152 340.255,151.543 337.955,152.858 333.565 C 153.508 331.394,152.589 330.005,150.491 329.987 C 149.093 329.975,149.049 329.938,149.776 329.387 C 150.991 328.469,152.350 328.688,153.681 330.019 M87.762 331.651 C 89.458 334.758,87.355 336.973,83.780 335.846 C 80.966 334.959,78.285 336.595,79.453 338.485 C 79.599 338.722,79.470 338.825,79.156 338.721 C 78.104 338.375,78.255 336.109,79.405 334.959 C 80.366 333.998,80.644 333.928,82.530 334.174 C 86.601 334.704,86.588 334.706,86.729 333.472 C 86.800 332.851,86.670 331.803,86.440 331.142 C 85.854 329.461,86.757 329.809,87.762 331.651 M174.240 331.360 C 176.680 333.800,175.637 336.400,172.219 336.400 C 169.003 336.400,167.490 337.764,168.206 340.018 C 168.610 341.292,167.501 340.820,167.043 339.523 C 166.145 336.985,167.809 335.244,171.512 334.846 C 174.366 334.539,174.704 333.630,172.781 331.440 C 171.081 329.503,172.316 329.436,174.240 331.360 M102.800 342.800 C 103.699 343.699,103.777 344.389,103.205 346.381 C 102.670 348.247,103.526 349.600,105.243 349.600 C 106.854 349.600,106.577 350.556,104.917 350.722 C 102.425 350.970,101.114 348.825,101.772 345.574 C 101.991 344.495,101.905 344.019,101.418 343.615 C 100.776 343.082,100.588 343.110,97.200 344.255 C 96.870 344.366,97.188 343.904,97.906 343.229 C 99.485 341.744,101.562 341.562,102.800 342.800 M126.157 342.633 C 127.223 345.410,125.583 347.237,121.939 347.333 C 119.110 347.408,118.372 348.482,119.774 350.484 C 120.624 351.698,120.561 352.114,119.604 351.602 C 116.084 349.718,117.436 345.306,121.409 345.716 C 124.114 345.995,125.200 345.325,125.200 343.377 C 125.200 341.947,125.735 341.532,126.157 342.633 M152.800 350.707 C 152.800 352.967,149.855 354.533,147.377 353.591 C 145.339 352.816,144.793 354.223,145.821 357.600 C 146.315 359.223,144.548 357.461,143.992 355.776 C 143.064 352.965,144.937 351.254,148.066 352.055 C 150.472 352.672,151.593 351.909,151.613 349.638 C 151.625 348.287,151.661 348.247,152.213 348.976 C 152.536 349.404,152.800 350.182,152.800 350.707 M86.112 355.474 C 86.742 358.771,83.163 360.763,80.820 358.420 C 78.898 356.498,77.884 356.412,76.360 358.042 L 75.200 359.285 75.200 358.271 C 75.200 355.687,79.027 354.770,81.339 356.800 C 83.450 358.653,85.200 357.877,85.200 355.087 C 85.200 353.707,85.825 353.972,86.112 355.474 M227.570 359.230 C 226.801 359.999,226.760 360.346,227.015 363.939 L 227.290 367.819 226.114 369.078 C 224.162 371.167,222.689 371.179,218.324 369.143 C 207.860 364.260,196.919 372.425,201.608 381.616 C 202.997 384.339,204.800 383.340,204.800 379.846 C 204.800 373.941,209.688 371.366,215.665 374.123 C 223.797 377.873,229.094 376.618,232.218 370.200 C 234.888 364.717,231.077 355.723,227.570 359.230 M112.958 367.184 C 113.513 367.395,114.327 368.273,114.767 369.135 C 115.488 370.549,116.256 371.200,117.202 371.200 C 117.387 371.200,118.092 370.734,118.769 370.164 C 120.226 368.939,120.479 369.683,119.171 371.346 C 117.558 373.396,114.734 372.603,113.223 369.676 C 112.405 368.091,110.730 368.625,110.012 370.700 C 109.366 372.570,108.800 372.924,108.800 371.460 C 108.800 369.787,109.659 367.995,110.742 367.407 C 112.037 366.703,111.765 366.730,112.958 367.184 M82.900 370.276 C 83.285 370.376,83.915 370.376,84.300 370.276 C 84.685 370.175,84.370 370.093,83.600 370.093 C 82.830 370.093,82.515 370.175,82.900 370.276 M79.105 370.683 C 79.602 370.779,80.322 370.775,80.705 370.675 C 81.087 370.575,80.680 370.496,79.800 370.501 C 78.920 370.505,78.607 370.587,79.105 370.683 M131.717 371.108 C 132.912 372.429,133.130 373.680,132.523 375.730 C 131.684 378.562,132.991 379.607,135.783 378.335 C 137.190 377.694,137.607 378.289,136.394 379.207 C 133.265 381.576,129.545 379.428,130.757 375.953 C 131.754 373.091,130.564 370.750,128.399 371.316 C 127.614 371.522,127.342 371.191,127.867 370.667 C 128.428 370.106,131.086 370.411,131.717 371.108 M159.036 371.400 C 159.814 374.500,157.684 376.103,153.720 375.401 C 151.645 375.034,151.025 376.305,152.140 378.642 C 152.910 380.257,152.395 380.429,151.229 378.946 C 149.012 376.127,150.620 373.402,154.270 373.793 C 157.294 374.117,158.000 373.730,158.000 371.751 C 158.000 370.175,158.671 369.947,159.036 371.400 M110.081 393.219 C 111.188 394.327,111.274 394.593,111.011 396.119 C 110.336 400.043,110.390 400.203,112.400 400.178 C 113.390 400.165,114.515 400.011,114.900 399.835 C 116.159 399.258,115.652 400.303,114.253 401.167 C 110.595 403.428,107.958 401.103,109.258 396.765 C 109.903 394.612,108.985 393.200,106.942 393.200 C 105.707 393.200,105.573 393.114,106.000 392.600 C 106.843 391.584,108.732 391.871,110.081 393.219 M153.056 394.100 C 153.494 394.595,154.160 395.495,154.535 396.100 C 155.424 397.531,156.915 397.548,158.219 396.142 C 159.087 395.205,159.200 395.172,159.200 395.853 C 159.200 399.243,154.656 399.617,152.835 396.377 C 151.460 393.930,149.765 394.524,148.976 397.729 C 148.574 399.366,147.835 398.406,148.160 396.670 C 148.748 393.537,151.351 392.171,153.056 394.100 M135.826 399.784 C 137.233 401.931,135.151 404.795,132.180 404.799 C 129.647 404.802,129.357 406.290,131.500 408.297 L 133.000 409.701 131.800 409.436 C 127.629 408.515,127.479 403.844,131.604 403.322 C 134.392 402.969,135.846 400.806,134.320 399.280 C 133.947 398.907,133.989 398.800,134.511 398.800 C 134.880 398.800,135.472 399.243,135.826 399.784 M146.800 438.253 L 135.400 441.182 139.600 440.951 C 146.970 440.547,156.893 437.715,158.168 435.652 C 158.321 435.403,158.392 435.228,158.324 435.262 C 158.256 435.297,153.070 436.642,146.800 438.253 " stroke="none" fill="#7e2e84" fill-rule="evenodd"></path></g></svg>