<svg id="svg" version="1.1" xmlns="http://www.w3.org/2000/svg" xmlns:xlink="http://www.w3.org/1999/xlink" width="400" height="367.27272727272725" viewBox="0, 0, 400,367.27272727272725"><g id="svgg"><path id="path0" d="M355.565 51.507 C 352.408 58.547,346.409 73.591,346.621 73.934 C 346.779 74.190,346.622 74.219,346.158 74.020 C 344.927 73.492,321.369 70.092,319.690 70.200 C 318.669 70.265,322.567 71.007,335.050 73.122 C 341.246 74.172,346.540 74.946,346.813 74.841 C 347.458 74.593,357.299 49.371,356.904 48.976 C 356.827 48.899,356.224 50.038,355.565 51.507 M351.699 67.044 C 352.359 67.288,365.937 68.643,369.513 68.822 C 372.369 68.965,372.636 68.939,370.983 68.676 C 364.873 67.704,350.102 66.454,351.699 67.044 M76.827 69.801 C 72.261 70.997,68.165 73.301,64.583 76.691 C 62.643 78.526,62.473 78.612,62.113 77.940 C 61.901 77.543,61.186 76.899,60.524 76.508 C 59.621 75.975,59.210 75.381,58.876 74.130 C 58.581 73.021,57.993 72.077,57.119 71.309 C 52.244 67.029,47.119 76.791,50.980 83.003 L 52.069 84.755 50.161 84.952 C 42.613 85.731,37.945 92.563,38.921 101.404 C 39.631 107.830,38.763 109.407,33.492 111.271 C 24.866 114.322,22.595 120.125,26.895 128.134 C 29.905 133.740,29.196 135.312,22.121 138.720 C 15.802 141.763,12.586 145.533,11.174 151.553 C 10.276 155.382,11.298 162.876,12.958 164.630 C 13.206 164.892,13.890 165.849,14.480 166.758 C 15.069 167.668,16.480 169.403,17.615 170.615 C 18.750 171.827,20.301 173.601,21.061 174.557 C 22.405 176.246,26.421 179.614,27.091 179.614 C 27.274 179.614,27.984 178.834,28.669 177.880 C 34.125 170.283,47.972 161.249,54.161 161.249 C 55.174 161.249,55.096 160.459,52.894 148.322 C 49.951 132.104,49.978 132.231,49.431 132.231 C 49.060 132.231,48.998 133.366,49.138 137.513 C 49.327 143.067,49.010 146.539,48.483 144.686 C 48.334 144.162,48.091 141.145,47.942 137.982 C 47.673 132.237,47.672 132.231,46.794 132.231 C 43.613 132.231,40.159 124.743,41.486 120.723 C 42.063 118.975,44.810 116.584,46.930 115.985 C 47.970 115.691,48.633 115.283,48.689 114.901 C 48.739 114.564,49.269 113.573,49.869 112.700 C 52.680 108.601,54.785 102.836,56.613 94.228 C 57.902 88.157,57.605 88.608,59.516 89.815 C 64.052 92.678,71.719 93.808,76.969 92.387 L 79.314 91.753 81.653 94.127 C 87.699 100.263,90.469 100.693,91.682 95.684 C 92.716 91.415,93.791 116.229,92.891 123.600 C 91.691 133.434,88.336 140.506,83.042 144.361 C 81.327 145.610,80.869 146.139,81.000 146.723 C 81.827 150.414,82.622 156.552,82.435 157.804 C 82.210 159.304,82.220 159.320,83.511 159.562 C 84.227 159.696,85.903 160.355,87.236 161.026 L 89.659 162.245 89.428 161.194 C 89.202 160.167,89.221 160.152,90.237 160.545 C 90.809 160.766,94.728 162.257,98.946 163.857 L 106.616 166.768 109.011 165.429 C 119.384 159.628,123.093 148.675,117.205 141.230 C 116.406 140.220,115.307 138.650,114.762 137.741 C 114.217 136.832,113.195 135.483,112.490 134.743 L 111.208 133.398 112.339 131.988 C 115.562 127.969,115.219 120.489,111.668 117.355 C 111.210 116.951,110.266 115.425,109.570 113.965 C 108.042 110.755,106.404 109.253,102.646 107.614 C 100.684 106.759,99.908 106.232,99.908 105.754 C 99.908 104.240,100.796 101.133,101.956 98.587 C 105.189 91.494,104.911 86.468,101.016 81.550 C 100.407 80.781,99.908 79.963,99.908 79.733 C 99.908 77.662,95.914 72.926,92.693 71.178 C 88.619 68.967,82.152 68.406,76.827 69.801 M374.740 73.538 C 374.826 73.799,375.544 74.056,376.337 74.109 C 377.901 74.214,377.495 73.756,375.630 73.312 C 374.859 73.128,374.625 73.188,374.740 73.538 M336.201 79.351 C 333.754 85.633,330.674 96.086,331.135 96.547 C 331.377 96.789,332.660 93.643,334.469 88.373 C 337.857 78.501,339.145 71.793,336.201 79.351 M80.603 99.346 C 79.937 99.849,79.988 99.885,81.359 99.891 C 83.211 99.900,84.533 99.555,84.272 99.132 C 83.948 98.608,81.380 98.758,80.603 99.346 M61.551 105.242 C 61.162 105.537,60.940 105.874,61.058 105.992 C 61.373 106.307,65.360 105.314,65.150 104.973 C 64.847 104.484,62.301 104.674,61.551 105.242 M76.612 115.335 C 76.759 123.119,76.704 124.446,76.203 125.161 C 75.537 126.112,76.057 126.294,76.815 125.375 C 77.387 124.680,77.360 114.551,76.770 109.275 C 76.537 107.181,76.491 108.923,76.612 115.335 M83.012 107.337 C 83.012 107.618,83.264 108.169,83.571 108.562 C 84.105 109.242,84.126 109.225,84.030 108.201 C 83.931 107.136,83.012 106.356,83.012 107.337 M61.341 108.465 C 61.341 109.301,61.740 110.193,62.115 110.193 C 62.650 110.193,62.487 108.851,61.892 108.356 C 61.442 107.983,61.341 108.004,61.341 108.465 M47.016 121.167 C 47.016 121.546,47.261 122.061,47.562 122.310 C 48.037 122.705,48.057 122.616,47.709 121.620 C 47.256 120.320,47.016 120.163,47.016 121.167 M46.503 123.264 C 45.913 124.802,46.562 127.089,47.588 127.089 C 48.059 127.089,48.053 126.965,47.543 126.186 C 47.150 125.587,47.031 124.918,47.188 124.200 C 47.441 123.052,46.879 122.285,46.503 123.264 M67.958 128.159 C 67.929 132.395,73.863 134.773,76.762 131.687 C 77.762 130.622,77.638 130.544,76.167 131.311 C 73.572 132.664,70.387 131.551,68.790 128.731 C 68.073 127.464,67.964 127.389,67.958 128.159 M291.003 139.955 C 289.786 140.445,288.708 142.459,288.707 144.248 C 288.703 148.554,295.009 150.722,297.180 147.161 C 299.712 143.009,295.533 138.134,291.003 139.955 M78.523 145.195 C 72.926 148.138,67.232 148.091,61.800 145.056 C 59.621 143.839,59.271 144.057,61.082 145.502 C 67.126 150.324,75.847 149.989,80.975 144.737 C 81.773 143.919,82.352 143.266,82.260 143.285 C 82.169 143.303,80.487 144.163,78.523 145.195 M38.567 171.166 L 36.915 171.423 38.994 171.478 C 49.336 171.753,55.965 176.871,56.763 185.197 C 56.910 186.730,56.488 192.474,55.514 202.204 C 54.705 210.285,53.930 218.567,53.791 220.610 L 53.540 224.324 48.166 224.569 C 38.157 225.024,22.224 225.933,21.855 226.069 C 20.917 226.415,27.783 226.202,40.220 225.501 C 47.694 225.079,53.831 224.706,53.857 224.672 C 53.934 224.571,56.503 203.532,57.340 196.143 C 59.192 179.792,55.884 173.354,44.598 171.343 C 41.470 170.785,41.088 170.774,38.567 171.166 M101.379 186.261 C 101.378 186.382,102.205 187.869,103.216 189.567 C 107.672 197.049,108.907 201.693,108.907 210.965 C 108.907 217.431,108.941 217.783,109.425 216.291 C 111.594 209.587,109.083 196.468,104.360 189.835 C 102.942 187.843,101.382 185.973,101.379 186.261 M18.095 226.526 C 18.653 226.611,19.480 226.608,19.932 226.521 C 20.383 226.434,19.927 226.365,18.916 226.368 C 17.906 226.370,17.537 226.442,18.095 226.526 M110.315 233.984 C 110.315 235.285,109.235 236.554,108.053 236.643 C 107.134 236.713,106.916 238.017,107.824 238.017 C 109.669 238.017,111.155 236.237,111.013 234.197 C 110.928 232.972,110.315 232.786,110.315 233.984 M109.892 257.879 C 109.222 258.489,108.726 259.143,108.791 259.333 C 108.926 259.734,111.295 257.620,111.295 257.098 C 111.295 256.615,111.263 256.632,109.892 257.879 M367.853 285.471 C 366.247 286.734,364.644 288.565,361.908 292.261 C 359.708 295.234,359.276 295.636,358.261 295.659 C 357.032 295.686,356.673 296.295,356.662 298.365 C 356.660 298.931,356.424 299.846,356.138 300.398 C 355.838 300.979,354.829 307.835,353.750 316.634 C 352.722 325.010,351.803 332.360,351.708 332.966 L 351.535 334.068 352.029 333.150 C 352.301 332.645,353.648 329.421,355.022 325.987 C 356.396 322.553,357.574 319.675,357.638 319.592 C 358.128 318.960,360.708 322.856,361.454 325.356 C 362.074 327.435,361.925 327.698,366.110 317.172 C 372.282 301.647,374.654 295.076,375.223 291.923 C 375.802 288.711,373.123 290.267,368.731 295.693 C 367.269 297.499,366.031 298.936,365.981 298.886 C 365.930 298.835,366.787 296.152,367.886 292.923 C 370.379 285.592,370.370 283.491,367.853 285.471 M32.860 299.672 C 34.760 301.641,35.262 301.924,35.262 301.028 C 35.262 300.734,34.559 300.019,33.701 299.437 C 31.090 297.670,30.963 297.706,32.860 299.672 M44.335 333.689 C 44.698 334.188,45.148 334.601,45.335 334.607 C 45.522 334.614,45.286 334.206,44.812 333.701 C 43.711 332.528,43.487 332.523,44.335 333.689 " stroke="none" fill="#241352" fill-rule="evenodd"></path><path id="path1" d="M276.584 0.172 C 276.281 0.244,274.545 0.498,272.727 0.737 C 255.231 3.032,240.170 11.025,225.441 25.829 C 218.169 33.138,213.693 38.662,198.436 59.154 C 168.433 99.453,152.102 109.803,115.886 111.474 C 113.260 111.595,110.603 111.772,109.982 111.866 L 108.853 112.038 109.799 113.993 C 110.318 115.068,111.297 116.578,111.974 117.348 C 115.617 121.496,115.862 128.264,112.514 132.243 L 111.587 133.345 112.889 134.786 C 113.606 135.579,114.464 136.754,114.797 137.398 C 115.129 138.041,116.113 139.441,116.982 140.508 C 123.478 148.483,120.231 159.006,109.238 165.601 C 107.844 166.438,106.901 167.123,107.142 167.124 C 107.514 167.125,122.678 172.814,128.858 175.270 C 130.801 176.042,130.810 176.054,130.704 177.522 L 130.598 178.998 144.546 184.048 C 152.217 186.826,158.545 188.961,158.607 188.792 C 158.697 188.550,152.583 162.903,151.851 160.452 C 151.742 160.085,151.900 159.791,152.246 159.718 C 152.678 159.627,152.201 158.756,150.372 156.290 C 141.028 143.698,139.165 138.693,146.080 144.759 C 148.675 147.035,150.470 148.081,150.093 147.096 C 149.958 146.747,149.023 143.796,148.014 140.540 C 143.807 126.966,143.879 122.512,148.185 129.941 C 149.507 132.223,149.794 132.531,149.970 131.858 C 150.104 131.348,150.342 131.156,150.625 131.331 C 150.953 131.533,151.009 131.324,150.839 130.541 C 149.292 123.438,151.017 123.067,153.894 129.885 L 154.900 132.269 155.136 130.546 C 155.266 129.598,155.372 128.257,155.372 127.565 C 155.372 123.306,157.261 124.681,159.249 130.385 L 160.085 132.782 160.024 129.957 C 159.927 125.454,160.513 125.475,162.696 130.052 C 164.009 132.804,164.528 133.606,164.539 132.896 C 164.582 130.141,165.670 131.498,167.983 137.190 C 179.775 166.211,188.132 196.781,187.629 209.062 C 187.551 210.980,187.641 211.897,187.899 211.798 C 191.015 210.594,201.630 208.857,208.511 208.424 C 211.864 208.213,212.335 208.095,213.103 207.272 C 216.221 203.928,220.992 203.489,226.801 206.011 C 233.063 208.730,236.025 206.991,235.005 201.196 C 233.865 194.724,239.500 194.721,241.038 201.191 L 241.475 203.032 242.512 202.264 C 243.862 201.267,245.046 201.889,246.648 204.437 C 248.915 208.043,247.793 213.420,244.117 216.567 C 243.318 217.250,242.734 217.866,242.820 217.935 C 242.905 218.003,244.380 218.971,246.097 220.085 C 263.826 231.584,286.543 259.213,299.120 284.572 C 300.268 286.888,300.800 287.603,301.373 287.603 C 302.985 287.603,339.681 289.086,347.629 289.472 L 356.048 289.881 356.731 289.018 C 381.646 257.542,396.827 214.388,399.420 167.677 C 404.439 77.233,366.546 13.381,300.643 1.232 C 295.883 0.355,278.959 -0.391,276.584 0.172 M135.686 5.298 C 129.285 6.755,125.086 9.618,120.615 15.577 C 110.224 29.425,114.702 50.117,129.733 57.704 C 151.078 68.479,172.987 50.069,167.924 25.612 C 164.890 10.956,150.544 1.916,135.686 5.298 M358.538 45.822 C 359.042 46.377,359.900 47.442,360.445 48.187 C 360.990 48.933,362.303 50.422,363.363 51.498 C 365.256 53.419,368.852 59.131,374.148 68.629 C 375.704 71.419,377.029 73.356,377.594 73.665 C 378.316 74.060,378.371 74.170,377.850 74.182 C 377.291 74.194,377.450 74.677,378.879 77.298 L 380.570 80.400 379.725 80.937 C 372.947 85.244,344.178 102.450,341.317 103.906 C 339.442 104.860,338.937 104.675,337.017 102.332 C 336.288 101.443,335.301 100.617,334.824 100.497 C 332.593 99.937,327.637 91.700,321.429 78.237 C 319.799 74.702,318.228 71.362,317.937 70.816 L 317.409 69.823 322.065 66.555 C 339.851 54.073,354.730 44.826,357.048 44.815 C 357.364 44.813,358.034 45.266,358.538 45.822 M285.767 82.718 C 295.956 86.215,299.095 87.968,298.088 89.597 C 297.953 89.816,298.889 90.491,300.272 91.173 C 303.949 92.987,303.946 96.244,300.267 95.740 C 295.147 95.038,278.969 87.075,278.978 85.262 C 278.984 84.129,278.818 83.940,277.049 83.073 C 275.572 82.349,275.115 81.930,275.115 81.301 C 275.115 79.398,276.713 79.611,285.767 82.718 M245.247 105.986 C 246.018 107.278,246.814 108.306,247.016 108.270 C 248.634 107.981,253.512 114.175,258.020 122.244 C 258.705 123.470,257.360 124.863,251.580 128.910 C 243.346 134.677,242.289 134.855,238.982 131.031 C 238.068 129.974,237.048 128.861,236.716 128.558 C 232.486 124.702,229.696 120.207,229.288 116.590 C 228.956 113.638,229.854 114.006,234.602 118.767 L 238.853 123.030 240.305 121.845 C 241.103 121.194,242.692 119.941,243.835 119.061 C 246.169 117.264,246.349 116.999,245.732 116.255 C 245.365 115.814,244.878 116.016,242.652 117.533 C 238.526 120.344,237.310 120.513,235.966 118.462 C 235.039 117.047,235.664 116.081,239.199 113.467 C 242.630 110.930,242.584 110.988,241.889 110.069 C 241.409 109.435,241.162 109.550,237.769 111.991 C 233.892 114.782,232.678 115.139,231.405 113.866 C 229.578 112.039,231.365 109.910,239.207 104.569 C 242.411 102.387,243.213 102.575,245.247 105.986 M240.800 108.165 C 241.276 108.892,241.535 109.003,242.074 108.714 C 243.218 108.102,243.197 107.721,242.005 107.483 C 240.254 107.133,240.159 107.186,240.800 108.165 M247.110 116.695 C 246.550 117.319,246.535 117.494,246.992 118.116 C 247.610 118.955,248.088 118.233,247.871 116.788 C 247.752 115.996,247.741 115.994,247.110 116.695 M336.616 119.189 C 340.490 119.846,344.901 123.273,346.681 127.008 C 347.232 128.164,348.292 129.936,349.036 130.946 C 356.114 140.547,346.421 152.773,335.492 148.031 C 332.606 146.779,329.109 142.550,329.109 140.312 C 329.109 139.987,328.516 139.152,327.792 138.456 C 323.920 134.737,323.934 129.239,327.825 124.932 C 328.578 124.098,329.429 123.416,329.715 123.416 C 330.500 123.416,330.739 124.463,330.116 125.174 C 328.386 127.149,327.880 130.337,328.907 132.794 C 329.557 134.351,329.867 134.383,330.697 132.978 C 331.829 131.062,333.194 129.660,333.928 129.660 C 335.122 129.660,335.120 130.665,333.922 132.474 C 333.295 133.420,332.780 134.455,332.777 134.774 C 332.775 135.093,332.673 135.726,332.551 136.181 C 331.807 138.957,338.814 138.668,341.533 135.811 C 345.196 131.962,344.085 130.453,337.017 129.677 C 334.048 129.351,332.782 128.620,332.782 127.232 C 332.782 125.721,336.675 124.400,339.234 125.042 C 339.841 125.194,340.106 125.146,339.960 124.909 C 339.581 124.296,336.336 123.488,333.124 123.208 C 329.199 122.865,327.905 121.763,329.258 119.912 C 329.745 119.246,333.063 118.589,334.619 118.851 C 334.922 118.902,335.821 119.055,336.616 119.189 M245.999 123.691 C 241.683 126.868,241.678 126.874,242.409 127.604 C 243.313 128.508,244.291 128.093,247.769 125.327 C 248.992 124.355,250.386 123.284,250.867 122.947 C 251.665 122.388,251.698 122.253,251.245 121.406 C 250.598 120.198,250.957 120.041,245.999 123.691 M252.984 121.742 C 252.211 122.307,252.168 122.815,252.845 123.377 C 253.250 123.713,253.395 123.565,253.583 122.629 C 253.864 121.221,253.809 121.139,252.984 121.742 M345.896 136.960 C 343.975 139.863,340.268 141.781,336.578 141.781 L 334.505 141.781 335.205 142.555 C 338.864 146.601,345.613 144.983,347.078 139.708 C 347.995 136.404,347.313 134.818,345.896 136.960 M295.346 139.960 C 297.040 140.824,298.252 142.579,298.254 144.171 C 298.255 145.051,298.486 145.377,299.390 145.778 C 303.646 147.662,302.186 153.903,297.488 153.903 C 295.342 153.903,294.124 152.999,293.276 150.777 C 292.929 149.870,292.426 149.128,292.158 149.128 C 291.889 149.128,291.095 148.624,290.393 148.007 C 285.786 143.962,289.945 137.204,295.346 139.960 M204.061 150.607 C 206.756 151.893,209.619 154.558,210.824 156.903 C 211.274 157.778,212.209 159.403,212.902 160.514 C 219.059 170.387,208.972 181.521,198.456 176.457 C 196.232 175.386,193.370 172.386,193.010 170.748 C 192.873 170.125,192.201 168.994,191.516 168.236 C 188.133 164.492,188.374 159.302,192.117 155.261 C 193.779 153.466,193.923 153.389,194.517 153.969 C 195.114 154.553,195.095 154.651,194.187 155.731 C 192.861 157.306,192.319 159.325,192.642 161.480 C 192.862 162.952,192.980 163.153,193.332 162.662 C 193.565 162.336,194.293 161.301,194.950 160.362 C 196.340 158.375,197.075 157.983,197.886 158.794 C 198.420 159.328,198.385 159.502,197.474 160.816 C 195.230 164.055,195.319 166.643,197.713 167.721 C 201.485 169.420,205.680 167.683,207.327 163.740 C 208.701 160.450,207.322 159.301,201.027 158.494 C 195.965 157.845,194.170 155.074,198.080 153.944 C 199.182 153.626,199.123 153.599,197.245 153.563 C 194.398 153.509,193.388 152.922,193.388 151.321 C 193.388 148.778,199.388 148.376,204.061 150.607 M256.924 151.762 C 258.913 152.668,257.976 162.421,254.747 174.439 C 254.057 177.009,252.444 177.943,251.228 176.478 C 250.256 175.307,251.685 157.566,253.096 153.291 C 253.711 151.428,255.033 150.900,256.924 151.762 M262.534 157.678 C 263.667 158.554,262.122 172.777,260.022 180.802 C 259.546 182.620,258.498 183.199,257.495 182.197 C 256.335 181.037,257.520 162.013,258.978 158.391 C 259.532 157.014,261.235 156.672,262.534 157.678 M10.907 169.246 C -5.543 203.373,-3.418 242.227,16.743 275.958 C 18.794 279.390,18.988 279.367,18.020 275.806 C 15.589 266.869,15.177 251.304,16.996 237.098 C 18.483 225.484,18.428 226.528,17.546 226.759 C 14.518 227.550,14.273 226.593,15.252 217.822 C 17.046 201.770,20.924 188.177,25.548 181.741 C 26.272 180.734,26.811 179.872,26.747 179.827 C 24.218 178.038,21.846 175.976,20.911 174.753 C 20.252 173.892,18.768 172.195,17.615 170.983 C 16.462 169.770,14.948 167.914,14.251 166.858 L 12.983 164.937 10.907 169.246 M209.734 167.860 C 208.141 170.097,203.856 172.216,200.760 172.298 L 199.633 172.328 201.102 173.023 C 204.823 174.784,209.311 172.457,210.390 168.208 C 210.831 166.469,210.754 166.428,209.734 167.860 M96.989 169.493 C 96.321 170.204,96.083 170.929,95.987 172.541 L 95.862 174.656 96.386 173.065 C 97.520 169.622,99.068 169.156,100.432 171.848 C 102.083 175.106,106.520 175.058,106.520 171.782 C 106.520 171.155,106.426 171.186,105.758 172.035 C 105.251 172.680,104.645 173.003,103.939 173.003 C 102.869 173.003,102.631 172.774,100.893 170.064 C 99.812 168.379,98.250 168.150,96.989 169.493 M353.405 171.176 C 357.927 171.624,359.111 172.425,358.729 174.780 C 358.467 176.395,358.134 176.720,356.401 177.056 C 355.238 177.281,355.464 177.336,357.759 177.384 C 363.956 177.515,366.347 179.108,363.948 181.507 C 362.630 182.825,340.549 181.627,339.053 180.157 C 337.364 178.496,339.756 177.422,345.157 177.415 C 346.812 177.412,348.268 177.245,348.393 177.043 C 348.529 176.823,348.060 176.675,347.221 176.674 C 344.977 176.671,335.608 175.203,335.091 174.774 C 334.455 174.246,334.492 172.464,335.151 171.917 C 336.277 170.982,347.041 170.545,353.405 171.176 M44.417 173.613 C 43.630 174.476,43.612 174.556,44.261 174.298 C 44.665 174.137,45.549 173.804,46.225 173.557 C 47.177 173.211,47.316 173.056,46.838 172.872 C 45.782 172.467,45.337 172.603,44.417 173.613 M48.261 174.060 C 48.801 174.657,48.828 174.978,48.460 176.440 C 47.539 180.097,50.293 183.197,52.731 181.248 C 53.428 180.691,53.426 180.683,52.659 180.892 C 50.426 181.502,49.009 179.481,49.668 176.627 C 50.079 174.843,50.058 174.710,49.253 174.058 C 48.151 173.166,47.453 173.168,48.261 174.060 M80.838 180.595 C 81.901 183.780,80.714 185.264,77.911 184.256 C 76.205 183.643,75.994 183.639,74.822 184.195 C 73.094 185.015,71.961 187.913,73.095 188.613 C 73.304 188.743,73.462 188.428,73.462 187.884 C 73.462 185.783,75.911 184.555,77.870 185.675 C 81.125 187.536,83.928 183.354,81.364 180.461 L 80.450 179.431 80.838 180.595 M37.287 187.065 C 38.189 190.125,37.153 191.494,34.709 190.473 C 31.313 189.054,28.151 191.337,29.352 194.341 L 29.706 195.225 29.729 194.297 C 29.790 191.852,31.590 190.797,34.157 191.701 C 38.004 193.056,40.282 189.621,37.666 186.410 L 36.769 185.308 37.287 187.065 M98.806 185.859 C 98.363 186.145,98.422 186.216,99.106 186.220 C 99.574 186.223,100.284 186.401,100.684 186.615 C 101.351 186.972,101.372 186.942,100.939 186.248 C 100.428 185.430,99.680 185.294,98.806 185.859 M102.093 186.756 C 102.578 187.273,103.030 187.695,103.097 187.695 C 103.428 187.695,102.239 186.212,101.761 186.029 C 101.459 185.913,101.608 186.240,102.093 186.756 M293.142 188.783 C 298.247 192.202,306.749 202.211,311.340 210.207 C 314.839 216.302,314.716 216.532,307.213 217.931 C 290.019 221.138,288.338 221.090,288.338 217.398 L 288.338 215.566 286.721 215.808 C 284.806 216.095,283.561 215.184,283.566 213.499 C 283.574 211.085,287.066 189.922,287.534 189.454 C 289.343 187.645,291.124 187.432,293.142 188.783 M121.174 189.361 C 122.922 191.351,122.554 192.835,120.312 192.840 C 116.281 192.847,113.732 196.047,116.071 198.164 C 116.798 198.822,116.802 198.816,116.391 197.638 C 115.768 195.852,116.854 194.525,119.045 194.393 C 122.367 194.194,123.416 193.544,123.416 191.685 C 123.416 190.198,122.869 189.280,121.587 188.617 C 119.991 187.792,119.916 187.927,121.174 189.361 M101.826 190.067 C 100.896 193.546,101.654 195.041,104.346 195.041 C 106.166 195.041,106.156 194.267,104.333 193.894 C 102.922 193.605,102.380 192.955,102.688 191.919 C 103.215 190.143,103.228 189.676,102.766 189.052 C 102.321 188.451,102.233 188.545,101.826 190.067 M288.705 189.982 C 288.705 190.465,288.955 191.181,289.261 191.574 C 289.782 192.241,289.811 192.195,289.720 190.846 C 289.615 189.277,288.705 188.503,288.705 189.982 M289.295 200.487 C 288.936 204.621,288.552 208.558,288.442 209.236 C 288.288 210.181,288.372 210.468,288.799 210.468 C 289.183 210.468,289.436 209.926,289.611 208.724 C 289.752 207.764,290.346 204.352,290.931 201.142 L 291.996 195.304 290.971 194.138 L 289.947 192.972 289.295 200.487 M45.464 198.185 C 43.517 199.241,43.389 200.330,45.322 199.391 C 47.541 198.313,49.097 199.091,48.603 201.034 C 47.517 205.303,50.014 208.656,52.893 206.795 C 53.313 206.524,53.170 206.438,52.290 206.434 C 49.826 206.422,49.135 204.997,49.761 201.223 C 50.235 198.369,48.015 196.800,45.464 198.185 M294.807 199.500 C 294.643 200.304,293.848 208.382,293.848 209.241 C 293.848 209.487,295.249 209.383,297.796 208.947 C 299.968 208.575,301.882 208.270,302.050 208.268 C 302.691 208.261,297.494 200.878,295.749 199.316 C 294.998 198.644,294.981 198.647,294.807 199.500 M75.310 200.092 C 75.290 202.171,74.168 202.891,71.391 202.607 C 67.143 202.171,65.220 204.729,67.881 207.277 C 69.285 208.623,69.638 208.517,68.717 207.027 C 67.154 204.499,68.031 203.514,71.617 203.771 C 75.235 204.030,77.514 201.796,75.861 199.611 C 75.351 198.937,75.321 198.963,75.310 200.092 M240.663 206.320 C 240.122 208.126,237.384 211.287,235.789 211.947 C 234.493 212.484,234.796 212.796,236.996 213.191 C 240.560 213.831,242.638 210.274,241.366 205.713 C 241.134 204.882,241.080 204.928,240.663 206.320 M101.010 207.341 C 101.010 208.848,99.396 210.229,97.958 209.953 C 94.102 209.212,93.823 209.232,92.988 210.293 C 91.927 211.643,91.986 213.102,93.159 214.496 C 94.320 215.876,94.669 215.729,93.875 214.194 C 92.668 211.860,93.753 210.044,95.906 210.794 C 98.899 211.837,101.745 210.509,101.745 208.070 C 101.745 207.393,101.579 206.736,101.377 206.612 C 101.168 206.482,101.010 206.797,101.010 207.341 M303.038 208.724 C 303.043 208.976,303.361 209.592,303.745 210.092 L 304.444 211.001 304.690 210.021 C 304.825 209.482,304.828 208.866,304.696 208.653 C 304.360 208.109,303.029 208.166,303.038 208.724 M286.557 211.203 L 285.328 211.387 286.495 212.245 C 287.800 213.206,288.081 213.134,287.906 211.879 C 287.802 211.128,287.632 211.042,286.557 211.203 M115.696 214.601 C 115.690 217.899,115.000 222.309,114.292 223.574 C 114.065 223.979,113.983 221.962,114.058 217.791 L 114.172 211.387 113.879 217.264 C 113.591 223.023,112.908 227.960,111.799 232.293 C 111.248 234.445,111.974 252.755,112.705 255.159 C 112.927 255.889,113.347 255.634,117.723 252.107 C 132.885 239.886,148.008 229.762,162.167 222.354 L 167.309 219.663 165.429 219.657 C 160.562 219.641,145.409 217.701,136.301 215.927 C 131.374 214.968,130.597 214.896,130.330 215.373 C 130.070 215.837,128.926 215.555,122.965 213.562 C 119.083 212.265,115.861 211.203,115.805 211.203 C 115.749 211.203,115.700 212.732,115.696 214.601 M33.281 212.151 C 33.158 212.471,33.058 213.106,33.058 213.564 C 33.058 214.355,32.051 215.611,31.417 215.611 C 31.254 215.611,30.403 214.949,29.526 214.141 C 27.279 212.070,24.239 212.952,24.244 215.674 C 24.245 216.455,24.308 216.426,24.973 215.335 C 26.016 213.625,27.359 213.710,29.297 215.611 C 31.696 217.962,33.792 216.909,33.792 213.353 C 33.792 211.492,33.656 211.172,33.281 212.151 M306.152 212.294 C 305.748 212.444,303.021 213.010,300.092 213.553 C 293.221 214.825,292.991 214.877,293.214 215.100 C 293.423 215.308,306.119 213.472,307.202 213.077 C 307.762 212.873,307.795 212.756,307.386 212.425 C 307.107 212.200,306.564 212.142,306.152 212.294 M308.960 213.366 C 308.551 213.626,308.576 213.855,309.103 214.660 L 309.744 215.637 310.427 214.513 C 310.803 213.895,311.111 213.310,311.111 213.214 C 311.111 212.918,309.487 213.032,308.960 213.366 M291.333 215.978 L 290.103 216.162 291.270 217.020 C 292.575 217.982,292.856 217.909,292.681 216.654 C 292.577 215.903,292.407 215.817,291.333 215.978 M59.137 223.424 C 57.950 224.014,56.852 226.271,57.002 227.811 C 57.117 228.988,57.136 228.971,57.792 227.086 C 58.788 224.221,60.424 223.681,61.347 225.912 C 62.679 229.127,67.585 229.950,67.585 226.958 C 67.585 226.811,67.697 226.387,67.834 226.017 C 67.981 225.618,67.622 225.830,66.952 226.538 C 65.185 228.403,63.828 227.924,62.298 224.896 C 61.409 223.136,60.535 222.729,59.137 223.424 M78.292 226.955 C 77.945 227.175,78.193 227.343,79.122 227.518 C 81.081 227.885,81.804 229.162,81.242 231.263 C 80.071 235.641,83.119 238.077,86.205 235.229 C 87.004 234.493,87.070 234.337,86.501 234.535 C 83.260 235.667,81.429 234.898,82.212 232.732 C 83.527 229.097,80.937 225.279,78.292 226.955 M106.917 227.824 C 106.863 230.299,105.356 231.122,102.463 230.255 C 98.823 229.164,96.827 232.650,99.440 235.537 C 100.426 236.626,100.640 236.253,99.934 234.676 C 98.848 232.251,99.846 230.613,101.928 231.405 C 105.471 232.752,108.733 230.526,107.464 227.627 L 106.947 226.446 106.917 227.824 M54.913 249.036 C 54.780 249.250,55.154 249.403,55.809 249.403 C 56.460 249.403,57.257 249.727,57.703 250.173 C 58.495 250.965,58.499 251.116,57.828 254.984 C 57.338 257.805,60.238 259.102,62.937 257.268 C 64.623 256.122,64.513 255.801,62.694 256.561 C 59.907 257.726,58.446 256.650,59.353 254.098 C 60.061 252.104,59.757 250.390,58.523 249.419 C 57.528 248.636,55.305 248.400,54.913 249.036 M97.612 250.167 C 96.610 250.751,95.865 252.520,95.892 254.252 L 95.917 255.831 96.413 254.240 C 97.446 250.932,99.072 250.331,100.306 252.801 C 102.081 256.352,106.520 256.475,106.520 252.973 C 106.520 252.309,106.454 252.326,105.794 253.165 C 104.337 255.018,102.703 254.573,101.371 251.962 C 100.347 249.955,99.045 249.333,97.612 250.167 M181.602 253.036 C 176.497 256.149,177.530 263.661,183.274 265.197 C 190.463 267.120,194.645 256.991,188.218 253.224 C 186.305 252.103,183.273 252.017,181.602 253.036 M84.406 255.643 C 85.304 257.218,84.489 258.648,82.449 259.074 C 78.047 259.994,77.246 260.558,77.710 262.408 C 77.997 263.552,78.807 264.280,80.638 265.037 L 82.094 265.640 80.533 264.189 C 78.228 262.048,78.564 260.913,81.620 260.522 C 85.460 260.032,87.252 257.366,85.100 255.344 C 83.922 254.237,83.667 254.346,84.406 255.643 M217.623 266.391 C 217.284 267.317,211.570 286.480,211.570 286.693 C 211.570 286.813,211.764 286.792,212.001 286.646 C 212.238 286.499,218.511 286.283,225.941 286.165 L 239.451 285.950 236.051 281.359 C 229.170 272.069,218.669 263.539,217.623 266.391 M156.290 347.861 C 153.462 348.003,150.652 348.145,150.046 348.176 C 149.170 348.220,149.066 348.303,149.536 348.578 C 150.294 349.020,175.846 349.392,179.982 349.021 L 183.104 348.741 180.900 348.469 C 177.851 348.094,166.314 347.477,163.636 347.545 C 162.424 347.577,159.118 347.719,156.290 347.861 " stroke="none" fill="#d5dcf5" fill-rule="evenodd"></path><path id="path2" d="M236.915 106.371 C 231.115 110.692,230.981 110.831,231.112 112.374 C 231.377 115.494,232.983 115.274,238.477 111.365 L 241.324 109.339 240.601 108.113 C 239.798 106.752,239.828 106.731,241.781 107.274 C 243.377 107.717,243.429 107.836,242.388 108.679 C 241.617 109.303,241.618 109.305,243.882 113.054 C 246.350 117.139,246.279 117.077,247.536 116.197 L 248.404 115.589 248.136 117.020 C 247.768 118.978,247.577 119.186,246.956 118.301 C 246.218 117.246,246.235 117.239,242.752 120.056 C 237.731 124.117,237.987 124.125,234.971 119.821 C 230.849 113.938,228.202 112.943,229.742 117.854 C 231.832 124.520,236.119 129.292,239.088 128.257 C 240.463 127.777,251.137 119.887,251.612 118.999 C 252.298 117.717,251.963 116.931,248.084 110.725 C 242.357 101.561,243.022 101.820,236.915 106.371 M82.041 160.070 C 77.888 172.958,61.407 174.761,56.161 162.902 C 55.302 160.960,55.466 160.983,51.240 162.202 C 34.730 166.963,22.699 181.269,18.057 201.659 C 16.489 208.548,14.165 225.880,14.736 226.422 C 14.895 226.571,16.315 226.430,34.851 224.412 C 50.458 222.712,49.587 222.758,49.587 223.646 C 49.587 224.247,52.506 224.432,53.181 223.874 C 53.239 223.827,53.528 220.915,53.824 217.404 C 54.120 213.892,54.874 206.061,55.499 200.000 C 57.234 183.204,56.863 180.509,52.234 176.270 L 50.138 174.350 49.813 176.604 C 49.394 179.506,50.032 180.716,51.983 180.716 C 53.306 180.716,53.694 181.206,52.679 181.595 C 49.795 182.702,47.922 180.654,48.273 176.779 C 48.579 173.405,47.839 172.748,45.232 174.077 C 43.538 174.942,43.312 174.759,44.507 173.487 C 45.651 172.269,45.347 172.168,39.990 171.974 C 34.595 171.779,34.342 171.273,39.460 170.912 C 49.342 170.215,56.882 175.694,58.113 184.467 C 58.434 186.755,58.339 188.634,57.519 196.168 C 56.352 206.889,54.393 222.956,54.174 223.600 C 54.065 223.919,54.491 224.060,55.567 224.064 C 56.703 224.069,56.970 224.165,56.566 224.426 C 56.263 224.622,55.592 224.785,55.075 224.788 C 54.395 224.792,54.026 225.072,53.737 225.803 L 53.338 226.814 53.299 225.791 C 53.265 224.906,50.269 224.535,49.353 225.302 C 49.325 225.325,49.036 227.741,48.709 230.670 C 46.181 253.365,47.314 268.188,51.778 270.825 C 53.316 271.733,53.158 271.741,75.298 269.609 C 79.417 269.212,85.154 268.786,99.541 267.810 L 108.540 267.200 108.458 262.985 C 108.376 258.760,107.065 236.939,106.678 233.352 C 106.475 231.473,106.456 231.447,105.519 231.804 C 104.867 232.051,103.949 232.028,102.617 231.730 C 99.674 231.071,98.703 232.393,100.119 235.130 C 100.893 236.626,100.623 236.766,99.408 235.499 C 96.847 232.825,98.203 229.656,101.715 230.111 C 106.216 230.694,106.208 230.701,107.424 225.076 C 109.692 214.589,109.296 203.346,106.418 196.465 C 105.905 195.239,105.746 195.137,104.401 195.172 C 101.733 195.242,100.626 193.448,101.575 190.591 C 102.424 188.036,101.815 186.822,99.604 186.663 C 98.273 186.567,98.089 186.464,98.458 186.020 C 99.585 184.661,102.254 185.674,103.496 187.933 C 105.942 192.379,106.597 193.230,107.385 192.980 C 108.077 192.760,108.109 192.801,107.666 193.335 C 107.235 193.854,107.352 194.502,108.495 197.943 C 109.227 200.146,109.826 202.357,109.826 202.857 C 109.826 204.196,110.112 204.339,118.357 207.120 C 125.734 209.608,125.928 209.652,126.111 208.876 C 126.476 207.332,130.843 176.267,130.712 176.149 C 130.518 175.974,89.655 160.514,89.388 160.514 C 89.336 160.514,89.543 161.111,89.848 161.840 L 90.402 163.167 89.370 162.441 C 86.517 160.434,82.357 159.088,82.041 160.070 M100.694 169.571 C 101.021 169.943,101.560 170.783,101.891 171.436 C 102.867 173.363,105.376 173.400,105.980 171.497 C 106.141 170.990,106.350 170.849,106.587 171.087 C 107.056 171.555,106.036 173.577,105.071 174.094 C 103.275 175.055,101.453 174.209,100.254 171.859 C 98.952 169.307,97.419 169.730,96.631 172.858 C 96.108 174.935,95.316 174.669,95.658 172.531 C 96.255 168.796,98.734 167.339,100.694 169.571 M337.073 171.510 C 333.913 171.950,333.589 174.356,336.591 175.097 C 342.083 176.453,357.043 177.246,358.053 176.235 C 358.631 175.657,358.619 173.312,358.035 172.526 C 357.123 171.300,343.374 170.634,337.073 171.510 M82.122 181.657 C 83.440 185.108,81.011 187.194,77.421 185.694 C 75.277 184.798,73.462 186.053,73.462 188.433 C 73.462 188.859,73.297 189.106,73.095 188.981 C 72.443 188.578,72.684 186.013,73.466 185.018 C 74.507 183.695,76.045 183.453,78.285 184.259 C 81.059 185.256,81.741 183.984,80.580 179.982 C 80.118 178.389,81.410 179.793,82.122 181.657 M38.408 187.375 C 39.812 190.090,37.891 192.964,35.206 192.167 C 32.275 191.296,31.969 191.275,31.038 191.885 C 30.350 192.336,30.119 192.807,30.119 193.764 C 30.119 195.088,29.630 195.475,29.240 194.460 C 28.170 191.670,31.195 188.897,34.021 190.078 C 37.232 191.419,38.323 189.875,36.872 186.042 C 36.455 184.942,37.715 186.035,38.408 187.375 M121.139 188.208 C 125.132 190.273,124.341 194.307,119.943 194.307 C 117.255 194.307,116.261 195.185,116.546 197.308 C 116.769 198.971,116.179 199.077,115.416 197.511 C 114.295 195.214,116.081 193.147,119.392 192.907 C 122.662 192.671,123.081 191.404,120.720 188.889 C 119.499 187.589,119.606 187.416,121.139 188.208 M103.018 191.489 C 102.718 193.087,103.252 193.939,104.552 193.939 L 105.433 193.939 104.705 192.562 C 103.386 190.067,103.296 190.009,103.018 191.489 M49.263 198.391 C 49.971 199.099,50.019 199.424,49.795 201.990 C 49.514 205.216,50.074 206.200,52.157 206.141 C 53.526 206.102,53.592 206.687,52.274 207.188 C 49.703 208.166,48.000 205.962,48.183 201.895 L 48.301 199.265 47.081 199.148 C 46.384 199.081,45.466 199.290,44.938 199.637 C 43.523 200.563,43.374 199.892,44.726 198.684 C 46.210 197.358,48.108 197.235,49.263 198.391 M75.823 199.292 C 77.903 201.371,75.348 204.082,71.434 203.948 C 67.876 203.826,67.103 205.171,69.322 207.623 C 70.154 208.542,69.662 208.806,68.516 208.056 C 64.868 205.665,66.387 202.102,70.876 202.520 C 74.078 202.817,75.504 201.963,75.177 199.943 C 74.951 198.550,75.016 198.484,75.823 199.292 M101.667 207.096 C 102.549 209.627,99.881 212.005,97.044 211.217 C 93.767 210.307,92.703 211.409,94.009 214.359 C 94.829 216.215,94.015 216.210,92.798 214.353 C 90.838 211.362,92.547 209.191,96.578 209.548 C 99.885 209.841,100.643 209.425,100.643 207.320 C 100.643 205.794,101.172 205.679,101.667 207.096 M33.976 213.215 C 33.976 216.837,31.644 218.008,29.201 215.611 C 27.322 213.767,26.302 213.757,25.081 215.573 L 24.242 216.821 24.242 215.648 C 24.242 212.602,27.511 211.714,29.759 214.149 C 31.733 216.288,33.058 215.527,33.058 212.256 C 33.058 211.002,33.150 210.781,33.517 211.148 C 33.770 211.400,33.976 212.330,33.976 213.215 M61.767 224.012 C 62.240 224.593,62.908 225.585,63.252 226.216 C 64.081 227.738,65.684 227.798,67.019 226.358 C 68.225 225.058,68.402 226.327,67.223 227.825 C 65.614 229.870,63.352 229.388,61.641 226.634 C 60.001 223.997,58.416 224.409,57.811 227.631 C 57.481 229.393,56.933 229.484,56.933 227.777 C 56.933 223.841,59.807 221.603,61.767 224.012 M81.408 227.281 C 82.888 228.480,83.123 229.411,82.605 232.018 C 81.988 235.123,83.152 235.974,86.003 234.500 C 87.502 233.725,87.700 234.054,86.438 235.224 C 83.333 238.103,79.744 235.858,80.952 231.792 C 81.776 229.017,81.056 227.748,78.651 227.737 C 77.592 227.733,77.479 227.652,77.870 227.181 C 78.483 226.441,80.440 226.497,81.408 227.281 M57.773 248.700 C 59.206 249.353,60.001 251.065,59.695 252.839 C 59.028 256.701,59.743 257.329,63.545 256.221 C 64.410 255.969,64.394 256.018,63.263 257.086 C 60.398 259.792,56.758 257.571,57.895 253.811 C 58.722 251.074,58.098 249.866,55.625 249.412 C 54.210 249.153,54.199 249.138,55.096 248.747 C 56.294 248.226,56.718 248.219,57.773 248.700 M100.527 250.569 C 100.995 251.008,101.377 251.565,101.377 251.805 C 101.377 253.806,104.166 254.774,105.569 253.260 C 106.625 252.121,107.013 252.089,106.686 253.168 C 105.617 256.692,101.995 256.502,100.137 252.824 C 98.986 250.545,97.370 251.099,96.633 254.025 C 96.082 256.211,95.295 255.749,95.680 253.466 C 96.211 250.323,98.689 248.842,100.527 250.569 M84.648 254.774 C 87.869 256.009,85.718 260.110,81.543 260.696 C 78.742 261.089,78.402 262.731,80.794 264.313 C 82.537 265.467,82.494 265.814,80.681 265.216 C 76.253 263.755,76.572 259.782,81.167 259.173 C 84.471 258.734,85.367 257.716,84.287 255.627 C 83.692 254.477,83.718 254.416,84.648 254.774 " stroke="none" fill="#fbc580" fill-rule="evenodd"></path><path id="path3" d="M275.509 80.592 C 274.646 81.632,275.398 82.241,280.703 84.794 C 293.800 91.096,300.120 92.324,297.876 88.132 C 296.818 86.154,276.561 79.325,275.509 80.592 M93.022 110.376 C 93.026 111.185,93.101 111.472,93.189 111.015 C 93.277 110.558,93.274 109.897,93.182 109.546 C 93.090 109.195,93.018 109.568,93.022 110.376 M76.118 114.968 C 76.118 115.675,76.194 115.964,76.286 115.611 C 76.379 115.257,76.379 114.679,76.286 114.325 C 76.194 113.972,76.118 114.261,76.118 114.968 M85.032 116.866 C 82.321 118.365,81.778 120.785,83.775 122.465 C 86.957 125.143,93.189 122.407,91.862 118.915 C 91.087 116.876,87.149 115.695,85.032 116.866 M93.015 117.906 C 93.015 118.613,93.090 118.903,93.182 118.549 C 93.275 118.196,93.275 117.617,93.182 117.264 C 93.090 116.910,93.015 117.199,93.015 117.906 M59.994 117.942 C 59.354 118.127,58.403 118.786,57.882 119.406 C 54.567 123.345,61.877 126.954,65.610 123.221 C 68.527 120.303,64.597 116.609,59.994 117.942 M77.595 121.763 C 77.599 122.571,77.674 122.858,77.762 122.402 C 77.850 121.945,77.847 121.284,77.755 120.932 C 77.663 120.581,77.591 120.955,77.595 121.763 M76.500 122.681 C 76.500 123.590,76.572 123.962,76.660 123.508 C 76.747 123.053,76.747 122.309,76.660 121.855 C 76.572 121.400,76.500 121.772,76.500 122.681 M48.074 122.590 C 48.050 122.741,48.050 122.989,48.074 123.140 C 48.098 123.292,47.942 123.416,47.729 123.416 C 47.515 123.416,47.435 123.570,47.551 123.758 C 47.667 123.946,47.594 124.204,47.389 124.331 C 47.184 124.457,47.016 124.739,47.016 124.956 C 47.016 125.174,47.321 124.957,47.695 124.476 C 48.069 123.994,48.372 123.310,48.368 122.957 C 48.362 122.318,48.157 122.062,48.074 122.590 M70.728 128.169 C 69.280 129.681,70.074 131.021,72.819 131.695 C 74.106 132.012,74.256 130.181,73.099 128.283 C 72.206 126.820,72.029 126.811,70.728 128.169 M69.054 132.129 C 69.054 133.913,72.006 135.196,73.095 133.884 C 73.484 133.415,73.386 133.333,72.433 133.333 C 71.765 133.333,70.859 132.950,70.184 132.382 C 69.163 131.523,69.054 131.498,69.054 132.129 M160.375 134.829 C 160.505 135.522,160.742 136.232,160.902 136.409 C 161.061 136.585,161.054 136.117,160.885 135.369 C 160.491 133.622,160.064 133.170,160.375 134.829 M253.673 152.525 C 252.216 154.833,250.237 175.324,251.381 176.273 C 252.371 177.095,253.910 176.623,254.254 175.390 C 257.061 165.355,258.652 153.193,257.289 152.196 C 256.191 151.393,254.278 151.567,253.673 152.525 M157.025 158.496 L 155.923 159.015 157.025 158.799 C 157.631 158.680,158.284 158.439,158.476 158.263 C 158.999 157.783,158.298 157.895,157.025 158.496 M289.440 188.613 C 289.176 188.931,289.141 189.164,289.356 189.164 C 289.924 189.164,290.180 190.149,289.932 191.385 C 289.648 192.807,288.833 191.869,288.642 189.900 C 288.415 187.556,287.416 189.498,286.724 193.628 C 282.931 216.260,282.919 215.858,287.367 215.481 C 289.842 215.271,296.649 214.130,303.214 212.824 C 308.596 211.754,308.804 211.136,305.731 205.365 C 299.282 193.252,291.894 185.656,289.440 188.613 M295.103 198.469 C 296.736 200.253,299.134 203.202,300.432 205.021 C 302.771 208.300,302.804 208.328,304.197 208.195 C 305.820 208.041,305.777 207.967,305.009 209.586 C 304.276 211.131,304.130 211.132,303.214 209.600 L 302.479 208.372 296.786 209.247 C 288.886 210.462,288.200 210.699,287.971 212.292 L 287.787 213.564 286.505 212.417 L 285.223 211.269 286.626 211.006 C 288.348 210.683,288.182 211.251,288.866 203.306 C 289.179 199.669,289.536 195.789,289.658 194.682 L 289.881 192.669 291.008 193.947 C 291.627 194.650,293.470 196.685,295.103 198.469 M182.638 199.816 C 182.638 200.523,182.714 200.813,182.806 200.459 C 182.898 200.106,182.898 199.527,182.806 199.174 C 182.714 198.820,182.638 199.109,182.638 199.816 M154.917 214.034 C 155.374 214.122,156.035 214.118,156.386 214.026 C 156.737 213.935,156.364 213.863,155.556 213.867 C 154.747 213.871,154.460 213.946,154.917 214.034 M160.790 214.407 C 161.446 214.489,162.521 214.489,163.177 214.407 C 163.834 214.326,163.297 214.259,161.983 214.259 C 160.670 214.259,160.133 214.326,160.790 214.407 M174.197 214.395 C 174.550 214.487,175.129 214.487,175.482 214.395 C 175.836 214.302,175.546 214.227,174.839 214.227 C 174.132 214.227,173.843 214.302,174.197 214.395 M50.964 224.318 C 51.419 224.406,52.163 224.406,52.617 224.318 C 53.072 224.230,52.700 224.159,51.791 224.159 C 50.882 224.159,50.510 224.230,50.964 224.318 M42.149 224.685 C 42.603 224.773,43.347 224.773,43.802 224.685 C 44.256 224.598,43.884 224.526,42.975 224.526 C 42.066 224.526,41.694 224.598,42.149 224.685 M34.986 225.047 C 35.340 225.139,35.918 225.139,36.272 225.047 C 36.625 224.954,36.336 224.879,35.629 224.879 C 34.922 224.879,34.633 224.954,34.986 225.047 M40.496 225.781 C 40.849 225.874,41.428 225.874,41.781 225.781 C 42.135 225.689,41.846 225.613,41.139 225.613 C 40.432 225.613,40.142 225.689,40.496 225.781 M106.605 232.140 C 106.605 232.847,106.681 233.136,106.773 232.782 C 106.865 232.429,106.865 231.850,106.773 231.497 C 106.681 231.143,106.605 231.433,106.605 232.140 M107.340 243.526 C 107.340 244.233,107.415 244.522,107.508 244.169 C 107.600 243.815,107.600 243.237,107.508 242.883 C 107.415 242.530,107.340 242.819,107.340 243.526 M107.707 249.036 C 107.707 249.743,107.782 250.032,107.875 249.679 C 107.967 249.325,107.967 248.747,107.875 248.393 C 107.782 248.039,107.707 248.329,107.707 249.036 M133.941 266.236 C 133.050 267.221,133.180 267.408,134.711 267.343 L 136.088 267.284 134.861 267.133 C 133.674 266.987,133.654 266.959,134.275 266.274 C 134.628 265.884,134.834 265.565,134.733 265.565 C 134.632 265.565,134.276 265.867,133.941 266.236 M108.729 266.758 C 108.725 267.280,109.019 267.390,110.285 267.343 C 111.772 267.286,111.786 267.276,110.563 267.129 C 109.858 267.044,109.158 266.781,109.008 266.545 C 108.829 266.263,108.733 266.337,108.729 266.758 M143.898 267.661 C 144.355 267.749,145.016 267.746,145.367 267.654 C 145.718 267.562,145.344 267.490,144.536 267.494 C 143.728 267.498,143.441 267.573,143.898 267.661 M140.312 276.520 C 140.615 276.674,143.095 276.699,145.822 276.575 L 150.781 276.350 145.271 276.295 C 142.241 276.264,140.009 276.365,140.312 276.520 M142.149 280.992 C 142.149 281.194,142.387 281.359,142.678 281.359 C 142.969 281.359,143.309 281.194,143.434 280.992 C 143.559 280.790,143.321 280.624,142.905 280.624 C 142.489 280.624,142.149 280.790,142.149 280.992 M148.301 281.257 C 148.958 281.339,150.032 281.339,150.689 281.257 C 151.345 281.176,150.808 281.109,149.495 281.109 C 148.182 281.109,147.645 281.176,148.301 281.257 M145.002 284.564 C 145.662 284.645,146.654 284.644,147.206 284.560 C 147.758 284.476,147.218 284.409,146.006 284.411 C 144.793 284.413,144.342 284.482,145.002 284.564 M126.819 285.296 C 127.377 285.380,128.203 285.378,128.655 285.291 C 129.107 285.204,128.650 285.134,127.640 285.137 C 126.630 285.140,126.260 285.211,126.819 285.296 M43.445 301.832 C 44.411 301.907,45.899 301.907,46.751 301.829 C 47.604 301.752,46.814 301.690,44.995 301.691 C 43.177 301.693,42.480 301.756,43.445 301.832 " stroke="none" fill="#e49c9d" fill-rule="evenodd"></path><path id="path4" d="M57.868 89.716 C 57.788 89.968,57.452 91.497,57.120 93.113 C 55.273 102.100,53.311 107.730,50.531 112.028 C 49.608 113.455,48.852 114.834,48.852 115.090 C 48.852 115.347,48.003 115.863,46.966 116.236 C 42.058 118.001,40.402 121.762,42.236 126.982 C 43.061 129.327,44.434 130.980,46.177 131.726 C 47.726 132.388,47.843 132.369,47.564 131.489 C 47.274 130.576,47.695 128.481,48.115 128.741 C 48.283 128.845,48.532 129.590,48.669 130.397 C 48.842 131.420,49.102 131.864,49.527 131.865 C 50.042 131.866,50.562 134.195,52.831 146.649 C 55.782 162.846,56.016 163.629,58.800 166.572 C 65.366 173.515,76.854 171.614,80.975 162.903 C 82.350 159.998,82.510 156.934,81.572 151.474 C 80.563 145.599,80.525 145.843,82.693 144.372 C 89.527 139.734,92.967 129.892,93.032 114.784 C 93.063 107.702,92.296 96.602,91.776 96.602 C 91.602 96.602,91.460 96.856,91.460 97.166 C 91.460 101.037,86.934 99.750,81.534 94.344 L 79.155 91.962 77.135 92.607 C 72.537 94.074,65.113 93.161,60.347 90.541 C 58.738 89.656,57.967 89.400,57.868 89.716 M84.319 98.960 C 85.289 99.669,85.053 99.795,82.180 100.099 C 80.060 100.324,79.727 100.282,79.906 99.814 C 80.384 98.570,83.073 98.049,84.319 98.960 M65.219 104.837 C 65.899 105.335,65.882 105.369,64.830 105.602 C 64.224 105.736,63.249 105.997,62.663 106.183 C 61.162 106.658,60.606 106.603,60.606 105.981 C 60.606 104.685,63.896 103.869,65.219 104.837 M76.923 106.979 C 78.199 121.027,77.662 127.797,75.420 125.936 C 74.740 125.372,74.810 124.957,75.574 125.018 C 76.175 125.066,76.208 124.398,76.078 114.692 C 75.942 104.541,76.357 100.749,76.923 106.979 M84.101 107.230 C 84.643 108.243,84.571 109.091,83.943 109.091 C 83.275 109.091,82.518 107.747,82.788 107.042 C 83.070 106.309,83.653 106.393,84.101 107.230 M62.437 108.832 C 62.885 109.627,62.897 109.884,62.504 110.272 C 61.897 110.871,60.973 109.766,60.973 108.439 C 60.973 107.331,61.701 107.527,62.437 108.832 M90.275 117.173 C 91.915 118.173,92.414 119.567,91.683 121.102 C 89.897 124.846,82.645 124.076,82.645 120.142 C 82.645 117.078,87.208 115.303,90.275 117.173 M64.282 118.134 C 65.101 118.461,65.930 119.029,66.126 119.396 C 68.272 123.405,61.604 126.750,58.061 123.441 C 54.803 120.397,59.635 116.275,64.282 118.134 M47.894 121.220 C 48.629 123.057,48.630 123.382,47.901 124.187 C 47.305 124.845,47.473 126.354,48.142 126.354 C 48.331 126.354,48.485 126.602,48.485 126.905 C 48.485 127.743,47.132 127.563,46.485 126.640 C 45.752 125.593,45.750 123.632,46.483 122.899 C 46.893 122.489,46.984 121.968,46.809 121.037 C 46.476 119.261,47.156 119.376,47.894 121.220 M150.383 125.383 C 150.063 126.216,150.762 129.950,152.262 135.423 C 153.676 140.584,153.845 141.975,152.788 139.761 C 152.403 138.953,151.027 136.061,149.731 133.333 C 143.837 120.928,143.361 125.912,148.825 142.823 C 150.704 148.639,150.708 148.638,145.103 144.077 C 143.377 142.673,141.781 142.057,141.781 142.794 C 141.781 143.775,146.896 151.623,151.261 157.339 C 152.536 159.008,152.791 159.559,152.403 159.799 C 151.996 160.050,152.343 161.918,154.251 169.769 C 155.543 175.083,157.129 181.621,157.775 184.298 C 158.421 186.974,158.828 189.164,158.678 189.164 C 158.529 189.164,152.104 186.877,144.400 184.082 C 136.697 181.287,130.391 179.180,130.387 179.399 C 130.383 179.618,129.404 186.492,128.213 194.673 C 127.021 202.854,126.078 209.580,126.119 209.620 C 126.292 209.793,139.480 211.973,144.353 212.634 C 158.053 214.493,176.249 214.994,179.063 213.589 C 184.266 210.992,184.007 198.976,178.286 177.594 C 176.945 172.584,171.714 155.855,171.365 155.459 C 171.298 155.384,160.233 157.965,156.657 158.890 C 154.344 159.488,157.886 158.121,164.371 155.911 C 168.411 154.535,171.760 153.381,171.812 153.347 C 172.090 153.165,162.324 128.960,161.403 127.548 C 160.094 125.540,159.717 128.698,160.639 133.953 C 160.894 135.404,160.970 136.510,160.809 136.410 C 160.647 136.310,160.514 135.887,160.514 135.470 C 160.514 134.419,158.101 127.304,157.362 126.176 C 155.527 123.375,155.088 126.175,156.273 133.123 C 156.788 136.139,157.200 138.701,157.189 138.817 C 157.178 138.932,156.464 137.043,155.602 134.619 C 153.021 127.361,150.998 123.781,150.383 125.383 M68.884 128.352 L 69.484 129.615 70.593 128.352 C 71.202 127.657,71.852 127.089,72.036 127.089 C 72.649 127.089,73.826 129.459,73.828 130.695 C 73.829 132.031,74.201 132.056,76.526 130.872 C 77.101 130.580,77.679 130.449,77.811 130.581 C 78.226 130.996,75.355 133.333,74.431 133.333 C 73.947 133.333,73.346 133.581,73.095 133.884 C 71.960 135.251,69.054 133.896,69.054 132.000 C 69.054 131.545,68.893 131.073,68.697 130.952 C 68.219 130.657,67.494 127.901,67.774 127.448 C 68.116 126.894,68.240 126.995,68.884 128.352 M82.645 143.176 C 82.645 143.556,80.203 145.862,78.788 146.818 C 73.481 150.404,65.255 149.706,60.473 145.264 C 58.478 143.412,58.930 143.376,62.526 145.102 C 68.915 148.168,74.206 147.849,80.285 144.033 C 82.162 142.855,82.645 142.679,82.645 143.176 M257.936 155.005 C 257.936 155.712,258.012 156.001,258.104 155.647 C 258.197 155.294,258.197 154.715,258.104 154.362 C 258.012 154.008,257.936 154.298,257.936 155.005 M250.982 170.799 C 250.982 171.910,251.051 172.365,251.135 171.809 C 251.220 171.253,251.220 170.344,251.135 169.789 C 251.051 169.233,250.982 169.688,250.982 170.799 M344.276 171.072 C 345.648 171.142,347.797 171.142,349.051 171.070 C 350.305 170.999,349.183 170.941,346.556 170.942 C 343.930 170.942,342.904 171.001,344.276 171.072 M351.070 176.948 C 352.341 177.020,354.324 177.020,355.478 176.947 C 356.632 176.874,355.592 176.815,353.168 176.816 C 350.744 176.817,349.800 176.876,351.070 176.948 M98.531 186.479 C 98.884 186.571,99.463 186.571,99.816 186.479 C 100.170 186.387,99.881 186.311,99.174 186.311 C 98.466 186.311,98.177 186.387,98.531 186.479 M38.653 189.164 C 38.653 189.871,38.728 190.161,38.821 189.807 C 38.913 189.454,38.913 188.875,38.821 188.522 C 38.728 188.168,38.653 188.457,38.653 189.164 M112.764 205.612 C 112.764 206.432,114.357 207.107,118.457 208.024 C 124.387 209.349,124.448 209.232,118.825 207.314 C 112.485 205.152,112.764 205.230,112.764 205.612 M100.643 207.163 C 100.643 207.769,100.707 208.264,100.785 208.264 C 100.863 208.264,101.000 207.769,101.088 207.163 C 101.177 206.556,101.114 206.061,100.946 206.061 C 100.779 206.061,100.643 206.556,100.643 207.163 M38.384 224.089 C 32.508 224.813,30.998 225.080,33.425 224.965 C 35.344 224.875,39.766 224.690,43.251 224.556 C 49.074 224.331,49.587 224.256,49.587 223.634 C 49.587 222.754,49.039 222.776,38.384 224.089 M44.261 225.535 C 42.443 225.684,35.884 226.021,29.686 226.284 L 18.416 226.763 18.211 228.441 C 18.099 229.364,17.679 232.764,17.279 235.996 C 14.087 261.767,16.363 278.774,24.593 290.663 C 26.264 293.076,30.769 297.938,30.957 297.532 C 31.002 297.437,31.828 297.903,32.795 298.568 C 36.745 301.286,37.181 301.380,45.730 301.356 C 55.405 301.330,66.095 299.826,82.195 296.227 C 90.028 294.476,90.725 294.265,90.725 293.650 C 90.725 293.355,90.791 293.113,90.870 293.113 C 94.655 293.113,108.895 289.793,119.232 286.501 C 122.820 285.358,121.993 285.432,140.281 284.617 C 153.096 284.047,154.295 283.186,144.545 281.559 C 142.529 281.223,140.826 280.893,140.759 280.826 C 140.692 280.760,143.416 280.786,146.811 280.885 C 156.976 281.183,156.682 279.310,146.303 277.656 C 139.172 276.519,139.206 276.438,146.924 276.195 C 159.885 275.786,159.281 274.286,145.676 273.099 C 137.305 272.369,137.332 272.235,146.006 271.451 C 161.275 270.071,158.839 268.101,141.164 267.536 C 136.857 267.399,133.333 267.148,133.333 266.979 C 133.333 266.573,136.072 264.589,137.925 263.653 C 140.833 262.183,141.806 260.790,139.923 260.790 C 137.587 260.790,121.309 265.269,120.661 266.090 C 120.159 266.727,118.030 266.975,110.927 267.223 C 103.878 267.470,83.089 268.862,75.298 269.610 C 52.972 271.752,53.318 271.735,51.778 270.825 C 48.596 268.945,47.559 263.958,47.592 250.689 C 47.616 241.077,47.781 238.503,49.098 227.089 C 49.353 224.878,49.952 225.071,44.261 225.535 " stroke="none" fill="#ffafa7" fill-rule="evenodd"></path><path id="path5" d="M369.146 68.687 C 368.390 68.929,368.357 68.986,368.962 69.012 C 369.366 69.029,369.945 68.883,370.248 68.687 C 370.892 68.271,370.445 68.271,369.146 68.687 M70.805 93.195 C 71.466 93.277,72.457 93.276,73.009 93.192 C 73.561 93.108,73.021 93.041,71.809 93.043 C 70.597 93.045,70.145 93.114,70.805 93.195 M76.104 108.173 L 76.152 111.478 76.391 108.724 C 76.522 107.208,76.501 105.721,76.343 105.418 C 76.185 105.115,76.077 106.354,76.104 108.173 M77.220 116.804 C 77.220 117.511,77.296 117.801,77.388 117.447 C 77.481 117.094,77.481 116.515,77.388 116.162 C 77.296 115.808,77.220 116.097,77.220 116.804 M47.896 135.829 C 48.162 143.880,48.407 146.115,48.887 144.886 C 49.662 142.904,48.853 129.485,47.905 128.610 C 47.764 128.481,47.760 131.729,47.896 135.829 M82.363 156.474 C 82.363 157.181,82.438 157.470,82.531 157.117 C 82.623 156.763,82.623 156.185,82.531 155.831 C 82.438 155.478,82.363 155.767,82.363 156.474 M16.529 169.812 C 16.529 169.875,17.066 170.412,17.723 171.006 L 18.916 172.084 17.838 170.891 C 16.832 169.778,16.529 169.528,16.529 169.812 M235.648 197.224 C 234.925 198.023,234.887 198.532,235.270 202.212 C 235.525 204.666,235.489 204.850,234.550 205.967 C 232.603 208.280,231.193 208.214,224.813 205.508 C 220.729 203.776,216.070 204.570,213.223 207.484 C 212.158 208.574,212.011 208.612,208.815 208.629 C 184.397 208.761,152.461 224.313,115.710 253.969 C 107.830 260.327,108.399 259.413,108.964 264.818 L 109.204 267.117 114.556 266.850 C 118.643 266.645,120.002 266.453,120.308 266.035 C 120.768 265.405,132.973 261.822,137.632 260.949 C 142.742 259.991,142.669 261.158,137.427 264.203 C 132.828 266.876,132.840 266.897,139.115 267.176 C 142.097 267.308,145.970 267.516,147.721 267.638 L 150.906 267.859 151.649 265.334 C 152.058 263.946,154.240 256.198,156.498 248.118 C 158.756 240.037,160.679 233.343,160.773 233.242 C 160.912 233.091,221.560 231.402,221.721 231.544 C 221.749 231.569,219.967 237.787,217.762 245.362 C 215.557 252.937,213.677 259.549,213.585 260.054 C 213.494 260.560,213.092 262.107,212.693 263.492 L 211.967 266.010 212.779 265.770 C 213.225 265.638,214.527 265.434,215.671 265.316 C 217.685 265.108,217.758 265.062,217.983 263.864 C 218.111 263.183,218.414 262.629,218.658 262.632 C 219.450 262.642,224.241 266.879,227.227 270.209 C 231.358 274.816,239.486 285.222,239.486 285.904 C 239.486 286.030,236.635 286.134,233.150 286.135 C 224.363 286.135,211.965 286.793,208.448 287.445 C 204.582 288.161,205.483 288.085,145.487 292.749 C 85.348 297.423,91.093 297.113,91.093 295.684 C 91.093 294.340,91.614 294.327,85.011 295.841 C 62.216 301.069,42.727 303.184,36.858 301.067 C 34.992 300.394,34.907 300.571,34.899 305.128 C 34.870 323.075,41.842 335.214,54.483 339.223 C 64.705 342.465,86.664 342.734,125.580 340.093 C 131.720 339.676,137.070 339.421,137.468 339.525 C 137.867 339.629,138.463 339.571,138.793 339.396 C 139.124 339.220,142.039 338.888,145.271 338.658 C 151.962 338.181,161.188 337.474,171.350 336.660 C 208.578 333.677,225.972 332.996,238.384 334.035 C 242.323 334.365,251.249 335.053,258.219 335.564 C 269.356 336.381,270.957 336.575,271.442 337.165 C 271.949 337.782,273.019 337.855,284.848 338.079 C 296.861 338.306,301.059 338.511,323.069 339.947 C 333.162 340.605,349.553 341.584,350.623 341.592 C 351.314 341.597,351.422 341.258,351.818 337.833 C 352.362 333.136,352.367 332.770,351.877 333.517 C 351.613 333.921,351.565 333.773,351.698 332.966 C 351.799 332.360,352.722 325.008,353.750 316.629 C 354.778 308.249,355.800 301.059,356.021 300.651 C 356.346 300.051,357.722 291.843,357.752 290.329 C 357.757 290.072,356.369 289.914,353.811 289.882 C 351.639 289.854,344.490 289.585,337.925 289.284 C 331.359 288.983,320.946 288.562,314.784 288.349 C 308.623 288.137,302.376 287.867,300.904 287.750 L 298.226 287.538 294.606 280.316 C 278.341 247.865,258.226 225.196,236.280 214.586 C 233.284 213.138,232.897 212.853,233.650 212.652 C 237.708 211.567,240.931 207.311,240.947 203.016 C 240.963 198.701,237.620 195.046,235.648 197.224 M110.143 206.042 C 110.217 206.962,110.382 207.796,110.511 207.897 C 110.639 207.998,110.922 208.403,111.139 208.797 C 111.357 209.190,111.948 209.623,112.454 209.758 C 114.338 210.262,113.019 205.874,110.981 204.856 L 110.009 204.371 110.143 206.042 M113.896 208.540 C 114.072 209.298,114.220 210.024,114.224 210.154 C 114.229 210.283,114.469 210.480,114.758 210.591 C 115.359 210.822,115.157 208.450,114.505 207.622 C 113.832 206.767,113.574 207.156,113.896 208.540 M116.437 208.106 C 116.437 208.222,116.960 209.089,117.599 210.035 C 118.237 210.980,118.783 211.790,118.812 211.835 C 118.991 212.115,129.888 214.412,130.073 214.209 C 130.199 214.071,130.389 213.261,130.495 212.410 C 130.710 210.695,130.730 210.711,127.824 210.273 C 126.915 210.135,124.046 209.545,121.448 208.960 C 116.190 207.777,116.437 207.819,116.437 208.106 M20.753 226.263 C 20.622 226.475,20.962 226.628,21.558 226.624 C 22.359 226.620,22.466 226.539,22.039 226.263 C 21.333 225.807,21.035 225.807,20.753 226.263 M143.251 271.933 L 139.394 272.316 144.353 272.737 C 149.357 273.163,149.842 273.090,149.857 271.901 C 149.863 271.371,148.865 271.375,143.251 271.933 M144.904 277.154 C 148.246 277.787,148.393 277.786,148.393 277.135 C 148.393 276.686,147.830 276.592,145.363 276.625 L 142.332 276.666 144.904 277.154 M132.782 285.112 L 123.600 285.442 118.274 287.034 C 115.344 287.910,111.006 289.168,108.634 289.831 C 106.261 290.493,104.366 291.081,104.422 291.138 C 104.644 291.360,145.661 285.292,145.987 284.989 C 146.374 284.629,146.102 284.632,132.782 285.112 " stroke="none" fill="#6f35a5" fill-rule="evenodd"></path><path id="path6" d="M331.921 118.982 C 326.834 119.513,327.759 122.740,333.134 123.209 C 342.642 124.038,346.724 130.117,341.545 135.735 C 335.410 142.391,324.570 133.339,329.672 125.821 C 331.441 123.215,330.002 122.522,327.825 124.932 C 320.155 133.422,329.558 145.218,340.658 141.030 C 351.621 136.894,348.725 121.243,336.616 119.189 C 335.821 119.055,334.922 118.902,334.619 118.851 C 334.316 118.800,333.102 118.859,331.921 118.982 M194.674 149.583 C 191.692 150.657,193.344 153.519,196.952 153.530 C 207.481 153.563,212.115 163.360,203.683 167.762 C 196.797 171.356,189.073 161.126,194.395 155.461 C 195.148 154.660,195.155 154.594,194.534 153.987 C 193.672 153.143,190.666 156.239,189.756 158.908 C 185.370 171.781,206.168 177.651,211.442 165.028 C 214.784 157.030,203.318 146.469,194.674 149.583 " stroke="none" fill="#7cabff" fill-rule="evenodd"></path><path id="path7" d="M352.984 46.577 C 347.556 49.314,335.893 56.850,322.065 66.555 L 317.409 69.823 317.937 70.816 C 318.228 71.362,319.800 74.702,321.432 78.237 C 324.354 84.570,327.410 90.528,329.674 94.306 L 330.829 96.233 331.289 94.122 C 332.406 88.994,337.271 75.298,337.976 75.298 C 338.882 75.298,335.832 85.985,332.795 93.450 L 331.317 97.082 332.594 98.641 C 333.663 99.945,336.554 101.693,335.904 100.642 C 335.789 100.456,336.365 99.962,337.183 99.544 C 340.091 98.061,374.304 76.785,375.369 75.797 C 375.459 75.714,374.805 74.163,373.916 72.350 L 372.301 69.054 370.176 69.054 C 367.737 69.054,354.292 67.730,352.011 67.266 L 350.486 66.955 348.916 70.961 C 348.053 73.164,347.225 75.042,347.076 75.134 C 346.777 75.319,323.596 71.503,320.165 70.704 C 313.392 69.128,321.482 69.904,339.210 72.530 C 342.645 73.039,345.643 73.457,345.872 73.459 C 346.102 73.460,346.833 72.098,347.496 70.432 C 352.224 58.549,357.097 47.383,357.555 47.383 C 357.857 47.383,355.377 54.459,352.220 62.607 C 351.441 64.617,350.840 66.290,350.884 66.324 C 350.928 66.359,354.022 66.666,357.759 67.007 C 361.497 67.348,366.208 67.845,368.228 68.111 C 370.248 68.377,371.915 68.574,371.933 68.549 C 372.005 68.444,365.662 56.878,363.983 54.055 C 362.982 52.371,362.256 50.842,362.370 50.657 C 362.484 50.472,362.431 50.321,362.251 50.321 C 362.071 50.321,361.374 49.536,360.702 48.577 C 357.639 44.204,357.673 44.213,352.984 46.577 M336.920 125.149 C 337.478 125.233,338.304 125.231,338.756 125.144 C 339.208 125.057,338.751 124.988,337.741 124.990 C 336.731 124.993,336.361 125.064,336.920 125.149 M159.865 128.926 C 159.865 129.633,159.940 129.922,160.033 129.568 C 160.125 129.215,160.125 128.636,160.033 128.283 C 159.940 127.929,159.865 128.219,159.865 128.926 M155.237 129.693 C 155.109 130.332,155.024 131.288,155.048 131.818 C 155.071 132.348,155.239 131.889,155.420 130.798 C 155.773 128.670,155.623 127.763,155.237 129.693 M339.674 149.020 C 340.131 149.108,340.792 149.105,341.143 149.013 C 341.494 148.921,341.120 148.849,340.312 148.853 C 339.504 148.857,339.217 148.932,339.674 149.020 M257.202 171.534 C 257.202 172.241,257.277 172.530,257.370 172.176 C 257.462 171.823,257.462 171.244,257.370 170.891 C 257.277 170.537,257.202 170.826,257.202 171.534 M348.335 177.135 C 348.242 177.287,349.787 177.384,351.769 177.352 C 355.421 177.292,355.076 177.148,350.836 176.962 C 349.554 176.906,348.429 176.983,348.335 177.135 M203.219 177.674 C 203.777 177.758,204.604 177.756,205.056 177.669 C 205.507 177.582,205.051 177.513,204.040 177.516 C 203.030 177.518,202.661 177.590,203.219 177.674 M256.849 179.982 C 256.849 180.891,256.921 181.263,257.009 180.808 C 257.096 180.354,257.096 179.610,257.009 179.155 C 256.921 178.701,256.849 179.073,256.849 179.982 M354.729 182.077 C 355.184 182.165,355.927 182.165,356.382 182.077 C 356.837 181.990,356.465 181.918,355.556 181.918 C 354.646 181.918,354.275 181.990,354.729 182.077 M361.345 182.078 C 361.802 182.166,362.463 182.162,362.814 182.071 C 363.165 181.979,362.792 181.907,361.983 181.911 C 361.175 181.915,360.888 181.990,361.345 182.078 M302.296 197.727 C 302.296 197.791,302.833 198.328,303.489 198.921 L 304.683 200.000 303.604 198.806 C 302.599 197.693,302.296 197.444,302.296 197.727 M187.413 205.693 C 187.413 206.400,187.489 206.690,187.581 206.336 C 187.673 205.983,187.673 205.404,187.581 205.051 C 187.489 204.697,187.413 204.986,187.413 205.693 M241.782 208.815 C 241.786 209.624,241.862 209.911,241.949 209.454 C 242.037 208.997,242.034 208.336,241.942 207.985 C 241.850 207.634,241.778 208.007,241.782 208.815 M209.463 208.528 C 210.022 208.612,210.848 208.610,211.300 208.523 C 211.752 208.436,211.295 208.367,210.285 208.370 C 209.275 208.372,208.905 208.444,209.463 208.528 M113.504 211.662 C 113.509 212.330,113.578 212.383,113.866 211.938 C 114.326 211.225,114.326 210.836,113.866 210.836 C 113.664 210.836,113.501 211.208,113.504 211.662 M114.338 216.162 C 114.341 217.172,114.412 217.541,114.497 216.983 C 114.581 216.425,114.579 215.598,114.492 215.146 C 114.405 214.695,114.336 215.152,114.338 216.162 M113.561 220.202 C 113.555 220.606,113.692 221.267,113.866 221.671 C 114.268 222.607,114.268 221.642,113.866 220.386 C 113.630 219.647,113.570 219.611,113.561 220.202 M184.302 252.234 C 184.759 252.322,185.420 252.319,185.771 252.227 C 186.122 252.135,185.748 252.063,184.940 252.067 C 184.132 252.071,183.845 252.146,184.302 252.234 M191.453 258.953 C 191.453 259.660,191.529 259.949,191.621 259.596 C 191.714 259.242,191.714 258.664,191.621 258.310 C 191.529 257.957,191.453 258.246,191.453 258.953 M217.906 286.387 C 218.260 286.480,218.838 286.480,219.192 286.387 C 219.545 286.295,219.256 286.219,218.549 286.219 C 217.842 286.219,217.553 286.295,217.906 286.387 M303.862 287.867 C 304.420 287.951,305.247 287.949,305.698 287.862 C 306.150 287.775,305.693 287.706,304.683 287.708 C 303.673 287.711,303.303 287.782,303.862 287.867 M313.590 288.230 C 314.045 288.317,314.789 288.317,315.243 288.230 C 315.698 288.142,315.326 288.071,314.417 288.071 C 313.508 288.071,313.136 288.142,313.590 288.230 M322.773 288.597 C 323.228 288.685,323.972 288.685,324.426 288.597 C 324.881 288.510,324.509 288.438,323.600 288.438 C 322.691 288.438,322.319 288.510,322.773 288.597 M333.062 288.965 C 333.519 289.053,334.180 289.050,334.531 288.958 C 334.883 288.866,334.509 288.794,333.701 288.798 C 332.893 288.802,332.605 288.877,333.062 288.965 M340.593 289.336 C 341.151 289.421,341.978 289.418,342.429 289.331 C 342.881 289.244,342.424 289.175,341.414 289.178 C 340.404 289.180,340.034 289.252,340.593 289.336 M348.674 289.703 C 349.232 289.788,350.058 289.786,350.510 289.698 C 350.962 289.611,350.505 289.542,349.495 289.545 C 348.485 289.548,348.115 289.619,348.674 289.703 M359.255 333.663 C 357.197 338.615,356.478 340.813,356.181 343.066 C 355.967 344.683,355.615 346.005,355.399 346.004 C 354.728 346.002,319.093 343.851,303.779 342.888 C 269.843 340.755,261.022 340.144,244.812 338.802 C 236.858 338.143,216.209 338.254,206.061 339.009 C 203.333 339.212,198.457 339.555,195.225 339.770 C 189.335 340.163,168.830 341.669,150.597 343.048 C 118.875 345.447,92.783 346.623,79.879 346.235 C 58.179 345.584,51.505 343.041,43.054 332.206 C 42.334 331.282,42.356 331.390,43.209 332.966 C 45.809 337.767,54.880 345.372,62.259 348.936 C 78.762 356.907,93.678 357.480,129.477 351.520 C 136.547 350.343,143.407 349.269,144.720 349.134 C 146.033 348.999,147.686 348.733,148.393 348.544 C 149.100 348.355,153.115 348.033,157.314 347.828 C 176.269 346.905,190.958 349.001,232.323 358.531 C 278.458 369.161,305.150 370.157,329.240 362.151 C 349.707 355.348,361.885 344.441,362.441 332.415 C 362.731 326.147,362.309 326.313,359.255 333.663 " stroke="none" fill="#b3baeb" fill-rule="evenodd"></path><path id="path8" d="M362.167 50.907 C 362.167 51.028,362.473 51.565,362.848 52.101 C 363.452 52.967,366.864 59.042,370.769 66.208 C 371.512 67.571,372.287 68.687,372.491 68.687 C 372.696 68.687,372.767 68.842,372.650 69.031 C 372.124 69.881,374.321 73.277,375.423 73.317 C 376.808 73.368,377.012 73.911,372.942 66.707 C 366.413 55.152,362.167 48.926,362.167 50.907 M350.781 66.777 C 350.781 66.938,351.400 67.009,352.158 66.934 C 354.290 66.722,354.446 66.544,352.525 66.512 C 351.566 66.496,350.781 66.615,350.781 66.777 M375.281 74.809 C 375.802 75.604,375.731 75.688,373.125 77.358 C 366.099 81.863,348.082 93.103,342.239 96.627 L 335.718 100.560 337.406 102.438 C 339.314 104.560,339.555 104.621,341.704 103.533 C 344.353 102.192,378.951 81.500,380.158 80.535 C 380.855 79.978,377.120 74.264,375.972 74.130 C 374.774 73.991,374.756 74.008,375.281 74.809 M278.900 84.718 C 278.381 86.073,280.625 87.506,289.807 91.684 C 298.859 95.803,301.744 96.454,302.602 94.570 C 303.470 92.664,299.422 89.798,297.072 90.656 C 295.724 91.148,290.125 89.214,281.989 85.445 C 279.504 84.294,279.099 84.199,278.900 84.718 M247.608 109.734 C 248.067 110.491,249.238 112.390,250.209 113.954 C 252.079 116.965,252.364 118.336,251.353 119.453 C 250.769 120.098,250.770 120.205,251.361 121.206 L 251.991 122.273 249.175 124.405 C 243.480 128.719,243.570 128.677,242.346 127.570 C 241.701 126.985,241.591 126.989,240.506 127.630 C 239.872 128.004,238.881 128.408,238.303 128.526 L 237.253 128.742 238.387 130.284 C 241.539 134.569,243.296 134.446,250.553 129.435 C 257.324 124.759,257.851 124.299,257.851 123.061 C 257.851 122.024,250.362 110.132,248.995 108.999 C 247.446 107.715,246.641 108.141,247.608 109.734 M76.126 112.580 C 76.130 113.388,76.205 113.676,76.293 113.219 C 76.381 112.762,76.377 112.101,76.285 111.750 C 76.193 111.398,76.122 111.772,76.126 112.580 M240.220 112.806 C 235.718 116.097,234.944 117.405,236.547 119.008 C 237.806 120.267,239.826 119.560,244.137 116.352 L 245.298 115.488 244.035 113.483 C 242.471 111.000,242.649 111.031,240.220 112.806 M236.159 121.311 C 236.934 122.390,237.686 123.049,238.143 123.049 C 239.012 123.049,238.022 121.802,236.005 120.357 L 234.911 119.574 236.159 121.311 M253.707 122.679 L 253.244 124.278 252.615 123.318 C 252.002 122.382,252.010 122.339,252.955 121.596 C 254.191 120.623,254.269 120.736,253.707 122.679 M114.711 125.253 C 114.711 126.364,114.779 126.818,114.864 126.263 C 114.948 125.707,114.948 124.798,114.864 124.242 C 114.779 123.687,114.711 124.141,114.711 125.253 M333.966 125.824 C 331.832 127.319,333.285 129.125,336.902 129.475 C 338.374 129.618,340.485 130.036,341.594 130.405 C 344.007 131.207,343.958 131.237,343.426 129.260 C 342.465 125.694,336.991 123.706,333.966 125.824 M333.079 130.119 C 330.714 131.996,329.782 134.639,331.061 135.840 C 332.192 136.903,332.284 136.867,332.547 135.262 C 332.672 134.504,333.264 133.149,333.864 132.250 C 335.190 130.262,334.672 128.855,333.079 130.119 M347.704 131.930 C 347.577 133.207,347.433 135.491,347.382 137.006 C 347.142 144.269,340.769 147.584,335.756 143.055 C 335.020 142.390,333.513 141.527,332.407 141.136 C 331.300 140.745,330.127 140.307,329.799 140.164 C 327.801 139.288,331.166 145.105,333.634 146.794 C 344.105 153.960,356.506 141.665,349.188 131.372 L 347.934 129.608 347.704 131.930 M155.406 131.473 C 155.376 132.925,156.402 137.568,156.690 137.280 C 156.753 137.217,156.498 135.518,156.123 133.505 C 155.585 130.616,155.434 130.187,155.406 131.473 M150.133 131.716 C 149.712 132.137,150.328 134.184,151.778 137.185 C 153.278 140.288,153.307 139.899,151.960 134.807 C 151.207 131.959,150.717 131.132,150.133 131.716 M164.778 132.078 C 164.308 133.301,164.660 134.465,168.228 143.488 C 170.248 148.598,171.901 152.932,171.901 153.120 C 171.901 153.307,169.418 154.327,166.383 155.387 C 159.660 157.734,159.600 158.056,166.185 156.439 C 172.121 154.981,171.327 154.374,173.911 162.351 C 182.942 190.233,185.247 208.163,180.398 212.809 C 177.434 215.649,156.397 214.980,134.619 211.354 C 132.801 211.051,130.983 210.729,130.579 210.639 C 130.174 210.549,130.034 210.564,130.266 210.674 C 130.691 210.874,130.537 213.700,130.073 214.208 C 129.947 214.346,127.717 213.967,125.117 213.365 C 122.517 212.763,120.330 212.330,120.257 212.403 C 119.841 212.819,129.714 215.583,130.305 215.216 C 130.787 214.918,132.450 215.097,137.006 215.940 C 145.313 217.475,152.079 218.404,160.368 219.146 L 167.384 219.774 173.040 217.348 C 178.340 215.075,186.039 212.305,187.058 212.305 C 190.204 212.305,182.767 176.484,175.923 158.678 C 175.341 157.163,173.301 151.702,171.389 146.543 C 166.670 133.807,165.280 130.767,164.778 132.078 M288.423 143.985 C 288.423 144.692,288.499 144.982,288.591 144.628 C 288.684 144.275,288.684 143.696,288.591 143.343 C 288.499 142.989,288.423 143.278,288.423 143.985 M297.681 146.299 C 297.287 147.627,295.298 149.128,293.931 149.128 C 292.601 149.128,293.064 151.129,294.759 152.709 C 297.687 155.437,301.785 153.365,301.668 149.217 C 301.598 146.750,298.270 144.314,297.681 146.299 M197.612 154.352 C 194.882 155.795,196.447 157.844,200.643 158.320 C 203.755 158.674,206.484 159.431,207.406 160.197 C 208.614 161.199,207.502 158.168,206.129 156.716 C 204.023 154.488,199.652 153.275,197.612 154.352 M259.402 157.668 C 258.465 158.813,256.962 173.422,257.182 179.247 C 257.302 182.413,258.114 183.539,259.371 182.282 C 260.187 181.466,262.992 164.016,262.993 159.745 C 262.994 157.680,260.549 156.266,259.402 157.668 M195.667 159.745 C 193.416 162.236,193.031 163.279,193.906 164.508 C 195.376 166.573,195.664 166.582,195.858 164.569 C 195.968 163.423,196.406 162.173,197.029 161.232 C 198.800 158.556,197.764 157.424,195.667 159.745 M211.879 161.237 C 211.999 163.380,211.832 164.143,210.203 168.885 C 208.726 173.187,204.558 174.985,200.720 172.976 C 199.920 172.557,198.366 171.972,197.266 171.676 C 196.167 171.381,194.701 170.789,194.010 170.362 L 192.752 169.584 193.010 170.467 C 194.608 175.934,202.825 179.170,208.448 176.546 C 214.565 173.692,216.712 165.129,212.589 160.033 L 211.754 159.001 211.879 161.237 M36.586 171.597 C 36.690 171.764,37.798 171.888,39.048 171.872 C 41.705 171.838,41.465 171.651,38.493 171.441 C 37.341 171.359,36.483 171.429,36.586 171.597 M341.791 177.663 C 339.100 177.901,337.701 179.937,339.855 180.477 C 344.377 181.612,362.685 182.393,363.764 181.497 C 364.728 180.698,364.533 179.003,363.393 178.256 C 362.414 177.615,347.080 177.194,341.791 177.663 M56.679 187.144 C 56.682 188.356,56.750 188.808,56.832 188.148 C 56.914 187.488,56.912 186.496,56.828 185.944 C 56.744 185.392,56.677 185.932,56.679 187.144 M58.120 186.961 C 58.120 187.668,58.196 187.957,58.288 187.603 C 58.380 187.250,58.380 186.671,58.288 186.318 C 58.196 185.964,58.120 186.253,58.120 186.961 M291.906 196.570 C 290.349 205.607,289.761 208.952,289.607 209.648 C 289.432 210.438,289.502 210.468,290.992 210.240 C 293.778 209.815,293.691 209.993,294.216 203.658 L 294.692 197.918 293.405 196.631 L 292.118 195.344 291.906 196.570 M301.650 198.347 C 306.361 205.676,308.443 210.418,307.406 211.455 C 307.118 211.743,307.118 211.924,307.406 212.101 C 308.565 212.818,307.654 213.323,304.408 213.763 C 302.539 214.017,299.275 214.519,297.153 214.879 C 294.692 215.296,293.215 215.403,293.071 215.172 C 292.485 214.234,288.793 215.262,288.560 216.429 C 287.648 220.989,288.904 221.096,306.336 217.951 C 315.186 216.354,315.078 216.666,309.808 207.897 C 306.527 202.439,304.142 199.361,300.842 196.327 C 299.786 195.356,299.883 195.597,301.650 198.347 M241.114 203.122 C 241.174 203.829,241.437 205.566,241.699 206.982 C 242.586 211.771,239.280 214.914,235.445 212.926 C 234.940 212.664,234.123 212.547,233.629 212.665 C 232.865 212.847,233.222 213.114,236.017 214.455 C 237.824 215.321,240.101 216.522,241.078 217.122 C 242.055 217.723,242.767 218.072,242.659 217.898 C 242.552 217.724,242.949 217.296,243.540 216.946 C 245.272 215.923,247.096 212.892,247.738 209.968 C 248.677 205.691,243.967 199.877,241.925 202.793 L 241.383 203.566 241.194 202.701 C 241.090 202.226,241.054 202.415,241.114 203.122 M112.136 205.561 C 112.498 205.987,112.924 207.160,113.084 208.169 L 113.374 210.004 112.426 209.757 C 111.905 209.621,111.315 209.147,111.116 208.703 C 110.473 207.275,110.193 207.836,110.187 210.560 C 110.184 212.025,109.935 214.215,109.633 215.427 C 108.041 221.827,107.303 226.590,107.729 227.717 C 108.083 228.657,108.040 229.049,107.463 230.121 C 106.843 231.272,106.800 231.897,107.040 236.270 C 107.405 242.920,108.617 260.001,108.676 259.320 C 108.735 258.632,111.295 256.540,111.295 257.180 C 111.295 257.492,111.490 257.446,111.900 257.036 C 112.463 256.473,112.459 255.671,111.840 245.732 C 111.278 236.714,111.104 235.198,110.736 236.075 C 110.033 237.746,107.254 238.709,107.254 237.282 C 107.254 236.756,107.499 236.547,108.116 236.547 C 109.268 236.547,110.315 235.321,110.315 233.971 C 110.315 232.667,110.477 232.585,110.883 233.682 C 111.123 234.333,111.303 233.957,111.802 231.754 C 113.145 225.823,113.608 221.927,113.645 216.254 C 113.665 213.072,113.814 210.469,113.974 210.468 C 114.822 210.468,113.315 206.214,112.145 205.306 C 111.503 204.807,111.503 204.816,112.136 205.561 M114.458 207.553 C 115.096 208.378,115.385 210.832,114.818 210.614 C 114.458 210.476,114.355 211.645,114.355 215.870 C 114.356 218.859,114.248 221.882,114.116 222.590 L 113.875 223.875 114.401 222.735 C 115.130 221.152,115.832 215.498,115.589 213.152 C 115.360 210.928,115.513 210.839,117.914 211.800 C 118.735 212.128,119.509 212.293,119.636 212.167 C 119.762 212.041,119.631 211.935,119.345 211.931 C 118.828 211.924,116.437 208.612,116.437 207.901 C 116.437 207.697,116.203 207.530,115.916 207.530 C 115.630 207.530,115.092 207.416,114.722 207.277 C 114.178 207.073,114.128 207.126,114.458 207.553 M237.810 210.193 L 236.731 211.387 237.925 210.308 C 238.581 209.714,239.118 209.177,239.118 209.114 C 239.118 208.830,238.815 209.080,237.810 210.193 M311.478 212.835 C 311.478 213.197,309.919 215.611,309.685 215.611 C 309.437 215.611,308.173 213.663,308.173 213.280 C 308.173 213.172,308.792 213.019,309.550 212.940 C 310.308 212.861,311.051 212.768,311.203 212.734 C 311.354 212.700,311.478 212.745,311.478 212.835 M293.076 216.070 C 293.056 216.322,292.932 216.897,292.801 217.347 L 292.562 218.166 291.315 217.187 C 290.191 216.305,290.137 216.182,290.764 215.935 C 291.877 215.499,293.116 215.571,293.076 216.070 M53.723 224.604 C 53.436 224.931,53.402 225.205,53.631 225.347 C 53.831 225.470,53.994 225.396,53.994 225.182 C 53.994 224.968,54.366 224.782,54.821 224.768 C 56.490 224.715,57.236 224.111,55.647 224.099 C 54.830 224.092,53.976 224.316,53.723 224.604 M38.292 225.781 C 38.646 225.874,39.224 225.874,39.578 225.781 C 39.931 225.689,39.642 225.613,38.935 225.613 C 38.228 225.613,37.938 225.689,38.292 225.781 M23.049 226.522 C 23.503 226.609,24.247 226.609,24.702 226.522 C 25.156 226.434,24.784 226.363,23.875 226.363 C 22.966 226.363,22.594 226.434,23.049 226.522 M189.837 232.285 C 173.944 232.710,160.866 233.140,160.773 233.242 C 160.245 233.818,151.085 267.616,151.403 267.813 C 151.608 267.939,152.616 268.142,153.643 268.264 C 157.781 268.754,156.617 270.434,151.788 270.940 C 148.702 271.264,148.480 273.053,151.478 273.440 C 157.930 274.272,157.631 275.729,150.872 276.397 C 147.938 276.687,147.522 277.437,149.954 278.053 C 156.272 279.652,155.075 281.725,148.135 281.203 C 146.416 281.074,145.404 281.144,145.243 281.405 C 145.076 281.674,145.265 281.719,145.820 281.543 C 146.273 281.399,146.996 281.464,147.427 281.687 C 147.857 281.910,148.871 282.316,149.679 282.589 C 151.872 283.331,151.573 284.059,148.944 284.381 C 147.732 284.530,146.410 284.814,146.006 285.014 C 145.006 285.506,106.600 291.016,105.737 290.790 C 105.311 290.679,105.141 290.759,105.291 291.001 C 105.446 291.252,105.248 291.318,104.738 291.184 C 104.302 291.070,103.124 291.193,102.120 291.458 C 101.117 291.722,98.233 292.227,95.711 292.580 C 90.756 293.272,90.766 293.266,91.035 295.592 C 91.212 297.124,85.076 297.444,145.487 292.749 C 210.338 287.708,210.163 287.724,211.173 286.661 C 211.352 286.472,212.854 281.772,214.509 276.217 C 216.164 270.661,217.653 265.973,217.818 265.799 C 218.661 264.908,224.126 268.338,228.717 272.639 L 231.949 275.666 229.932 273.295 C 225.226 267.764,219.772 262.626,218.606 262.626 C 218.391 262.626,218.111 263.183,217.983 263.864 C 217.758 265.062,217.685 265.108,215.671 265.316 C 214.527 265.434,213.225 265.638,212.779 265.770 L 211.967 266.010 212.693 263.492 C 213.092 262.107,213.495 260.550,213.589 260.033 C 213.725 259.286,217.359 246.624,221.304 233.150 L 221.815 231.405 220.274 231.459 C 219.426 231.489,205.730 231.861,189.837 232.285 M264.096 235.560 C 264.096 235.624,264.633 236.161,265.289 236.754 L 266.483 237.833 265.404 236.639 C 264.399 235.526,264.096 235.277,264.096 235.560 M276.298 249.954 C 283.378 259.665,288.581 268.295,294.623 280.349 C 298.168 287.421,298.287 287.603,299.391 287.603 L 300.523 287.603 297.748 282.301 C 292.638 272.539,285.188 260.763,279.609 253.627 C 276.238 249.317,274.120 246.966,276.298 249.954 M187.527 252.665 C 192.096 254.740,192.991 260.351,189.303 263.797 C 185.116 267.707,178.145 264.647,178.145 258.900 C 178.145 253.937,183.090 250.650,187.527 252.665 M108.809 265.197 C 108.809 265.904,108.884 266.194,108.977 265.840 C 109.069 265.487,109.069 264.908,108.977 264.555 C 108.884 264.201,108.809 264.490,108.809 265.197 M136.731 267.297 C 137.287 267.381,138.196 267.381,138.751 267.297 C 139.307 267.213,138.852 267.144,137.741 267.144 C 136.630 267.144,136.175 267.213,136.731 267.297 M139.307 284.928 C 139.865 285.013,140.692 285.011,141.144 284.923 C 141.595 284.836,141.139 284.767,140.129 284.770 C 139.118 284.773,138.749 284.844,139.307 284.928 M220.668 286.400 C 221.328 286.482,222.320 286.480,222.872 286.397 C 223.424 286.313,222.883 286.246,221.671 286.248 C 220.459 286.250,220.008 286.319,220.668 286.400 M301.286 287.857 C 301.639 287.949,302.218 287.949,302.571 287.857 C 302.925 287.764,302.635 287.689,301.928 287.689 C 301.221 287.689,300.932 287.764,301.286 287.857 M310.652 288.230 C 311.107 288.317,311.850 288.317,312.305 288.230 C 312.759 288.142,312.388 288.071,311.478 288.071 C 310.569 288.071,310.197 288.142,310.652 288.230 M319.835 288.597 C 320.289 288.685,321.033 288.685,321.488 288.597 C 321.942 288.510,321.570 288.438,320.661 288.438 C 319.752 288.438,319.380 288.510,319.835 288.597 M330.670 288.958 C 331.024 289.051,331.602 289.051,331.956 288.958 C 332.309 288.866,332.020 288.790,331.313 288.790 C 330.606 288.790,330.317 288.866,330.670 288.958 M357.673 319.770 C 355.823 322.763,352.295 333.410,351.870 337.282 C 351.432 341.265,351.337 341.597,350.629 341.592 C 349.554 341.584,333.193 340.607,323.069 339.947 C 301.059 338.511,296.861 338.306,284.848 338.079 C 273.019 337.855,271.949 337.782,271.442 337.165 C 270.957 336.575,269.356 336.381,258.219 335.564 C 251.249 335.053,242.323 334.365,238.384 334.035 C 225.972 332.996,208.578 333.677,171.350 336.660 C 161.188 337.474,151.962 338.181,145.271 338.658 C 142.039 338.888,139.124 339.220,138.793 339.396 C 138.463 339.571,137.867 339.629,137.468 339.525 C 137.070 339.421,131.720 339.677,125.580 340.094 C 77.892 343.334,57.281 342.307,48.229 336.236 C 44.242 333.563,44.934 335.226,49.361 338.957 C 59.397 347.414,81.205 348.295,150.597 343.048 C 168.830 341.669,189.335 340.163,195.225 339.770 C 198.457 339.555,203.333 339.212,206.061 339.009 C 216.209 338.254,236.858 338.143,244.812 338.802 C 261.022 340.144,269.843 340.755,303.779 342.888 C 319.071 343.850,354.728 346.002,355.397 346.004 C 355.613 346.005,355.974 344.642,356.200 342.975 C 356.521 340.612,357.212 338.516,359.339 333.457 L 362.066 326.969 361.009 324.437 C 359.907 321.796,358.037 319.181,357.673 319.770 " stroke="none" fill="#8e8697" fill-rule="evenodd"></path></g></svg>