<svg id="svg" version="1.1" xmlns="http://www.w3.org/2000/svg" xmlns:xlink="http://www.w3.org/1999/xlink" width="400" height="443.8162544169611" viewBox="0, 0, 400,443.8162544169611"><g id="svgg"><path id="path0" d="M19.600 110.044 C 19.600 110.130,20.680 123.160,22.000 139.000 C 23.320 154.840,24.400 167.845,24.400 167.900 C 24.400 167.955,48.214 168.000,77.321 168.000 L 130.242 168.000 133.197 178.242 C 135.114 184.891,136.246 188.224,136.421 187.742 C 136.570 187.334,138.003 182.288,139.606 176.529 L 142.522 166.058 144.361 165.839 C 145.372 165.719,149.890 165.415,154.400 165.163 C 158.910 164.912,162.637 164.676,162.682 164.638 C 162.727 164.601,161.691 158.636,160.379 151.385 C 159.067 144.133,156.990 132.530,155.762 125.600 C 154.535 118.670,153.501 112.976,153.465 112.946 C 153.429 112.916,126.940 112.331,94.600 111.646 C 62.260 110.962,32.155 110.286,27.700 110.144 C 23.245 110.003,19.600 109.958,19.600 110.044 M349.600 121.649 C 345.090 121.786,333.570 122.120,324.000 122.392 C 314.430 122.664,304.080 123.002,301.000 123.143 L 295.400 123.400 295.270 127.200 C 295.128 131.374,295.617 143.232,296.805 164.400 C 297.835 182.756,297.920 183.598,298.741 183.609 C 299.103 183.614,305.289 183.128,312.487 182.529 C 319.685 181.931,325.689 181.556,325.830 181.697 C 325.971 181.838,325.379 185.204,324.513 189.177 C 323.648 193.150,323.071 196.400,323.232 196.400 C 323.392 196.400,326.613 192.890,330.390 188.600 C 335.283 183.041,337.507 180.795,338.128 180.783 C 340.059 180.745,364.421 177.712,364.653 177.481 C 364.894 177.239,363.768 132.811,363.408 128.400 C 363.310 127.190,363.222 125.065,363.214 123.679 L 363.200 121.158 360.500 121.279 C 359.015 121.345,354.110 121.512,349.600 121.649 M153.800 193.649 C 148.888 194.780,150.580 198.303,156.291 198.834 C 166.649 199.796,170.957 206.782,165.221 213.315 C 158.614 220.840,146.189 209.292,152.641 201.624 C 154.719 199.155,152.611 197.684,150.419 200.074 C 139.514 211.968,156.500 227.953,168.368 216.966 C 178.347 207.727,167.570 190.477,153.800 193.649 M70.467 345.841 C 64.736 348.698,63.331 356.522,67.720 361.149 C 74.839 368.653,87.144 361.817,84.260 351.961 C 82.509 345.978,75.994 343.088,70.467 345.841 M329.000 400.038 C 314.920 400.208,292.510 400.547,279.200 400.791 C 239.663 401.517,205.304 401.955,153.300 402.397 C 126.295 402.627,83.500 403.080,58.200 403.404 C 32.900 403.728,9.455 403.995,6.100 403.997 C -0.982 404.001,-0.961 403.981,3.100 406.900 C 58.819 446.948,169.707 454.564,318.600 428.570 C 347.891 423.456,399.466 412.277,399.661 411.000 C 399.695 410.780,394.880 408.130,388.961 405.112 L 378.200 399.624 366.400 399.677 C 359.910 399.706,343.080 399.868,329.000 400.038 " stroke="none" fill="#a8e4fa" fill-rule="evenodd"></path><path id="path1" d="M219.045 92.328 C 218.933 92.508,219.373 92.577,220.021 92.482 C 220.670 92.387,221.200 92.240,221.200 92.155 C 221.200 91.850,219.243 92.007,219.045 92.328 M210.446 108.980 C 207.259 110.011,204.641 113.269,204.870 115.920 L 204.995 117.373 202.997 117.186 C 191.205 116.086,185.428 118.115,182.459 124.400 C 181.077 127.326,181.043 130.805,182.376 132.961 L 183.295 134.448 182.474 135.324 C 177.487 140.648,183.283 148.800,192.056 148.800 L 193.543 148.800 194.017 151.100 C 195.463 158.113,199.087 157.538,208.089 148.867 L 211.579 145.507 214.689 146.339 C 222.815 148.512,231.434 147.379,238.558 143.201 C 240.076 142.312,241.375 141.641,241.446 141.712 C 241.516 141.783,242.127 144.532,242.803 147.820 C 245.938 163.078,250.103 173.010,255.515 178.133 L 256.712 179.265 258.318 178.252 C 262.462 175.636,264.446 164.278,262.205 156.000 C 261.424 153.115,261.441 152.927,262.500 152.659 C 263.929 152.296,266.435 149.595,267.563 147.200 C 271.358 139.142,265.402 129.961,255.721 128.950 L 253.269 128.693 254.132 127.047 C 256.497 122.540,253.997 116.019,248.972 113.587 C 245.448 111.880,243.288 111.545,233.600 111.201 C 225.448 110.911,223.695 110.731,220.400 109.846 C 215.415 108.506,212.651 108.266,210.446 108.980 M203.800 154.673 C 202.218 155.078,202.229 155.600,203.820 155.617 C 204.689 155.627,206.210 155.791,207.200 155.983 C 209.335 156.395,209.597 156.275,208.335 155.462 C 207.263 154.771,204.974 154.373,203.800 154.673 M232.600 161.585 C 231.724 161.946,231.680 161.920,234.600 162.780 C 235.480 163.040,236.425 163.345,236.700 163.459 C 237.763 163.900,237.133 162.747,235.900 161.996 C 234.507 161.146,233.862 161.066,232.600 161.585 M216.673 164.300 C 215.750 170.349,214.830 186.834,215.245 189.890 C 215.602 192.525,216.128 193.212,217.749 193.160 C 218.927 193.123,218.941 193.104,218.000 192.843 C 216.054 192.304,215.825 190.980,216.335 183.214 C 217.271 168.965,217.445 159.246,216.673 164.300 M207.442 167.435 C 207.072 168.399,207.154 170.800,207.557 170.800 C 208.042 170.800,208.400 169.775,208.400 168.391 C 208.400 167.087,207.804 166.492,207.442 167.435 M234.242 170.235 C 233.879 171.181,233.951 173.122,234.358 173.374 C 234.815 173.657,235.200 172.659,235.200 171.191 C 235.200 169.887,234.604 169.292,234.242 170.235 M258.850 186.606 C 257.808 188.371,257.797 188.537,258.754 188.025 C 259.454 187.650,260.254 185.721,259.869 185.336 C 259.776 185.242,259.317 185.814,258.850 186.606 M259.068 188.967 C 258.948 189.279,259.109 189.633,259.425 189.754 C 260.342 190.106,260.092 191.469,258.946 192.371 L 257.892 193.200 258.884 193.200 C 260.182 193.200,261.200 192.035,261.200 190.549 C 261.200 188.763,259.602 187.577,259.068 188.967 M55.600 195.081 C 50.029 197.109,51.988 206.400,57.987 206.400 C 64.129 206.400,65.898 198.405,60.378 195.589 C 58.896 194.833,56.874 194.618,55.600 195.081 M227.400 197.153 C 225.221 200.411,221.534 201.490,217.466 200.058 C 215.620 199.409,215.238 199.364,215.637 199.845 C 218.396 203.169,225.751 202.146,228.108 198.111 C 229.403 195.894,228.794 195.068,227.400 197.153 M207.600 217.781 C 207.600 218.347,211.464 220.385,214.329 221.329 C 222.345 223.972,231.077 223.444,237.693 219.918 C 240.463 218.442,240.499 218.042,237.757 219.220 C 229.603 222.721,218.912 222.626,211.342 218.985 C 208.645 217.688,207.600 217.352,207.600 217.781 M268.876 246.810 C 252.552 251.087,250.073 269.821,261.865 299.800 C 264.326 306.057,270.254 318.461,271.519 320.000 C 273.122 321.950,273.057 319.879,271.421 316.890 C 250.611 278.861,250.581 251.308,271.345 247.181 C 274.030 246.647,274.923 245.982,272.900 246.022 C 272.295 246.034,270.484 246.389,268.876 246.810 M171.228 278.700 C 166.349 296.865,161.076 333.200,163.318 333.200 C 163.692 333.200,164.369 329.562,165.757 320.100 C 167.666 307.083,171.802 280.404,172.236 278.300 C 172.584 276.618,171.692 276.972,171.228 278.700 M230.000 306.025 C 225.589 306.414,224.800 306.576,224.800 307.087 C 224.800 307.259,232.360 307.400,241.600 307.400 C 257.835 307.400,260.734 307.186,257.500 306.226 C 256.010 305.784,234.512 305.627,230.000 306.025 " stroke="none" fill="#555457" fill-rule="evenodd"></path><path id="path2" d="M285.350 212.970 C 283.597 214.623,283.496 213.768,286.841 225.600 C 290.517 238.605,289.564 238.442,303.000 228.367 C 310.008 223.112,310.007 223.185,303.109 218.497 C 294.014 212.316,288.020 210.451,285.350 212.970 M286.400 214.800 C 286.635 215.240,286.678 215.600,286.494 215.600 C 286.069 215.600,285.200 214.741,285.200 214.320 C 285.200 213.699,285.977 214.010,286.400 214.800 M293.200 218.686 C 297.256 220.176,302.477 222.793,302.304 223.249 C 301.998 224.060,292.598 230.338,292.357 229.893 C 292.210 229.622,291.186 226.880,290.081 223.800 C 288.977 220.720,287.939 217.864,287.776 217.454 C 287.425 216.572,287.476 216.583,293.200 218.686 M305.200 223.403 C 305.200 224.298,305.115 224.354,304.420 223.920 C 303.841 223.558,303.751 223.300,304.069 222.916 C 304.740 222.109,305.200 222.307,305.200 223.403 M247.599 235.500 C 246.077 243.558,243.852 247.648,239.324 250.709 C 226.282 259.523,209.246 250.694,209.206 235.100 C 209.203 233.835,209.155 232.801,209.100 232.802 C 201.068 232.926,180.991 240.649,145.400 257.307 C 141.880 258.954,137.155 261.134,134.900 262.151 C 132.645 263.168,129.045 264.791,126.900 265.758 C 124.755 266.724,119.580 268.988,115.400 270.787 C 106.386 274.668,106.873 274.289,108.112 276.460 C 109.005 278.027,122.350 308.025,127.618 320.308 C 129.511 324.723,129.806 325.189,130.561 324.954 C 131.023 324.810,138.578 322.370,147.352 319.531 C 156.125 316.693,163.384 314.451,163.483 314.550 C 163.775 314.841,161.666 330.825,160.203 339.412 L 159.997 340.625 166.597 340.465 C 173.700 340.294,175.200 340.631,175.200 342.400 C 175.200 344.008,173.755 344.377,166.364 344.656 L 159.375 344.919 156.496 364.135 C 154.912 374.703,153.667 383.400,153.729 383.462 C 153.790 383.524,156.712 382.852,160.220 381.970 C 163.729 381.087,170.107 379.648,174.394 378.770 C 178.681 377.893,186.871 375.931,192.594 374.410 C 211.158 369.476,232.067 364.502,258.182 358.808 C 264.332 357.466,269.444 356.290,269.541 356.193 C 269.638 356.096,270.138 351.377,270.652 345.708 L 271.587 335.400 273.827 330.124 C 275.786 325.509,276.200 324.821,277.133 324.624 C 281.098 323.786,317.611 317.175,319.301 316.989 C 322.982 316.582,326.603 315.739,326.516 315.309 C 326.444 314.957,298.759 266.494,293.929 258.266 C 292.524 255.873,292.207 255.562,291.389 255.767 C 290.598 255.966,290.084 255.554,288.062 253.101 C 279.219 242.369,267.154 234.790,253.800 231.576 C 248.293 230.251,248.631 230.037,247.599 235.500 M292.667 232.667 C 292.553 232.780,292.074 232.751,291.603 232.601 C 290.785 232.341,290.779 232.303,291.472 231.796 C 292.181 231.277,293.265 232.068,292.667 232.667 M274.049 246.200 C 274.053 246.420,272.829 246.922,271.328 247.316 C 250.963 252.664,250.698 278.120,270.624 314.993 C 272.049 317.629,273.121 320.028,273.008 320.323 C 271.562 324.092,259.705 297.578,256.229 282.800 C 251.300 261.845,256.101 249.289,270.200 246.258 C 273.255 245.602,274.038 245.590,274.049 246.200 M26.000 248.000 C 25.117 248.883,25.015 249.698,25.568 251.440 C 25.771 252.078,26.420 254.220,27.011 256.200 C 29.441 264.343,33.417 273.691,34.653 274.165 C 37.138 275.119,37.234 273.369,35.164 264.896 C 31.309 249.126,29.046 244.954,26.000 248.000 M172.400 277.567 C 172.400 277.989,171.508 283.974,170.419 290.867 C 169.329 297.760,167.525 309.610,166.409 317.200 C 164.121 332.770,163.996 333.400,163.185 333.400 C 160.905 333.400,167.590 287.705,171.392 277.300 C 171.677 276.521,172.400 276.713,172.400 277.567 M256.271 305.950 C 257.963 306.132,258.600 306.364,258.600 306.800 C 258.600 307.322,256.409 307.414,241.700 307.504 C 227.302 307.593,224.800 307.524,224.800 307.040 C 224.800 305.573,245.945 304.840,256.271 305.950 M263.800 397.408 C 262.991 397.702,245.946 399.233,237.688 399.754 C 229.490 400.272,228.217 400.471,229.027 401.107 C 229.825 401.734,265.198 401.051,265.609 400.400 C 266.824 398.475,265.751 396.700,263.800 397.408 " stroke="none" fill="#fb7484" fill-rule="evenodd"></path><path id="path3" d="M238.200 143.632 C 231.444 147.421,220.642 148.737,214.200 146.555 L 211.800 145.742 208.283 149.068 C 202.680 154.366,198.512 156.916,196.882 156.044 C 195.956 155.548,195.890 155.956,195.163 166.800 C 193.426 192.706,199.576 213.050,210.672 218.106 C 211.183 218.338,211.600 218.665,211.600 218.832 C 211.600 219.239,214.731 220.244,218.326 220.991 C 223.994 222.170,231.432 221.455,237.098 219.186 C 241.667 217.357,241.342 218.394,236.641 220.649 C 229.456 224.094,219.651 224.097,211.992 220.658 C 211.277 220.337,209.164 231.322,209.194 235.200 C 209.317 250.721,226.326 259.494,239.297 250.727 C 243.848 247.651,245.860 243.974,247.635 235.493 C 248.823 229.817,254.400 200.917,254.400 200.437 C 254.400 200.298,255.705 200.247,257.300 200.324 C 267.912 200.833,271.163 183.759,261.367 178.966 L 259.154 177.884 257.943 178.779 L 256.731 179.675 255.721 178.737 C 249.780 173.223,243.858 158.424,241.781 143.900 C 241.459 141.650,241.701 141.668,238.200 143.632 M208.020 155.010 C 210.099 156.085,209.415 156.420,205.700 156.147 C 201.744 155.855,201.492 155.760,202.577 154.967 C 203.599 154.220,206.537 154.243,208.020 155.010 M236.546 162.029 C 237.760 162.984,238.017 164.263,236.900 163.788 C 236.515 163.625,235.210 163.213,234.000 162.873 C 231.399 162.142,231.448 162.170,231.784 161.627 C 232.254 160.865,235.404 161.131,236.546 162.029 M216.821 180.108 C 216.064 190.725,216.540 194.110,218.554 192.438 C 218.909 192.143,219.200 192.082,219.200 192.302 C 219.200 194.170,216.199 193.775,215.374 191.799 C 214.319 189.274,215.366 166.752,216.713 163.000 C 217.193 161.662,217.270 173.813,216.821 180.108 M208.586 169.197 C 208.241 171.060,208.034 171.326,207.364 170.770 C 206.691 170.212,206.639 168.873,207.230 167.326 C 207.868 165.654,208.962 167.164,208.586 169.197 M235.519 170.854 C 235.738 172.674,234.854 174.356,234.170 173.424 C 233.494 172.503,233.465 172.008,234.002 170.594 C 234.485 169.323,235.353 169.472,235.519 170.854 M101.621 182.575 C 100.774 183.595,99.200 195.759,99.200 201.280 L 99.200 202.400 91.670 202.400 C 84.372 202.400,84.114 202.428,83.315 203.300 C 81.417 205.372,79.521 210.597,77.686 218.813 C 75.950 226.585,75.933 226.723,76.623 227.109 C 77.152 227.405,77.152 227.636,76.620 229.143 C 75.267 232.977,72.340 243.804,71.035 249.800 C 63.989 282.175,68.026 304.793,82.221 312.470 L 84.200 313.541 97.574 312.778 C 104.930 312.358,110.978 312.056,111.015 312.107 C 111.052 312.158,111.566 313.482,112.157 315.049 L 113.231 317.898 115.116 317.729 C 118.094 317.462,124.680 316.321,125.238 315.976 C 125.791 315.635,108.620 276.459,107.776 276.136 C 107.535 276.043,105.923 276.511,104.195 277.177 C 102.467 277.842,101.000 278.333,100.934 278.268 C 100.828 278.162,99.613 260.351,99.604 258.764 C 99.600 258.076,95.288 256.193,92.800 255.791 C 89.289 255.224,86.418 258.261,85.603 263.404 C 84.658 269.359,80.609 267.575,80.603 261.200 C 80.594 253.173,89.592 247.294,97.510 250.154 L 99.219 250.771 99.004 248.286 C 98.886 246.919,98.602 242.650,98.374 238.800 C 98.146 234.950,97.805 231.745,97.616 231.679 C 97.427 231.612,97.964 230.081,98.809 228.276 C 103.091 219.140,105.555 202.649,104.491 190.253 C 103.902 183.384,102.985 180.931,101.621 182.575 M259.980 186.469 C 259.670 187.549,259.759 187.856,260.610 188.644 C 262.523 190.417,261.116 193.600,258.418 193.600 C 256.951 193.600,256.840 193.092,258.175 192.484 C 259.207 192.014,260.210 190.565,259.701 190.280 C 259.535 190.187,258.905 189.992,258.300 189.848 C 256.935 189.521,256.937 189.472,258.420 186.886 C 259.722 184.616,260.577 184.387,259.980 186.469 M257.878 188.656 C 257.558 188.975,257.919 189.600,258.424 189.600 C 258.631 189.600,258.800 189.330,258.800 189.000 C 258.800 188.381,258.328 188.205,257.878 188.656 M229.200 195.616 C 229.200 200.197,221.980 203.639,217.339 201.271 C 214.205 199.672,213.911 198.275,216.995 199.639 C 220.944 201.386,225.656 199.961,227.686 196.407 C 228.696 194.638,229.200 194.375,229.200 195.616 M297.800 320.785 C 286.360 322.910,276.795 324.728,276.544 324.825 C 276.233 324.944,276.520 326.397,277.449 329.400 C 281.615 342.872,281.581 351.683,277.353 354.099 C 276.045 354.846,275.616 354.951,258.000 358.826 C 230.581 364.858,210.825 369.565,192.594 374.410 C 186.871 375.931,178.610 377.908,174.237 378.803 C 150.968 383.564,138.648 387.981,141.284 390.618 C 141.463 390.796,224.723 396.000,227.404 396.000 L 228.800 396.000 228.800 397.976 C 228.800 399.063,228.935 400.029,229.100 400.122 C 229.567 400.384,245.719 399.282,254.600 398.381 C 259.000 397.935,264.490 397.395,266.800 397.181 C 280.237 395.935,296.216 392.754,304.904 389.595 C 321.557 383.541,329.240 358.659,322.996 331.000 C 321.718 325.336,319.629 318.174,319.051 317.469 C 318.674 317.010,315.184 317.555,297.800 320.785 M263.300 401.076 C 263.685 401.176,264.315 401.176,264.700 401.076 C 265.085 400.975,264.770 400.893,264.000 400.893 C 263.230 400.893,262.915 400.975,263.300 401.076 M230.905 401.487 C 231.514 401.579,232.414 401.577,232.905 401.482 C 233.397 401.387,232.900 401.311,231.800 401.314 C 230.700 401.317,230.297 401.395,230.905 401.487 " stroke="none" fill="#fbaba3" fill-rule="evenodd"></path><path id="path4" d="M224.684 0.250 C 223.898 1.035,224.689 27.249,225.523 28.083 C 227.087 29.647,228.003 12.054,226.860 2.400 C 226.607 0.256,225.636 -0.703,224.684 0.250 M207.735 20.226 C 207.129 21.804,212.984 31.200,214.574 31.200 C 215.773 31.200,214.038 26.855,210.701 21.500 C 209.488 19.554,208.204 19.002,207.735 20.226 M239.088 21.139 C 237.313 23.820,234.339 30.065,234.561 30.644 C 235.168 32.224,237.947 28.851,240.969 22.868 C 242.613 19.613,241.049 18.176,239.088 21.139 M179.444 21.829 C 178.787 23.541,197.384 39.600,200.023 39.600 C 201.140 39.600,201.012 38.225,199.808 37.278 C 199.262 36.848,196.427 34.204,193.508 31.401 C 185.045 23.276,180.164 19.954,179.444 21.829 M263.322 24.229 C 261.399 25.235,258.919 26.598,257.813 27.257 C 256.706 27.916,253.280 29.949,250.200 31.776 C 244.904 34.916,242.923 36.800,244.918 36.800 C 246.341 36.800,265.292 26.885,267.471 25.000 C 270.763 22.154,268.200 21.678,263.322 24.229 M219.600 35.805 C 208.628 38.812,202.139 48.192,203.574 58.972 C 204.442 65.499,206.335 69.380,210.038 72.230 C 212.934 74.458,214.672 76.736,215.262 79.080 L 215.695 80.800 221.838 80.800 L 227.980 80.800 227.522 79.700 C 227.257 79.065,227.050 76.213,227.032 72.948 L 227.000 67.297 226.046 67.659 C 225.017 68.050,223.200 67.196,223.200 66.321 C 223.200 66.068,222.759 66.275,222.220 66.781 C 221.590 67.373,220.912 67.638,220.316 67.524 L 219.391 67.347 220.081 71.374 C 220.968 76.546,221.022 80.000,220.216 80.000 C 219.369 80.000,218.087 75.530,217.176 69.400 C 216.159 62.552,216.178 62.194,217.438 64.400 C 218.814 66.807,218.954 66.877,218.632 65.000 C 218.173 62.326,218.034 62.066,217.186 62.288 C 216.644 62.429,216.400 62.293,216.400 61.847 C 216.400 60.494,217.886 61.195,218.844 63.000 C 220.119 65.403,221.046 65.387,221.698 62.951 C 222.514 59.898,224.017 60.243,224.555 63.608 C 224.932 65.969,225.923 65.650,227.864 62.543 C 228.228 61.961,228.246 62.181,227.948 63.565 C 227.365 66.264,227.679 66.627,228.945 64.722 C 229.960 63.195,230.051 63.136,229.753 64.200 C 229.568 64.860,229.413 68.865,229.408 73.100 L 229.400 80.799 230.600 80.799 C 231.792 80.798,231.800 80.782,231.870 78.397 C 231.972 74.880,232.589 73.403,235.632 69.390 C 240.983 62.333,242.733 56.464,241.420 49.976 C 239.211 39.052,229.876 32.990,219.600 35.805 M255.616 45.863 C 254.634 46.206,252.384 46.693,250.616 46.944 C 247.859 47.335,247.400 47.511,247.400 48.175 C 247.400 50.426,256.789 49.785,259.411 47.355 C 261.487 45.431,259.302 44.572,255.616 45.863 M176.000 45.965 C 174.415 46.134,173.800 46.368,173.800 46.800 C 173.800 47.441,191.588 47.747,192.217 47.117 C 193.629 45.702,184.523 45.056,176.000 45.965 M230.216 61.227 C 230.361 61.461,230.409 61.724,230.323 61.811 C 230.048 62.085,228.400 61.522,228.400 61.153 C 228.400 60.653,229.899 60.713,230.216 61.227 M222.428 62.900 C 222.444 63.395,222.597 64.160,222.769 64.600 C 223.113 65.479,223.024 65.630,223.827 62.800 C 224.001 62.185,223.863 62.000,223.227 62.000 C 222.628 62.000,222.408 62.248,222.428 62.900 M250.134 62.627 C 250.002 62.972,250.060 63.420,250.263 63.623 C 251.115 64.475,276.345 69.630,284.442 70.607 C 286.293 70.830,286.727 70.766,286.930 70.239 C 287.262 69.374,286.869 68.470,286.063 68.247 C 280.671 66.751,271.652 65.098,255.352 62.616 C 250.378 61.859,250.429 61.859,250.134 62.627 M186.200 65.654 C 172.537 68.919,161.614 72.547,162.569 73.503 C 163.374 74.307,190.515 66.556,190.729 65.460 C 190.890 64.639,190.351 64.662,186.200 65.654 M337.400 231.642 C 333.912 233.471,324.496 239.568,320.478 242.598 C 317.549 244.808,317.015 246.864,319.302 247.127 C 322.485 247.493,343.600 234.953,343.600 232.696 C 343.600 229.866,341.475 229.505,337.400 231.642 " stroke="none" fill="#ffd4a8" fill-rule="evenodd"></path><path id="path5" d="M228.800 61.200 C 228.800 61.420,229.171 61.600,229.624 61.600 C 230.077 61.600,230.336 61.420,230.200 61.200 C 230.064 60.980,229.693 60.800,229.376 60.800 C 229.059 60.800,228.800 60.980,228.800 61.200 M216.667 61.467 C 216.143 61.990,216.413 62.322,217.196 62.117 C 217.633 62.003,217.892 61.750,217.772 61.555 C 217.512 61.134,217.037 61.096,216.667 61.467 M222.400 61.600 C 222.400 61.820,222.760 62.000,223.200 62.000 C 223.640 62.000,224.000 61.820,224.000 61.600 C 224.000 61.380,223.640 61.200,223.200 61.200 C 222.760 61.200,222.400 61.380,222.400 61.600 M221.856 63.464 C 221.269 65.231,220.399 65.494,219.378 64.213 L 218.450 63.050 218.816 64.625 C 219.430 67.273,219.034 67.406,217.533 65.056 L 216.731 63.800 216.994 66.400 C 217.589 72.272,219.065 78.754,220.039 79.780 C 220.623 80.395,220.461 74.389,219.800 70.935 C 219.049 67.009,219.044 67.097,219.985 67.395 C 221.818 67.977,222.981 66.377,222.454 64.000 C 222.180 62.765,222.109 62.702,221.856 63.464 M223.670 63.970 C 222.868 66.271,223.494 67.600,225.380 67.600 C 226.558 67.600,227.058 66.979,227.415 65.068 L 227.701 63.535 226.669 64.568 C 225.351 65.885,224.875 65.870,224.573 64.500 C 224.439 63.895,224.287 63.225,224.235 63.011 C 224.183 62.797,223.929 63.229,223.670 63.970 M228.267 65.821 C 226.526 68.003,226.712 79.979,228.492 80.322 C 229.026 80.425,229.797 66.786,229.385 64.519 C 229.377 64.474,228.874 65.060,228.267 65.821 M218.383 83.980 C 215.626 84.265,214.672 84.616,214.889 85.266 C 215.126 85.978,232.806 86.049,233.079 85.340 C 233.649 83.852,226.238 83.166,218.383 83.980 M224.400 89.308 C 224.290 89.412,222.760 89.604,221.000 89.734 C 219.240 89.864,217.755 89.977,217.700 89.985 C 217.447 90.023,217.635 91.205,217.900 91.244 C 219.144 91.424,231.953 91.513,232.523 91.345 C 233.462 91.068,233.233 89.919,232.200 89.727 C 230.684 89.444,224.600 89.117,224.400 89.308 M220.400 92.281 C 217.571 92.810,218.968 93.810,223.105 94.218 C 225.977 94.501,227.308 93.890,226.153 92.819 C 225.707 92.405,221.727 92.032,220.400 92.281 M110.582 240.982 C 109.471 242.093,109.412 242.686,110.063 246.219 C 111.134 252.034,107.395 254.535,101.559 251.906 C 90.914 247.111,81.402 251.207,80.903 260.800 C 80.598 266.679,84.742 269.290,85.338 263.593 C 86.131 256.000,90.976 253.805,98.600 257.585 C 107.651 262.072,115.977 258.234,117.407 248.915 C 118.206 243.704,113.421 238.142,110.582 240.982 M97.400 312.996 C 92.780 313.273,85.940 313.615,82.200 313.756 C 78.460 313.897,74.320 314.088,73.000 314.181 C 71.680 314.274,68.080 314.458,65.000 314.590 C 61.920 314.722,58.320 314.924,57.000 315.040 C 55.680 315.155,53.070 315.314,51.200 315.392 C 49.330 315.471,45.640 315.661,43.000 315.814 C 40.360 315.968,37.255 316.081,36.100 316.066 C 34.945 316.051,34.000 316.165,34.000 316.319 C 34.001 316.474,32.696 316.600,31.100 316.600 C 29.505 316.600,25.680 316.745,22.600 316.923 C 19.520 317.100,16.302 317.226,15.450 317.203 C 14.109 317.167,13.939 317.259,14.192 317.881 C 14.352 318.276,14.642 319.140,14.836 319.800 C 15.029 320.460,15.396 321.450,15.650 322.000 C 16.663 324.192,17.240 325.609,19.155 330.600 C 20.251 333.460,21.367 336.340,21.635 337.000 C 21.902 337.660,22.611 339.550,23.212 341.200 C 24.713 345.329,26.334 349.469,27.253 351.521 C 27.677 352.467,28.286 354.016,28.608 354.963 C 28.929 355.909,29.496 357.385,29.867 358.242 C 30.237 359.099,30.603 360.146,30.678 360.569 C 30.754 360.991,30.961 361.531,31.139 361.769 C 31.317 362.006,31.780 363.100,32.169 364.200 C 32.557 365.300,33.128 366.767,33.438 367.460 C 33.747 368.154,34.000 369.009,34.000 369.360 C 34.000 369.712,34.180 370.000,34.400 370.000 C 34.620 370.000,34.755 370.139,34.700 370.308 C 34.645 370.478,34.901 371.333,35.269 372.208 C 36.790 375.830,40.400 385.478,40.400 385.922 C 40.400 386.185,40.610 386.400,40.867 386.400 C 41.123 386.400,41.215 386.518,41.070 386.663 C 40.925 386.808,40.982 387.137,41.196 387.395 C 41.409 387.652,41.648 388.209,41.726 388.631 C 41.804 389.054,42.103 389.940,42.390 390.600 C 43.485 393.116,43.920 394.233,44.181 395.200 C 44.329 395.750,44.609 396.560,44.803 397.000 C 46.460 400.755,46.800 401.633,46.800 402.162 C 46.800 402.765,136.003 402.817,159.400 402.228 C 163.800 402.117,180.900 401.916,197.400 401.781 C 213.900 401.646,227.736 401.442,228.146 401.327 C 228.860 401.126,229.007 397.273,228.326 396.593 C 228.211 396.478,208.966 395.219,185.559 393.795 C 162.151 392.371,142.453 391.114,141.785 391.001 C 140.561 390.794,139.143 387.967,137.202 381.861 C 136.933 381.015,136.463 379.845,136.159 379.261 C 135.854 378.678,135.604 377.896,135.602 377.524 C 135.601 377.152,135.420 376.736,135.200 376.600 C 134.980 376.464,134.799 376.048,134.798 375.676 C 134.796 375.304,134.510 374.460,134.162 373.800 C 133.813 373.140,133.468 372.300,133.394 371.934 C 133.277 371.359,131.134 365.479,130.037 362.725 C 129.834 362.216,129.096 360.270,128.396 358.400 C 127.696 356.530,126.973 354.640,126.790 354.200 C 126.606 353.760,126.243 352.708,125.984 351.861 C 125.725 351.015,125.263 349.845,124.959 349.261 C 124.654 348.678,124.404 348.013,124.402 347.785 C 124.401 347.556,124.046 346.674,123.613 345.825 C 123.180 344.976,122.921 344.128,123.037 343.941 C 123.152 343.753,123.057 343.600,122.824 343.600 C 122.591 343.600,122.434 343.465,122.476 343.300 C 122.649 342.618,121.904 340.400,121.502 340.400 C 121.262 340.400,121.167 340.300,121.289 340.177 C 121.514 339.953,120.285 336.363,118.969 333.400 C 118.578 332.520,118.216 331.620,118.164 331.400 C 117.860 330.113,116.539 326.955,116.200 326.706 C 115.980 326.544,115.919 326.409,116.064 326.406 C 116.210 326.403,115.891 325.185,115.356 323.700 C 114.483 321.279,113.958 319.992,112.783 317.400 C 112.584 316.960,112.078 315.700,111.659 314.600 L 110.897 312.600 108.349 312.547 C 106.947 312.517,102.020 312.720,97.400 312.996 M153.600 341.036 C 146.045 341.568,145.512 341.709,145.677 343.134 C 145.844 344.582,149.185 344.857,162.800 344.549 C 174.776 344.277,176.433 343.835,174.643 341.392 C 173.943 340.438,164.394 340.277,153.600 341.036 M79.347 345.675 C 88.450 350.319,85.337 364.554,75.223 364.528 C 62.698 364.495,61.151 347.635,73.400 344.658 C 74.750 344.330,77.699 344.834,79.347 345.675 " stroke="none" fill="#c9c9c9" fill-rule="evenodd"></path><path id="path6" d="M222.150 61.387 C 222.026 61.710,222.017 62.205,222.131 62.487 C 222.244 62.769,222.351 62.608,222.368 62.129 C 222.386 61.650,222.715 61.176,223.100 61.076 C 223.756 60.904,223.755 60.890,223.087 60.846 C 222.696 60.821,222.274 61.064,222.150 61.387 M226.914 70.600 C 226.917 71.700,226.995 72.103,227.087 71.495 C 227.179 70.886,227.177 69.986,227.082 69.495 C 226.987 69.003,226.911 69.500,226.914 70.600 M226.901 75.000 C 226.905 75.880,226.987 76.193,227.083 75.695 C 227.179 75.198,227.175 74.478,227.075 74.095 C 226.975 73.713,226.896 74.120,226.901 75.000 M220.528 77.200 C 220.528 78.630,220.601 79.215,220.689 78.500 C 220.778 77.785,220.778 76.615,220.689 75.900 C 220.601 75.185,220.528 75.770,220.528 77.200 M229.328 77.600 C 229.328 79.030,229.401 79.615,229.489 78.900 C 229.578 78.185,229.578 77.015,229.489 76.300 C 229.401 75.585,229.328 76.170,229.328 77.600 M216.920 175.600 C 216.920 176.810,216.995 177.305,217.087 176.700 C 217.178 176.095,217.178 175.105,217.087 174.500 C 216.995 173.895,216.920 174.390,216.920 175.600 M215.301 175.800 C 215.305 176.680,215.387 176.993,215.483 176.495 C 215.579 175.998,215.575 175.278,215.475 174.895 C 215.375 174.513,215.296 174.920,215.301 175.800 M214.914 182.600 C 214.917 183.700,214.995 184.103,215.087 183.495 C 215.179 182.886,215.177 181.986,215.082 181.495 C 214.987 181.003,214.911 181.500,214.914 182.600 M216.501 182.200 C 216.505 183.080,216.587 183.393,216.683 182.895 C 216.779 182.398,216.775 181.678,216.675 181.295 C 216.575 180.913,216.496 181.320,216.501 182.200 M216.114 188.600 C 216.117 189.700,216.195 190.103,216.287 189.495 C 216.379 188.886,216.377 187.986,216.282 187.495 C 216.187 187.003,216.111 187.500,216.114 188.600 M220.100 200.676 C 220.485 200.776,221.115 200.776,221.500 200.676 C 221.885 200.575,221.570 200.493,220.800 200.493 C 220.030 200.493,219.715 200.575,220.100 200.676 M80.501 261.000 C 80.505 261.880,80.587 262.193,80.683 261.695 C 80.779 261.198,80.775 260.478,80.675 260.095 C 80.575 259.713,80.496 260.120,80.501 261.000 M243.891 305.489 C 244.601 305.577,245.861 305.579,246.691 305.492 C 247.521 305.405,246.940 305.333,245.400 305.331 C 243.860 305.329,243.181 305.400,243.891 305.489 M236.100 307.497 C 237.585 307.574,240.015 307.574,241.500 307.497 C 242.985 307.420,241.770 307.357,238.800 307.357 C 235.830 307.357,234.615 307.420,236.100 307.497 M103.505 312.683 C 104.002 312.779,104.722 312.775,105.105 312.675 C 105.487 312.575,105.080 312.496,104.200 312.501 C 103.320 312.505,103.007 312.587,103.505 312.683 M96.305 313.083 C 96.802 313.179,97.522 313.175,97.905 313.075 C 98.287 312.975,97.880 312.896,97.000 312.901 C 96.120 312.905,95.807 312.987,96.305 313.083 M88.700 313.482 C 89.195 313.578,90.005 313.578,90.500 313.482 C 90.995 313.387,90.590 313.309,89.600 313.309 C 88.610 313.309,88.205 313.387,88.700 313.482 M163.300 340.691 C 164.125 340.778,165.475 340.778,166.300 340.691 C 167.125 340.605,166.450 340.534,164.800 340.534 C 163.150 340.534,162.475 340.605,163.300 340.691 M163.911 344.693 C 164.851 344.778,166.291 344.777,167.111 344.691 C 167.930 344.605,167.160 344.536,165.400 344.537 C 163.640 344.539,162.970 344.609,163.911 344.693 M147.505 391.483 C 148.002 391.579,148.722 391.575,149.105 391.475 C 149.487 391.375,149.080 391.296,148.200 391.301 C 147.320 391.305,147.007 391.387,147.505 391.483 M153.905 391.883 C 154.402 391.979,155.122 391.975,155.505 391.875 C 155.887 391.775,155.480 391.696,154.600 391.701 C 153.720 391.705,153.407 391.787,153.905 391.883 M160.500 392.276 C 160.885 392.376,161.515 392.376,161.900 392.276 C 162.285 392.175,161.970 392.093,161.200 392.093 C 160.430 392.093,160.115 392.175,160.500 392.276 M167.105 392.683 C 167.602 392.779,168.322 392.775,168.705 392.675 C 169.087 392.575,168.680 392.496,167.800 392.501 C 166.920 392.505,166.607 392.587,167.105 392.683 M173.505 393.083 C 174.002 393.179,174.722 393.175,175.105 393.075 C 175.487 392.975,175.080 392.896,174.200 392.901 C 173.320 392.905,173.007 392.987,173.505 393.083 M180.100 393.476 C 180.485 393.576,181.115 393.576,181.500 393.476 C 181.885 393.375,181.570 393.293,180.800 393.293 C 180.030 393.293,179.715 393.375,180.100 393.476 M186.500 393.876 C 186.885 393.976,187.515 393.976,187.900 393.876 C 188.285 393.775,187.970 393.693,187.200 393.693 C 186.430 393.693,186.115 393.775,186.500 393.876 M193.105 394.283 C 193.602 394.379,194.322 394.375,194.705 394.275 C 195.087 394.175,194.680 394.096,193.800 394.101 C 192.920 394.105,192.607 394.187,193.105 394.283 M199.700 394.676 C 200.085 394.776,200.715 394.776,201.100 394.676 C 201.485 394.575,201.170 394.493,200.400 394.493 C 199.630 394.493,199.315 394.575,199.700 394.676 M206.100 395.076 C 206.485 395.176,207.115 395.176,207.500 395.076 C 207.885 394.975,207.570 394.893,206.800 394.893 C 206.030 394.893,205.715 394.975,206.100 395.076 M212.705 395.483 C 213.202 395.579,213.922 395.575,214.305 395.475 C 214.687 395.375,214.280 395.296,213.400 395.301 C 212.520 395.305,212.207 395.387,212.705 395.483 M219.300 395.876 C 219.685 395.976,220.315 395.976,220.700 395.876 C 221.085 395.775,220.770 395.693,220.000 395.693 C 219.230 395.693,218.915 395.775,219.300 395.876 M225.905 396.283 C 226.402 396.379,227.122 396.375,227.505 396.275 C 227.887 396.175,227.480 396.096,226.600 396.101 C 225.720 396.105,225.407 396.187,225.905 396.283 M198.100 401.897 C 199.805 401.972,202.595 401.972,204.300 401.897 C 206.005 401.822,204.610 401.761,201.200 401.761 C 197.790 401.761,196.395 401.822,198.100 401.897 M163.300 402.297 C 165.005 402.372,167.795 402.372,169.500 402.297 C 171.205 402.222,169.810 402.161,166.400 402.161 C 162.990 402.161,161.595 402.222,163.300 402.297 M124.900 402.676 C 125.285 402.776,125.915 402.776,126.300 402.676 C 126.685 402.575,126.370 402.493,125.600 402.493 C 124.830 402.493,124.515 402.575,124.900 402.676 " stroke="none" fill="#a56a95" fill-rule="evenodd"></path><path id="path7" d="M216.901 172.200 C 216.905 173.080,216.987 173.393,217.083 172.895 C 217.179 172.398,217.175 171.678,217.075 171.295 C 216.975 170.913,216.896 171.320,216.901 172.200 M214.893 185.600 C 214.893 186.370,214.975 186.685,215.076 186.300 C 215.176 185.915,215.176 185.285,215.076 184.900 C 214.975 184.515,214.893 184.830,214.893 185.600 M259.775 251.700 L 258.600 253.000 259.900 251.825 C 260.615 251.179,261.200 250.594,261.200 250.525 C 261.200 250.216,260.870 250.488,259.775 251.700 M230.500 307.487 C 231.105 307.578,232.095 307.578,232.700 307.487 C 233.305 307.395,232.810 307.320,231.600 307.320 C 230.390 307.320,229.895 307.395,230.500 307.487 M245.700 307.494 C 246.745 307.576,248.455 307.576,249.500 307.494 C 250.545 307.412,249.690 307.344,247.600 307.344 C 245.510 307.344,244.655 307.412,245.700 307.494 " stroke="none" fill="#744c74" fill-rule="evenodd"></path><path id="path8" d="M236.719 401.498 C 238.544 401.572,241.424 401.572,243.119 401.497 C 244.814 401.422,243.320 401.361,239.800 401.362 C 236.280 401.362,234.894 401.424,236.719 401.498 M208.711 401.893 C 209.651 401.978,211.091 401.977,211.911 401.891 C 212.730 401.805,211.960 401.736,210.200 401.737 C 208.440 401.739,207.770 401.809,208.711 401.893 M174.300 402.295 C 175.455 402.376,177.345 402.376,178.500 402.295 C 179.655 402.214,178.710 402.148,176.400 402.148 C 174.090 402.148,173.145 402.214,174.300 402.295 " stroke="none" fill="#e6a1b6" fill-rule="evenodd"></path></g></svg>